<svg width="1745" height="3280" viewBox="0 0 1745 3280" fill="none" xmlns="http://www.w3.org/2000/svg">
<path d="M1423.48 248.06L1413.81 251.87L1235.23 322.21L1226.17 305.12L1089.5 343.9C1083.93 345.482 1077.99 345.173 1072.61 343.02C1067.23 340.866 1062.72 336.991 1059.78 332L1002.42 348.27L933.42 105.17L989.97 89.17L989.79 88.53L1236 18.59C1250.87 14.3693 1266.43 13.1192 1281.78 14.9113C1297.14 16.7033 1311.99 21.5023 1325.49 29.0343C1338.98 36.5662 1350.87 46.6835 1360.46 58.8084C1370.05 70.9334 1377.15 84.8284 1381.37 99.7L1423.26 247.33L1423.48 248.06Z" fill="#79E59B"/>
<path d="M1490.59 823.32L1489.61 823.59L1486.88 813.7L1490.59 823.32Z" fill="#79E59B"/>
<path d="M1491.81 826.49L1490.59 823.32L1491.32 823.12L1491.81 826.49Z" fill="#79E59B"/>
<path d="M1639.27 782.35L1491.27 823.12L1490.54 823.32L1486.83 813.7L1417.83 634.51L1434.99 625.58L1397.25 488.58C1395.73 482.993 1396.1 477.06 1398.31 471.707C1400.52 466.355 1404.44 461.886 1409.46 459L1393.62 401.53L1637.23 334.4L1652.85 391.07L1653.5 390.89L1721.5 637.61C1729.79 667.708 1725.78 699.865 1710.36 727.008C1694.94 754.152 1669.37 774.058 1639.27 782.35Z" fill="#79E59B"/>
<path d="M1601.45 675C1601.45 675 1561.07 734.49 1500.45 702.82C1500.49 702.85 1531.05 651 1601.45 675Z" fill="white"/>
<path d="M1551 708.58C1561.07 708.58 1569.24 700.414 1569.24 690.34C1569.24 680.266 1561.07 672.1 1551 672.1C1540.93 672.1 1532.76 680.266 1532.76 690.34C1532.76 700.414 1540.93 708.58 1551 708.58Z" fill="black"/>
<path d="M1582.46 621.4C1582.46 621.4 1542.09 680.88 1481.46 649.22C1481.5 649.22 1512.06 597.34 1582.46 621.4Z" fill="white"/>
<path d="M1532.02 654.94C1542.09 654.94 1550.26 646.774 1550.26 636.7C1550.26 626.626 1542.09 618.46 1532.02 618.46C1521.95 618.46 1513.78 626.626 1513.78 636.7C1513.78 646.774 1521.95 654.94 1532.02 654.94Z" fill="black"/>
<path d="M1685.13 520.92C1674.42 523.873 1665.32 530.958 1659.84 540.617C1654.35 550.276 1652.92 561.719 1655.87 572.43L1660 587.43C1665.35 585.966 1671.06 586.677 1675.88 589.406C1680.71 592.136 1684.26 596.663 1685.76 602L1687.91 609.82C1688.64 612.471 1688.84 615.24 1688.51 617.969C1688.17 620.698 1687.29 623.333 1685.94 625.724C1684.58 628.116 1682.76 630.216 1680.59 631.906C1678.42 633.595 1675.94 634.84 1673.29 635.57L1668.07 637.01L1672.26 652.19C1674.35 659.777 1674.93 667.702 1673.95 675.511C1672.98 683.321 1670.48 690.863 1666.59 697.706C1662.71 704.549 1657.51 710.559 1651.3 715.393C1645.09 720.227 1637.99 723.791 1630.4 725.88L1497.56 762.49C1488 765.127 1479.87 771.455 1474.98 780.081C1470.08 788.708 1468.81 798.926 1471.44 808.49L1473.81 817.09C1475.3 822.516 1477.85 827.594 1481.31 832.035C1484.77 836.476 1489.07 840.192 1493.96 842.971C1498.85 845.751 1504.25 847.539 1509.83 848.233C1515.42 848.928 1521.08 848.516 1526.51 847.02L1641.13 815.44C1675.44 805.983 1704.58 783.288 1722.15 752.345C1739.73 721.403 1744.29 684.747 1734.84 650.44L1707.33 550.6C1703.95 538.32 1697.12 525.7 1685.27 521.04C1685.24 521.03 1685.21 521.014 1685.19 520.994C1685.16 520.973 1685.14 520.948 1685.13 520.92Z" fill="black"/>
<path d="M1645.18 584.49L1602.64 430.12L1594.83 401.77C1591.75 390.608 1586.51 380.161 1579.4 371.026C1572.28 361.891 1563.44 354.247 1553.37 348.529C1543.3 342.812 1532.21 339.134 1520.72 337.704C1509.23 336.275 1497.57 337.123 1486.41 340.2L1431.22 355.41C1417.64 359.152 1404.93 365.533 1393.81 374.188C1382.7 382.843 1373.39 393.603 1366.44 405.853C1359.48 418.103 1355 431.603 1353.26 445.583C1351.53 459.563 1352.56 473.749 1356.3 487.33L1379.57 571.79C1381.61 579.194 1385.09 586.124 1389.81 592.183C1394.53 598.243 1400.39 603.314 1407.07 607.106C1413.75 610.899 1421.11 613.338 1428.73 614.286C1436.35 615.234 1444.09 614.671 1451.49 612.63L1613.32 568L1629.83 628L1655.23 621C1655.23 621 1644.72 585.3 1645.18 584.49Z" fill="black"/>
<path d="M791.02 407.56L782.46 401.9L783.1 401.12L791.02 407.56Z" fill="#79E59B"/>
<path d="M1056.42 657.21L900.67 848.65L702.15 687.15C677.934 667.443 662.539 638.924 659.351 607.866C656.163 576.808 665.443 545.756 685.15 521.54L782 402.54L782.48 401.95L791.04 407.61L951.24 513.61L942.45 530.84L1052.65 620.5C1058 624.88 1061.4 631.199 1062.11 638.077C1062.81 644.956 1060.77 651.834 1056.42 657.21Z" fill="#79E59B"/>
<path d="M782.46 401.9L781.98 402.49L779.63 400.03L782.46 401.9Z" fill="#79E59B"/>
<path d="M778.2 587C778.2 587 776.57 515.12 844.29 505.76C844.29 505.77 849.49 565.75 778.2 587Z" fill="white"/>
<path d="M810.41 563.51C820.484 563.51 828.65 555.344 828.65 545.27C828.65 535.196 820.484 527.03 810.41 527.03C800.336 527.03 792.17 535.196 792.17 545.27C792.17 555.344 800.336 563.51 810.41 563.51Z" fill="black"/>
<path d="M824.78 619.68C824.78 619.68 823.16 547.81 890.87 538.44C890.87 538.44 896.08 598.42 824.78 619.68Z" fill="white"/>
<path d="M856.99 596.19C867.064 596.19 875.23 588.024 875.23 577.95C875.23 567.876 867.064 559.71 856.99 559.71C846.916 559.71 838.75 567.876 838.75 577.95C838.75 588.024 846.916 596.19 856.99 596.19Z" fill="black"/>
<path d="M799.46 761.08C806.468 752.461 809.767 741.411 808.63 730.36C807.494 719.31 802.016 709.163 793.4 702.15L781.34 692.34C779.603 694.472 777.463 696.241 775.043 697.546C772.622 698.851 769.968 699.666 767.232 699.945C764.496 700.224 761.732 699.96 759.097 699.17C756.463 698.38 754.011 697.078 751.88 695.34L745.59 690.23C741.297 686.711 738.571 681.636 738.009 676.114C737.446 670.592 739.094 665.071 742.59 660.76L746 656.6L733.79 646.66C727.684 641.695 722.616 635.576 718.875 628.652C715.135 621.728 712.795 614.135 711.99 606.306C711.185 598.478 711.93 590.567 714.183 583.027C716.436 575.486 720.152 568.464 725.12 562.36L812.12 455.47C815.22 451.66 817.54 447.276 818.946 442.57C820.352 437.863 820.817 432.926 820.315 428.039C819.812 423.153 818.352 418.413 816.018 414.091C813.684 409.769 810.521 405.949 806.71 402.85L799.79 397.22C795.425 393.667 790.403 391.009 785.011 389.397C779.618 387.785 773.961 387.251 768.363 387.826C762.764 388.401 757.333 390.073 752.381 392.747C747.429 395.421 743.052 399.044 739.5 403.41L664.5 495.64C653.379 509.309 645.059 525.035 640.016 541.919C634.973 558.804 633.305 576.516 635.108 594.045C636.91 611.574 642.147 628.577 650.521 644.081C658.895 659.586 670.24 673.29 683.91 684.41L764.24 749.77C774.12 757.77 787.01 764.13 799.36 761.05C799.395 761.052 799.429 761.062 799.46 761.08Z" fill="black"/>
<path d="M795.11 686.13L919.33 787.13L942.13 805.68C960.266 820.428 983.516 827.37 1006.77 824.979C1030.02 822.588 1051.37 811.06 1066.13 792.93L1102.26 748.52C1120.21 726.449 1128.67 698.149 1125.76 669.846C1122.85 641.543 1108.81 615.555 1086.74 597.6L1018.74 542.32C1012.78 537.472 1005.93 533.845 998.568 531.646C991.209 529.448 983.488 528.721 975.847 529.506C968.207 530.292 960.796 532.575 954.037 536.225C947.279 539.875 941.306 544.821 936.46 550.78L830.61 681L782.39 641.77L765.76 662.21C765.76 662.21 795 685.2 795.11 686.13Z" fill="black"/>
<path d="M1423.76 249.05L1413.81 251.87L1423.48 248.06L1423.76 249.05Z" fill="#79E59B"/>
<path d="M1426.64 246.82L1423.48 248.06L1423.27 247.33L1426.64 246.82Z" fill="#79E59B"/>
<path d="M1274.36 138.34C1274.36 138.34 1334.15 178.26 1302.95 239.08C1303 239.08 1250.84 208.92 1274.36 138.34Z" fill="white"/>
<path d="M1290.04 206.91C1300.11 206.91 1308.28 198.744 1308.28 188.67C1308.28 178.596 1300.11 170.43 1290.04 170.43C1279.97 170.43 1271.8 178.596 1271.8 188.67C1271.8 198.744 1279.97 206.91 1290.04 206.91Z" fill="black"/>
<path d="M1220.87 157.73C1220.87 157.73 1280.65 197.65 1249.45 258.48C1249.45 258.48 1197.35 228.31 1220.87 157.73Z" fill="white"/>
<path d="M1236.55 226.3C1246.62 226.3 1254.79 218.134 1254.79 208.06C1254.79 197.986 1246.62 189.82 1236.55 189.82C1226.48 189.82 1218.31 197.986 1218.31 208.06C1218.31 218.134 1226.48 226.3 1236.55 226.3Z" fill="black"/>
<path d="M1119.61 55.8298C1122.65 66.5168 1129.8 75.5607 1139.5 80.9727C1149.21 86.3847 1160.66 87.7217 1171.35 84.6898L1186.35 80.4498C1185.6 77.8036 1185.37 75.0353 1185.69 72.3028C1186.01 69.5704 1186.86 66.9274 1188.2 64.525C1189.54 62.1225 1191.35 60.0077 1193.5 58.3012C1195.66 56.5948 1198.13 55.3302 1200.78 54.5798L1208.58 52.3698C1213.92 50.8662 1219.63 51.541 1224.47 54.2462C1229.31 56.9514 1232.88 61.466 1234.4 66.7998L1235.87 71.9998L1251 67.6998C1266.29 63.368 1282.67 65.2852 1296.55 73.0298C1310.43 80.7744 1320.66 93.7125 1325 109L1362.61 241.55C1363.95 246.276 1366.21 250.692 1369.26 254.545C1372.3 258.399 1376.08 261.614 1380.37 264.008C1384.66 266.402 1389.38 267.928 1394.26 268.497C1399.14 269.067 1404.08 268.671 1408.81 267.33L1417.39 264.89C1422.81 263.361 1427.87 260.781 1432.29 257.296C1436.71 253.81 1440.4 249.489 1443.15 244.577C1445.9 239.666 1447.65 234.261 1448.31 228.672C1448.98 223.082 1448.53 217.417 1447 212L1414.5 97.5898C1404.78 63.3528 1381.86 34.378 1350.78 17.0387C1319.7 -0.300652 1283.01 -4.58436 1248.77 5.12978L1149.14 33.3998C1136.89 36.8798 1124.32 43.7998 1119.75 55.6898C1119.74 55.7224 1119.72 55.7521 1119.7 55.7764C1119.67 55.8007 1119.64 55.819 1119.61 55.8298Z" fill="black"/>
<path d="M1183.49 95.29L1029.49 139.01L1001.21 147.01C978.716 153.394 959.68 168.451 948.287 188.87C936.895 209.288 934.079 233.396 940.46 255.89L956 311C959.844 324.553 966.321 337.215 975.06 348.265C983.798 359.314 994.628 368.534 1006.93 375.399C1019.23 382.263 1032.77 386.637 1046.76 388.27C1060.75 389.904 1074.93 388.766 1088.48 384.92L1172.8 361C1180.19 358.904 1187.09 355.373 1193.12 350.609C1199.14 345.844 1204.17 339.94 1207.91 333.233C1211.65 326.525 1214.04 319.146 1214.93 311.517C1215.82 303.888 1215.2 296.159 1213.1 288.77L1167.28 127.29L1227.08 110.29L1219.88 84.95C1219.88 84.95 1184.29 95.75 1183.49 95.29Z" fill="black"/>
<path d="M197.22 1804.23L1211.57 1381.58L1276.89 1538.36C1298.13 1589.32 1298.25 1646.62 1277.23 1697.67C1256.21 1748.72 1215.77 1789.33 1164.81 1810.56L342.605 2153.15C296.335 2172.43 244.301 2172.54 197.951 2153.45C151.601 2134.37 114.73 2097.65 95.451 2051.38C76.1717 2005.11 76.0627 1953.08 95.1481 1906.73C114.233 1860.38 150.95 1823.51 197.22 1804.23Z" fill="#F64C6F"/>
<path d="M1013.21 1004H1438.78C1465.73 1004 1492.42 1009.31 1517.31 1019.62C1542.21 1029.93 1564.84 1045.05 1583.89 1064.1C1602.95 1083.16 1618.07 1105.78 1628.38 1130.68C1638.69 1155.58 1644 1182.26 1644 1209.21V1554H808V1209.21C808 1154.78 829.62 1102.59 868.105 1064.1C906.589 1025.62 958.785 1004 1013.21 1004Z" fill="#F64C6F"/>
<path d="M1745 704.93V1280.5C1745 1308.22 1733.99 1334.8 1714.39 1354.39C1694.8 1373.99 1668.22 1385 1640.5 1385C1612.78 1385 1586.2 1373.99 1566.61 1354.39C1547.01 1334.8 1536 1308.22 1536 1280.5V926.85H1467V900.49C1467 892.69 1468.54 884.966 1471.52 877.76C1474.51 870.554 1478.88 864.006 1484.4 858.491C1489.91 852.976 1496.46 848.602 1503.67 845.618C1510.88 842.634 1518.6 841.099 1526.4 841.1H1576.85V837.47C1576.85 833.972 1575.46 830.617 1572.99 828.143C1570.51 825.67 1567.16 824.28 1563.66 824.28H1464.2C1461.51 824.34 1458.84 823.862 1456.34 822.875C1453.84 821.888 1451.56 820.412 1449.64 818.532C1447.72 816.653 1446.19 814.409 1445.15 811.931C1444.11 809.454 1443.57 806.793 1443.57 804.105C1443.57 801.417 1444.11 798.756 1445.15 796.279C1446.19 793.801 1447.72 791.557 1449.64 789.678C1451.56 787.798 1453.84 786.322 1456.34 785.335C1458.84 784.348 1461.51 783.87 1464.2 783.93H1588C1591.83 783.929 1595.63 784.682 1599.17 786.147C1602.71 787.613 1605.92 789.761 1608.63 792.47C1611.34 795.179 1613.49 798.395 1614.96 801.935C1616.43 805.474 1617.18 809.268 1617.18 813.1V841.1H1654.18V779.74C1654.18 776.244 1652.79 772.892 1650.32 770.42C1647.85 767.947 1644.5 766.555 1641 766.55H1541.53C1536.26 766.432 1531.24 764.255 1527.55 760.485C1523.86 756.714 1521.8 751.649 1521.8 746.375C1521.8 741.101 1523.86 736.036 1527.55 732.265C1531.24 728.494 1536.26 726.317 1541.53 726.2H1665.37C1673.11 726.2 1680.53 729.273 1686 734.744C1691.47 740.214 1694.54 747.634 1694.54 755.37V841.1H1704.63V729.3C1704.63 725.802 1703.24 722.449 1700.76 719.976C1698.29 717.503 1694.94 716.113 1691.44 716.11H1592C1589.31 716.17 1586.64 715.692 1584.14 714.705C1581.64 713.718 1579.36 712.242 1577.44 710.362C1575.52 708.483 1573.99 706.239 1572.95 703.761C1571.91 701.284 1571.37 698.623 1571.37 695.935C1571.37 693.247 1571.91 690.586 1572.95 688.109C1573.99 685.631 1575.52 683.387 1577.44 681.508C1579.36 679.628 1581.64 678.152 1584.14 677.165C1586.64 676.178 1589.31 675.7 1592 675.76H1715.83C1723.57 675.76 1730.99 678.833 1736.46 684.304C1741.93 689.774 1745 697.194 1745 704.93Z" fill="#79E59B"/>
<path d="M1627.07 676.2C1627.07 676.2 1623.62 698.35 1573.15 691.67" stroke="white" stroke-width="2" stroke-miterlimit="10"/>
<path d="M1576.63 726.64C1576.63 726.64 1573.18 748.79 1522.71 742.11" stroke="white" stroke-width="2" stroke-miterlimit="10"/>
<path d="M1499.29 784.37C1499.29 784.37 1495.83 806.51 1445.36 799.83" stroke="white" stroke-width="2" stroke-miterlimit="10"/>
<path d="M1009 815.11C1009 820.46 1006.87 825.59 1003.09 829.373C999.302 833.155 994.17 835.28 988.82 835.28H889.33C885.832 835.28 882.477 836.67 880.003 839.143C877.53 841.617 876.14 844.972 876.14 848.47V852.1H926.59C934.39 852.099 942.114 853.634 949.321 856.618C956.527 859.602 963.076 863.976 968.592 869.491C974.107 875.006 978.483 881.554 981.468 888.76C984.454 895.966 985.99 903.69 985.99 911.49V937.85H917V1282.5C917 1310.22 905.99 1336.8 886.393 1356.39C866.795 1375.99 840.215 1387 812.5 1387C784.785 1387 758.205 1375.99 738.607 1356.39C719.01 1336.8 708 1310.22 708 1282.5V715.93C708 708.194 711.073 700.774 716.544 695.304C722.014 689.833 729.434 686.76 737.17 686.76H861C863.687 686.7 866.359 687.178 868.859 688.165C871.36 689.152 873.637 690.628 875.559 692.508C877.481 694.387 879.007 696.631 880.05 699.109C881.092 701.586 881.629 704.247 881.629 706.935C881.629 709.623 881.092 712.284 880.05 714.761C879.007 717.239 877.481 719.483 875.559 721.362C873.637 723.242 871.36 724.718 868.859 725.705C866.359 726.692 863.687 727.17 861 727.11H761.54C758.043 727.113 754.689 728.503 752.216 730.976C749.743 733.449 748.353 736.802 748.35 740.3V852.1H758.44V766.37C758.44 758.634 761.513 751.214 766.984 745.744C772.454 740.273 779.874 737.2 787.61 737.2H911.45C916.723 737.317 921.74 739.494 925.428 743.265C929.116 747.036 931.181 752.101 931.181 757.375C931.181 762.649 929.116 767.714 925.428 771.485C921.74 775.255 916.723 777.432 911.45 777.55H812C808.503 777.553 805.149 778.943 802.676 781.416C800.203 783.889 798.813 787.242 798.81 790.74V852.1H835.81V824.1C835.81 820.268 836.565 816.473 838.032 812.932C839.5 809.392 841.65 806.175 844.361 803.466C847.072 800.758 850.29 798.609 853.831 797.145C857.372 795.68 861.168 794.927 865 794.93H988.83C994.18 794.933 999.311 797.06 1003.09 800.844C1006.88 804.628 1009 809.76 1009 815.11Z" fill="#79E59B"/>
<path d="M825.93 687.2C825.93 687.2 829.38 709.35 879.85 702.67" stroke="white" stroke-width="2" stroke-miterlimit="10"/>
<path d="M876.37 737.64C876.37 737.64 879.82 759.79 930.29 753.11" stroke="white" stroke-width="2" stroke-miterlimit="10"/>
<path d="M953.71 795.37C953.71 795.37 957.17 817.51 1007.64 810.83" stroke="white" stroke-width="2" stroke-miterlimit="10"/>
<path d="M392.787 2666.75L396.179 2965.73L0.204576 2970.22L0.174513 2967.57C-0.717121 2888.98 29.6484 2813.26 84.5908 2757.05C139.533 2700.85 214.552 2668.77 293.144 2667.88L392.787 2666.75Z" fill="#F8A0B6"/>
<path d="M451.957 1987.23L443.154 2763.18L65.1781 2758.89L73.9813 1982.94C74.55 1932.82 95.0066 1884.98 130.851 1849.94C166.695 1814.9 214.991 1795.53 265.113 1796.1C315.236 1796.67 363.08 1817.13 398.12 1852.97C433.16 1888.81 452.526 1937.11 451.957 1987.23Z" fill="#F64C6F"/>
<path d="M1265.59 2257.11V1481.11H1643.59V2257.11C1643.59 2307.24 1623.68 2355.31 1588.23 2390.75C1552.79 2426.2 1504.72 2446.11 1454.59 2446.11C1404.46 2446.11 1356.39 2426.2 1320.95 2390.75C1285.5 2355.31 1265.59 2307.24 1265.59 2257.11Z" fill="#F64C6F"/>
<path d="M1734.27 3277.21L1734.24 3279.86L1338.26 3275.58L1341.5 2976.6L1441.14 2977.68C1519.74 2978.53 1594.77 3010.56 1649.74 3066.74C1704.72 3122.91 1735.12 3198.62 1734.27 3277.21Z" fill="#F8A0B6"/>
<path d="M1643.68 2261.29L1652.89 3037.24L1274.91 3041.72L1265.7 2265.78C1265.11 2215.66 1284.45 2167.35 1319.47 2131.49C1354.49 2095.63 1402.32 2075.14 1452.45 2074.55C1502.57 2073.96 1550.87 2093.3 1586.74 2128.32C1622.6 2163.34 1643.08 2211.17 1643.68 2261.29Z" fill="#F64C6F"/>
</svg>
