<svg width="5095" height="3168" viewBox="0 0 5095 3168" fill="none" xmlns="http://www.w3.org/2000/svg">
<path d="M4747.54 357.322H2185.98C2087.91 357.322 2008.4 430.29 2008.4 520.301V1754.97C2008.4 1844.98 2087.91 1917.94 2185.98 1917.94H4747.54C4845.61 1917.94 4925.11 1844.98 4925.11 1754.97V520.301C4925.11 430.29 4845.61 357.322 4747.54 357.322Z" fill="#323B80"/>
<path d="M1820 1821.64L1753.22 1834.77V2295.01C1753.22 2313.79 1746.43 2332.04 1733.91 2346.89C1721.4 2361.74 1703.86 2372.37 1684.06 2377.09V2570.21H789.729V1550.73C789.726 1500.65 800.472 1451.05 821.352 1404.78C842.233 1358.52 872.84 1316.47 911.425 1281.06C950.01 1245.65 995.817 1217.56 1046.23 1198.39C1096.65 1179.23 1150.68 1169.37 1205.25 1169.37H1749.64L1753.22 1202.64L1820 1821.64Z" fill="#030303"/>
<path d="M1753.22 1169.37V1202.64L1749.64 1169.37H1753.22Z" fill="#F64C6F"/>
<path d="M1749.64 1169.37H1746.95L1748.45 1158.43L1749.64 1169.37Z" fill="#F64C6F"/>
<path d="M1233.32 1537.09C1233.32 1537.09 1426.49 1386.06 1602.97 1537.09C1602.97 1537.09 1450.34 1672.8 1233.32 1537.09Z" fill="white"/>
<path d="M1419.34 1591.81C1454.9 1591.81 1483.73 1565.35 1483.73 1532.71C1483.73 1500.07 1454.9 1473.62 1419.34 1473.62C1383.78 1473.62 1354.95 1500.07 1354.95 1532.71C1354.95 1565.35 1383.78 1591.81 1419.34 1591.81Z" fill="#030303"/>
<path d="M1247.63 1720.95C1247.63 1720.95 1440.8 1569.92 1617.28 1720.95C1617.28 1720.95 1464.65 1856.66 1247.63 1720.95Z" fill="white"/>
<path d="M1433.65 1775.67C1469.21 1775.67 1498.04 1749.21 1498.04 1716.57C1498.04 1683.93 1469.21 1657.48 1433.65 1657.48C1398.08 1657.48 1369.26 1683.93 1369.26 1716.57C1369.26 1749.21 1398.08 1775.67 1433.65 1775.67Z" fill="#030303"/>
<path d="M804.038 1946.4C843.254 1946.4 880.863 1932.1 908.593 1906.65C936.323 1881.2 951.901 1846.68 951.901 1810.69V1760.35C932.293 1760.35 913.489 1753.2 899.624 1740.48C885.759 1727.75 877.97 1710.49 877.97 1692.5V1666.23C877.97 1648.23 885.759 1630.98 899.624 1618.25C913.489 1605.53 932.293 1598.38 951.901 1598.38H970.98V1547.38C970.98 1521.88 976.452 1496.64 987.083 1473.08C997.713 1449.53 1013.3 1428.12 1032.94 1410.1C1052.58 1392.07 1075.9 1377.77 1101.57 1368.01C1127.23 1358.25 1154.74 1353.23 1182.52 1353.23H1668.89C1703.91 1353.22 1737.48 1340.46 1762.24 1317.73C1787 1295.01 1800.91 1264.19 1800.92 1232.06V1203.14C1800.92 1166.32 1784.98 1131.01 1756.61 1104.97C1728.24 1078.94 1689.77 1064.31 1649.65 1064.31H1229.91C968.404 1064.31 756.341 1258.94 756.341 1499.03V1834.55C756.341 1875.79 767.741 1921.1 803.681 1945.83C803.788 1945.89 803.877 1945.97 803.94 1946.07C804.002 1946.17 804.036 1946.28 804.038 1946.4Z" fill="white"/>
<path d="M721.259 2268.15H1862.23C2027.5 2268.15 2186 2328.41 2302.86 2435.66C2419.73 2542.92 2485.38 2688.39 2485.38 2840.07V3167.76H98.1135V2840.07C98.1135 2688.39 163.766 2542.92 280.629 2435.66C397.491 2328.41 555.991 2268.15 721.259 2268.15Z" fill="#F8A0B6"/>
<path d="M3265.24 1134.35C3265.17 1217.66 3243.36 1299.74 3201.62 1373.72C3159.87 1447.7 3099.42 1511.42 3025.32 1559.54C2951.22 1607.66 2865.63 1638.78 2775.73 1650.29C2685.83 1661.8 2594.23 1653.36 2508.61 1625.69C2288.05 1554.23 2130.03 1361.22 2130.03 1134.35C2130.03 846.652 2384.17 613.413 2697.63 613.413C2848.17 613.413 2992.54 668.297 3098.99 765.992C3205.44 863.686 3265.24 996.189 3265.24 1134.35Z" fill="#F64C6F"/>
<path d="M3265.24 1134.35C3265.31 1216.74 3244.05 1297.97 3203.22 1371.35C3162.38 1444.72 3103.14 1508.15 3030.37 1556.4L2697.63 1134.35L3058.51 732.243C3123.23 781.067 3175.33 842.456 3211.08 911.989C3246.83 981.522 3265.32 1057.47 3265.24 1134.35Z" fill="#848ED6"/>
<path d="M3030.37 1556.4C2955.96 1605.75 2869.64 1637.84 2778.77 1649.91C2687.91 1661.97 2595.21 1653.67 2508.61 1625.69C2587.52 1423.99 2697.63 1141.35 2697.63 1134.35L3030.37 1556.4Z" fill="white"/>
<path d="M4737.88 1987.99H2729.85C2634.35 1987.99 2556.93 2059.04 2556.93 2146.7V3009.04C2556.93 3096.7 2634.35 3167.76 2729.85 3167.76H4737.88C4833.38 3167.76 4910.8 3096.7 4910.8 3009.04V2146.7C4910.8 2059.04 4833.38 1987.99 4737.88 1987.99Z" fill="#323B80"/>
<path d="M2695.25 2992.65H4672.32V2554.89L4440.98 2767.2L3911.54 2281.29L3490.61 2667.61L3296.24 2489.22L3094.72 2674.18L2692.86 2320.69C2692.86 2320.69 2675.96 2992.65 2695.25 2992.65Z" fill="#79E59B"/>
<path d="M2692.86 2193.73V2999.22H4808.25" stroke="white" stroke-width="13" stroke-miterlimit="10"/>
<path d="M2478.22 2163.48V3165.57H1110.38V3046.56C1110.37 3011.34 1117.93 2976.45 1132.62 2943.91C1147.3 2911.37 1168.83 2881.8 1195.97 2856.89C1223.11 2831.98 1255.34 2812.23 1290.8 2798.75C1326.26 2785.27 1364.26 2778.34 1402.64 2778.34H1650.91V2761.99C1650.91 2746.2 1644.07 2731.05 1631.9 2719.88C1619.73 2708.71 1603.23 2702.44 1586.02 2702.44H1096.59C1070.53 2702.07 1045.67 2692.3 1027.39 2675.26C1009.1 2658.21 998.848 2635.25 998.848 2611.33C998.848 2587.4 1009.1 2564.44 1027.39 2547.4C1045.67 2530.35 1070.53 2520.59 1096.59 2520.22H1705.88C1743.95 2520.22 1780.45 2534.1 1807.37 2558.8C1834.28 2583.5 1849.4 2617 1849.4 2651.94V2778.34H2031.39V2501.31C2031.39 2485.51 2024.56 2470.36 2012.39 2459.19C2000.22 2448.02 1983.71 2441.75 1966.5 2441.75H1477.12C1451.06 2441.38 1426.2 2431.62 1407.92 2414.57C1389.63 2397.52 1379.38 2374.56 1379.38 2350.64C1379.38 2326.72 1389.63 2303.75 1407.92 2286.71C1426.2 2269.66 1451.06 2259.9 1477.12 2259.53H2086.41C2124.48 2259.53 2160.98 2273.41 2187.9 2298.11C2214.81 2322.81 2229.94 2356.32 2229.94 2391.25V2778.34H2279.56V2273.54C2279.56 2257.74 2272.73 2242.59 2260.56 2231.42C2248.39 2220.26 2231.88 2213.98 2214.67 2213.98H1725.32C1712.15 2214.17 1699.08 2211.95 1686.85 2207.46C1674.63 2202.96 1663.5 2196.28 1654.12 2187.8C1644.74 2179.32 1637.29 2169.21 1632.2 2158.07C1627.12 2146.92 1624.5 2134.96 1624.5 2122.87C1624.5 2110.79 1627.12 2098.82 1632.2 2087.68C1637.29 2076.53 1644.74 2066.42 1654.12 2057.94C1663.5 2049.46 1674.63 2042.78 1686.85 2038.29C1699.08 2033.79 1712.15 2031.57 1725.32 2031.76H2334.58C2353.44 2031.75 2372.12 2035.14 2389.54 2041.76C2406.97 2048.37 2422.81 2058.07 2436.15 2070.3C2449.49 2082.54 2460.07 2097.06 2467.29 2113.05C2474.51 2129.04 2478.22 2146.18 2478.22 2163.48Z" fill="#030303"/>
<path d="M1897.89 2033.73C1897.89 2033.73 1880.88 2133.74 1632.59 2103.58" stroke="white" stroke-width="2" stroke-miterlimit="10"/>
<path d="M1649.72 2261.59C1649.72 2261.59 1632.71 2361.59 1384.4 2331.43" stroke="white" stroke-width="2" stroke-miterlimit="10"/>
<path d="M1269.09 2522.19C1269.09 2522.19 1252.11 2622.19 1003.8 2592.03" stroke="white" stroke-width="2" stroke-miterlimit="10"/>
<path d="M1774.69 130.036V840.064C1774.69 873.368 1760.27 905.308 1734.61 928.857C1708.95 952.406 1674.15 965.636 1637.86 965.636H599.845L665.167 1198.28L326.514 965.636H137.154C100.867 965.636 66.0662 952.406 40.4073 928.857C14.7485 905.308 0.333496 873.368 0.333496 840.064V130.036C0.339819 96.7335 14.7568 64.7971 40.4143 41.249C66.0718 17.7009 100.869 4.46918 137.154 4.46338H1637.86C1674.15 4.46918 1708.95 17.7009 1734.6 41.249C1760.26 64.7971 1774.68 96.7335 1774.69 130.036Z" fill="#323B80"/>
<path d="M1338.9 253.44H360.379V288.133H1338.9V253.44Z" fill="white"/>
<path d="M1461.41 445.268H360.379V479.961H1461.41V445.268Z" fill="white"/>
<path d="M1338.9 637.095H360.379V671.788H1338.9V637.095Z" fill="white"/>
<path d="M4986.14 0.54541H3502.32C3442.51 0.54541 3394.02 45.0456 3394.02 99.9393V1350.14C3394.02 1405.04 3442.51 1449.54 3502.32 1449.54H4986.14C5045.95 1449.54 5094.44 1405.04 5094.44 1350.14V99.9393C5094.44 45.0456 5045.95 0.54541 4986.14 0.54541Z" fill="#F64C6F"/>
<path d="M4244.23 1046.8C4491.85 1046.8 4692.59 862.564 4692.59 635.301C4692.59 408.037 4491.85 223.804 4244.23 223.804C3996.61 223.804 3795.87 408.037 3795.87 635.301C3795.87 862.564 3996.61 1046.8 4244.23 1046.8Z" fill="#79E59B"/>
<path d="M4087.26 414.231V902.336L4518.06 635.104L4087.26 414.231Z" fill="white"/>
<path d="M4987.12 1210.96H3512.48V1254.73H4987.12V1210.96Z" fill="white"/>
<path d="M3694.51 1324.78C3751.15 1324.78 3797.06 1282.64 3797.06 1230.66C3797.06 1178.68 3751.15 1136.54 3694.51 1136.54C3637.88 1136.54 3591.96 1178.68 3591.96 1230.66C3591.96 1282.64 3637.88 1324.78 3694.51 1324.78Z" fill="white"/>
</svg>
