<svg width="1067" height="3360" viewBox="0 0 1067 3360" fill="none" xmlns="http://www.w3.org/2000/svg">
<path d="M667.63 760.56L650.9 764.15V889.77C650.898 895.073 649.077 900.215 645.741 904.337C642.405 908.459 637.756 911.312 632.57 912.42V995H409.12V789.72H409.53V686.61C409.53 659.004 420.497 632.528 440.017 613.007C459.538 593.487 486.014 582.52 513.62 582.52H650L650.89 591.52L667.63 760.56Z" fill="#79E59B"/>
<path d="M952 1715H78.9L78.9 1202.36C78.9 1137.02 104.856 1074.36 151.057 1028.16C197.259 981.956 259.921 956 325.26 956L705.64 956C770.979 956 833.641 981.956 879.843 1028.16C926.044 1074.36 952 1137.02 952 1202.36L952 1715Z" fill="#F8A0B6"/>
<path d="M97.1699 2334.11L97.1699 1558.11H475.17L475.17 2334.11C475.17 2384.24 455.257 2432.31 419.813 2467.75C384.369 2503.2 336.296 2523.11 286.17 2523.11C236.044 2523.11 187.971 2503.2 152.527 2467.75C117.082 2432.31 97.1699 2384.24 97.1699 2334.11Z" fill="#F8A0B6"/>
<path d="M566.157 3356.79L566.131 3359.44L170.131 3355.48L173.121 3056.48L272.771 3057.47C351.367 3058.26 426.433 3090.24 481.454 3146.37C536.474 3202.5 566.943 3278.19 566.157 3356.79Z" fill="#F64C6F"/>
<path d="M474.994 2333.58L482.754 3109.58L104.754 3113.36L96.9935 2337.36C96.4923 2287.24 115.924 2238.96 151.014 2203.16C186.104 2167.37 233.978 2146.97 284.104 2146.47C334.229 2145.97 382.501 2165.4 418.3 2200.49C454.099 2235.58 474.492 2283.46 474.994 2333.58Z" fill="#F8A0B6"/>
<path d="M650.9 582.52V591.55L650.01 582.52H650.9Z" fill="#79E59B"/>
<path d="M650.01 582.52H649.33L649.71 579.53L650.01 582.52Z" fill="#79E59B"/>
<path d="M520.65 682.89C520.65 682.89 569.05 641.67 613.26 682.89C613.26 682.89 575 719.94 520.65 682.89Z" fill="white"/>
<path d="M567.26 697.83C576.168 697.83 583.39 690.608 583.39 681.7C583.39 672.792 576.168 665.57 567.26 665.57C558.352 665.57 551.13 672.792 551.13 681.7C551.13 690.608 558.352 697.83 567.26 697.83Z" fill="black"/>
<path d="M524.24 733.08C524.24 733.08 572.63 691.86 616.85 733.08C616.85 733.08 578.61 770.12 524.24 733.08Z" fill="white"/>
<path d="M570.84 748.02C579.748 748.02 586.97 740.798 586.97 731.89C586.97 722.982 579.748 715.76 570.84 715.76C561.932 715.76 554.71 722.982 554.71 731.89C554.71 740.798 561.932 748.02 570.84 748.02Z" fill="black"/>
<path d="M413.11 794.62C422.923 794.62 432.334 790.722 439.273 783.783C446.212 776.844 450.11 767.433 450.11 757.62V743.83C445.198 743.83 440.488 741.879 437.015 738.406C433.541 734.933 431.59 730.222 431.59 725.31V718.14C431.593 713.229 433.545 708.52 437.017 705.047C440.49 701.575 445.199 699.623 450.11 699.62H454.89V685.7C454.89 671.644 460.474 658.163 470.413 648.223C480.353 638.284 493.834 632.7 507.89 632.7H629.77C638.544 632.7 646.958 629.215 653.161 623.011C659.365 616.807 662.85 608.393 662.85 599.62V591.73C662.85 581.678 658.857 572.038 651.749 564.931C644.642 557.823 635.002 553.83 624.95 553.83H519.82C488.349 553.833 458.167 566.337 435.914 588.591C413.661 610.846 401.16 641.029 401.16 672.5V764.09C401.16 775.34 404.02 787.71 413.03 794.47C413.054 794.487 413.074 794.51 413.088 794.536C413.102 794.562 413.109 794.591 413.11 794.62Z" fill="black"/>
<path d="M1066.36 639.23V1094.62C1066.51 1111.05 1063.4 1127.35 1057.21 1142.57C1051.03 1157.8 1041.88 1171.65 1030.32 1183.32C1018.75 1194.99 1004.98 1204.25 989.816 1210.58C974.648 1216.9 958.378 1220.16 941.945 1220.16C925.512 1220.16 909.242 1216.9 894.074 1210.58C878.906 1204.25 865.141 1194.99 853.573 1183.32C842.006 1171.65 832.865 1157.8 826.678 1142.57C820.492 1127.35 817.383 1111.05 817.53 1094.62V684.09H723.46V651.6C723.46 632.183 731.173 613.562 744.903 599.833C758.632 586.103 777.253 578.39 796.67 578.39H858.86V573.93C858.86 569.617 857.147 565.482 854.097 562.432C851.048 559.383 846.912 557.67 842.6 557.67H720C713.404 557.67 707.078 555.05 702.414 550.386C697.75 545.722 695.13 539.396 695.13 532.8C695.13 526.204 697.75 519.878 702.414 515.214C707.078 510.55 713.404 507.93 720 507.93H872.64C882.188 507.93 891.344 511.723 898.096 518.474C904.847 525.225 908.64 534.382 908.64 543.93V578.43H954.23V502.78C954.231 500.645 953.812 498.531 952.996 496.558C952.18 494.586 950.983 492.793 949.474 491.283C947.965 489.773 946.173 488.575 944.201 487.758C942.229 486.941 940.115 486.52 937.98 486.52H815.34C808.744 486.52 802.418 483.9 797.754 479.236C793.09 474.572 790.47 468.246 790.47 461.65C790.47 455.054 793.09 448.728 797.754 444.064C802.418 439.4 808.744 436.78 815.34 436.78H968C977.548 436.78 986.704 440.573 993.456 447.324C1000.21 454.075 1004 463.232 1004 472.78V578.39H1016.44V440.6C1016.44 436.287 1014.73 432.152 1011.68 429.102C1008.63 426.053 1004.49 424.34 1000.18 424.34H877.51C871.002 424.209 864.804 421.532 860.247 416.883C855.691 412.235 853.139 405.984 853.139 399.475C853.139 392.965 855.691 386.715 860.247 382.066C864.804 377.417 871.002 374.74 877.51 374.61H1030.15C1039.69 374.61 1048.84 378.396 1055.59 385.136C1062.34 391.877 1066.14 401.021 1066.15 410.56V639.23H1066.36Z" fill="#79E59B"/>
<path d="M462.1 749.81V917.4C462.1 938.087 470.318 957.926 484.946 972.554C499.574 987.182 519.413 995.4 540.1 995.4H590.72C603.177 995.4 615.513 992.946 627.021 988.179C638.53 983.412 648.988 976.425 657.796 967.616C666.605 958.808 673.592 948.35 678.359 936.841C683.126 925.332 685.58 912.997 685.58 900.54V823C685.581 816.208 684.245 809.482 681.646 803.206C679.047 796.931 675.238 791.228 670.435 786.426C665.632 781.623 659.93 777.813 653.654 775.214C647.379 772.616 640.652 771.279 633.86 771.28H485.4V716.28H462.1C462.1 716.28 462.68 749.23 462.1 749.81Z" fill="black"/>
<path d="M717.22 170.28C717.222 202.749 707.943 234.542 690.478 261.913C673.013 289.284 648.088 311.093 618.64 324.77V418.82H465.09V319.62C438.736 305.177 416.673 284.017 401.142 258.288C385.611 232.559 377.166 203.179 376.664 173.13C376.162 143.082 383.621 113.436 398.283 87.2026C412.945 60.9694 434.289 39.0837 460.146 23.7681C486.003 8.45255 515.453 0.252617 545.505 0.00108352C575.556 -0.25045 605.139 7.45538 631.249 22.336C657.359 37.2166 679.066 58.742 694.166 84.726C709.265 110.71 717.219 140.227 717.22 170.28Z" fill="#F8A0B6"/>
<path d="M633.57 428.38H451.35V461.84H633.57V428.38Z" fill="#F64C6F"/>
<path d="M612.07 473.19H472.86V506.65H612.07V473.19Z" fill="#F64C6F"/>
<path d="M371.86 534.59C371.861 537.856 371.219 541.089 369.97 544.107C368.722 547.124 366.891 549.866 364.582 552.175C362.273 554.485 359.532 556.317 356.516 557.567C353.499 558.817 350.265 559.46 347 559.46H224.4C220.087 559.46 215.952 561.173 212.902 564.223C209.853 567.272 208.14 571.408 208.14 575.72V580.19H270.33C289.745 580.19 308.364 587.902 322.094 601.629C335.823 615.357 343.537 633.975 343.54 653.39V685.88H249.91V1100.62C249.616 1133.42 236.378 1164.78 213.078 1187.88C189.777 1210.97 158.3 1223.92 125.495 1223.92C92.6899 1223.92 61.2123 1210.97 37.9119 1187.88C14.6115 1164.78 1.37399 1133.42 1.0799 1100.62V685.88H0.889893V412.35C0.889893 402.802 4.68274 393.646 11.4341 386.894C18.1854 380.143 27.3421 376.35 36.8899 376.35H189.49C196.086 376.35 202.412 378.97 207.076 383.634C211.74 388.298 214.36 394.624 214.36 401.22C214.36 407.816 211.74 414.142 207.076 418.806C202.412 423.47 196.086 426.09 189.49 426.09H66.8899C62.5792 426.09 58.4449 427.802 55.3959 430.849C52.3468 433.896 50.6325 438.029 50.6299 442.34V580.14H63.0699V474.53C63.0699 464.982 66.8627 455.826 73.614 449.074C80.3654 442.323 89.5221 438.53 99.0699 438.53H251.66C258.256 438.53 264.582 441.15 269.246 445.814C273.91 450.478 276.53 456.804 276.53 463.4C276.53 469.996 273.91 476.322 269.246 480.986C264.582 485.65 258.256 488.27 251.66 488.27H129.06C126.925 488.27 124.811 488.691 122.839 489.508C120.867 490.325 119.075 491.523 117.566 493.033C116.057 494.543 114.86 496.336 114.044 498.308C113.228 500.281 112.809 502.395 112.81 504.53V580.15H158.4V545.68C158.4 536.132 162.193 526.976 168.944 520.224C175.695 513.473 184.852 509.68 194.4 509.68H347C350.268 509.681 353.505 510.327 356.523 511.58C359.542 512.833 362.284 514.669 364.593 516.982C366.902 519.296 368.732 522.041 369.979 525.063C371.226 528.084 371.865 531.322 371.86 534.59Z" fill="#79E59B"/>
<path d="M557.17 2334.11L557.17 1558.11H935.17V2334.11C935.17 2384.24 915.257 2432.31 879.813 2467.75C844.369 2503.2 796.296 2523.11 746.17 2523.11C696.044 2523.11 647.971 2503.2 612.527 2467.75C577.082 2432.31 557.17 2384.24 557.17 2334.11Z" fill="#F8A0B6"/>
<path d="M1025.85 3354.22L1025.82 3356.87L629.845 3352.59L633.081 3053.6L732.725 3054.68C811.317 3055.53 886.353 3087.57 941.325 3143.74C996.296 3199.92 1026.7 3275.63 1025.85 3354.22Z" fill="#F64C6F"/>
<path d="M934.114 2333.61L941.874 3109.61L563.874 3113.39L556.114 2337.39C555.612 2287.27 575.044 2238.99 610.134 2203.19C645.224 2167.4 693.098 2147 743.224 2146.5C793.35 2146 841.621 2165.43 877.42 2200.52C913.219 2235.61 933.612 2283.49 934.114 2333.61Z" fill="#F8A0B6"/>
<path d="M920.75 375.15C920.75 375.15 916.49 402.44 854.28 394.21" stroke="white" stroke-width="2" stroke-miterlimit="10"/>
<path d="M858.58 437.32C858.58 437.32 854.32 464.62 792.11 456.38" stroke="white" stroke-width="2" stroke-miterlimit="10"/>
<path d="M765.21 509.86C765.21 509.86 760.95 537.16 698.74 528.93" stroke="white" stroke-width="2" stroke-miterlimit="10"/>
<path d="M146.25 376.94C146.25 376.94 150.51 404.24 212.72 396" stroke="white" stroke-width="2" stroke-miterlimit="10"/>
<path d="M208.42 439.11C208.42 439.11 212.68 466.41 274.89 458.18" stroke="white" stroke-width="2" stroke-miterlimit="10"/>
<path d="M302.79 510.65C302.79 510.65 307.05 537.95 369.26 529.72" stroke="white" stroke-width="2" stroke-miterlimit="10"/>
</svg>
