<svg width="2117" height="3079" viewBox="0 0 2117 3079" fill="none" xmlns="http://www.w3.org/2000/svg">
<path d="M451 2041.86L451 1259.11H815.51V2041.86C815.51 2090.2 796.309 2136.55 762.13 2170.73C727.952 2204.91 681.596 2224.11 633.26 2224.11C609.326 2224.11 585.626 2219.4 563.513 2210.24C541.4 2201.08 521.308 2187.66 504.383 2170.73C487.459 2153.81 474.033 2133.72 464.874 2111.61C455.714 2089.49 451 2065.79 451 2041.86Z" fill="#F64C6F"/>
<path d="M905.851 3055.22L905.822 3057.87L509.845 3053.58L513.081 2754.6L612.725 2755.68C691.317 2756.53 766.353 2788.57 821.325 2844.74C876.296 2900.92 906.701 2976.63 905.851 3055.22Z" fill="#F8A0B6"/>
<path d="M815.598 2032.88L824.614 2815.57L460.128 2819.77L451.112 2037.08C450.555 1988.75 469.221 1942.18 503.003 1907.61C536.786 1873.04 582.918 1853.3 631.25 1852.75C655.183 1852.47 678.936 1856.91 701.153 1865.81C723.369 1874.71 743.615 1887.91 760.733 1904.63C777.851 1921.36 791.507 1941.3 800.921 1963.3C810.335 1985.31 815.322 2008.95 815.598 2032.88Z" fill="#F64C6F"/>
<path d="M89.79 2048.51L89.79 1251.11H424.99L424.99 2048.51C424.99 2092.96 407.332 2135.59 375.901 2167.02C344.47 2198.45 301.84 2216.11 257.39 2216.11C212.94 2216.11 170.31 2198.45 138.879 2167.02C107.448 2135.59 89.79 2092.96 89.79 2048.51Z" fill="#F64C6F"/>
<path d="M392.955 2746.55L396.191 3045.53L0.213929 3049.82L0.185254 3047.17C-0.66523 2968.58 29.7397 2892.86 84.7115 2836.69C139.683 2780.52 214.719 2748.48 293.311 2747.63L392.955 2746.55Z" fill="#F8A0B6"/>
<path d="M81.46 2807.35L89.66 2031.4C90.77 1927.03 166.66 1843.4 259.25 1844.67C351.81 1845.91 425.94 1931.53 424.84 2035.91L416.64 2811.85L81.46 2807.35Z" fill="#F64C6F"/>
<path d="M551.52 425.56V434.22L550.66 425.56H551.52Z" fill="#79E59B"/>
<path d="M550.66 425.56H550.02L550.38 422.7L550.66 425.56Z" fill="#79E59B"/>
<path d="M825.05 1540H55.95L55.95 1012.22C55.95 950.897 80.3106 892.085 123.673 848.723C167.035 805.361 225.847 781 287.17 781L593.83 781C655.153 781 713.965 805.361 757.327 848.723C800.689 892.085 825.05 950.897 825.05 1012.22L825.05 1540Z" fill="#F8A0B6"/>
<path d="M597.88 579.71L580.26 583.49V715.8C580.257 721.308 578.39 726.653 574.961 730.964C571.533 735.274 566.746 738.297 561.38 739.54V794.91H326.05V501.83C326.05 472.754 337.6 444.869 358.16 424.31C378.719 403.75 406.604 392.2 435.68 392.2H579.32L580.26 401.77L597.88 579.71Z" fill="#79E59B"/>
<path d="M443.09 497.91C443.09 497.91 494.09 454.5 540.62 497.91C540.62 497.91 500.35 536.93 443.09 497.91Z" fill="white"/>
<path d="M492.17 513.64C501.553 513.64 509.16 506.033 509.16 496.65C509.16 487.267 501.553 479.66 492.17 479.66C482.787 479.66 475.18 487.267 475.18 496.65C475.18 506.033 482.787 513.64 492.17 513.64Z" fill="black"/>
<path d="M446.86 550.77C446.86 550.77 497.86 507.35 544.4 550.77C544.4 550.77 504.12 589.78 446.86 550.77Z" fill="white"/>
<path d="M495.94 566.5C505.323 566.5 512.93 558.893 512.93 549.51C512.93 540.127 505.323 532.52 495.94 532.52C486.557 532.52 478.95 540.127 478.95 549.51C478.95 558.893 486.557 566.5 495.94 566.5Z" fill="black"/>
<path d="M329.83 615.58C340.173 615.58 350.093 611.471 357.407 604.157C364.721 596.843 368.83 586.923 368.83 576.58V562.09C363.657 562.09 358.696 560.036 355.038 556.379C351.379 552.723 349.323 547.763 349.32 542.59V535C349.32 529.826 351.375 524.863 355.034 521.204C358.693 517.546 363.656 515.49 368.83 515.49H373.83V500.87C373.833 486.067 379.715 471.872 390.183 461.406C400.651 450.94 414.847 445.06 429.65 445.06H558C562.575 445.06 567.106 444.159 571.333 442.408C575.56 440.657 579.4 438.091 582.636 434.856C585.871 431.62 588.437 427.78 590.188 423.553C591.939 419.326 592.84 414.795 592.84 410.22V401.91C592.84 396.669 591.808 391.479 589.802 386.637C587.796 381.795 584.857 377.395 581.151 373.689C577.445 369.983 573.045 367.044 568.203 365.038C563.361 363.032 558.171 362 552.93 362H442.21C409.058 362 377.264 375.17 353.822 398.612C330.38 422.054 317.21 453.848 317.21 487V583.45C317.21 595.31 320.21 608.33 329.71 615.45C329.739 615.46 329.765 615.478 329.786 615.5C329.807 615.523 329.822 615.55 329.83 615.58Z" fill="black"/>
<path d="M920.64 728.47V990.6H920V1346.5C920 1374.22 908.99 1400.8 889.393 1420.39C869.795 1439.99 843.215 1451 815.5 1451C787.785 1451 761.205 1439.99 741.607 1420.39C722.01 1400.8 711 1374.22 711 1346.5V990.6H592.27V959.47C592.27 940.862 599.662 923.017 612.819 909.859C625.977 896.702 643.822 889.31 662.43 889.31H722V885C722 882.954 721.597 880.928 720.814 879.038C720.031 877.148 718.883 875.43 717.437 873.983C715.99 872.537 714.272 871.389 712.382 870.606C710.492 869.823 708.466 869.42 706.42 869.42H589C582.763 869.292 576.825 866.725 572.459 862.269C568.093 857.813 565.648 851.823 565.648 845.585C565.648 839.347 568.093 833.357 572.459 828.901C576.825 824.445 582.763 821.878 589 821.75H735.24C739.765 821.75 744.245 822.641 748.426 824.373C752.606 826.105 756.404 828.644 759.603 831.844C762.803 835.044 765.34 838.843 767.07 843.024C768.801 847.204 769.691 851.685 769.69 856.21V889.28H813.39V816.84C813.387 812.709 811.745 808.747 808.824 805.826C805.903 802.905 801.941 801.263 797.81 801.26H680.32C674 801.26 667.939 798.749 663.47 794.28C659.001 789.811 656.49 783.75 656.49 777.43C656.49 771.11 659.001 765.049 663.47 760.58C667.939 756.111 674 753.6 680.32 753.6H826.6C835.737 753.6 844.499 757.23 850.96 763.69C857.42 770.151 861.05 778.913 861.05 788.05V889.31H873V757.31C873 755.264 872.597 753.238 871.814 751.348C871.031 749.458 869.883 747.74 868.437 746.293C866.99 744.847 865.272 743.699 863.382 742.916C861.492 742.133 859.466 741.73 857.42 741.73H739.9C733.663 741.602 727.725 739.035 723.359 734.579C718.993 730.123 716.548 724.133 716.548 717.895C716.548 711.657 718.993 705.667 723.359 701.211C727.725 696.755 733.663 694.188 739.9 694.06H886.18C895.311 694.06 904.068 697.684 910.529 704.135C916.99 710.587 920.627 719.339 920.64 728.47Z" fill="#79E59B"/>
<path d="M630.4 822.3C630.4 822.3 626.32 848.46 566.7 840.57" stroke="white" stroke-width="2" stroke-miterlimit="10"/>
<path d="M781.34 694.53C781.34 694.53 777.26 720.69 717.64 712.8" stroke="white" stroke-width="2" stroke-miterlimit="10"/>
<path d="M721.75 754.11C721.75 754.11 717.67 780.27 658.06 772.38" stroke="white" stroke-width="2" stroke-miterlimit="10"/>
<path d="M1526.52 1139.98L1000.52 2051.04C948.331 2141.43 979.303 2257.02 1069.7 2309.21C1160.1 2361.41 1275.69 2330.43 1327.88 2240.04L1853.88 1328.98C1906.07 1238.58 1875.1 1122.99 1784.7 1070.8C1694.3 1018.61 1578.71 1049.58 1526.52 1139.98Z" fill="#70E1EC"/>
<path d="M1628.75 2598.92L1812.88 2834.5L1500.87 3078.36L1499.24 3076.27C1450.84 3014.34 1429.02 2935.73 1438.58 2857.71C1448.15 2779.7 1488.31 2708.68 1550.24 2660.28L1628.75 2598.92Z" fill="#28B1BE"/>
<path d="M1325.66 2035.31L1738.25 2692.53L1418.11 2893.51L1005.51 2236.29C978.862 2193.83 970.167 2142.53 981.34 2093.67C992.514 2044.8 1022.64 2002.38 1065.09 1975.73C1107.55 1949.07 1158.85 1940.38 1207.71 1951.55C1256.58 1962.73 1299 1992.85 1325.66 2035.31Z" fill="#70E1EC"/>
<path d="M1627.64 2028.11V1252.11H2005.64V2028.11C2005.64 2078.24 1985.73 2126.31 1950.28 2161.75C1914.84 2197.2 1866.77 2217.11 1816.64 2217.11C1766.51 2217.11 1718.44 2197.2 1683 2161.75C1647.55 2126.31 1627.64 2078.24 1627.64 2028.11Z" fill="#70E1EC"/>
<path d="M2097.91 3050.68L2097.89 3053.33L1701.89 3049.37L1704.88 2750.37L1804.53 2751.36C1883.12 2752.15 1958.19 2784.13 2013.21 2840.26C2068.23 2896.39 2098.7 2972.08 2097.91 3050.68Z" fill="#28B1BE"/>
<path d="M2005.71 2032.29L2014.92 2808.24L1636.95 2812.73L1627.74 2036.78C1627.14 1986.66 1646.48 1938.35 1681.5 1902.49C1716.52 1866.63 1764.36 1846.15 1814.48 1845.55C1864.6 1844.96 1912.91 1864.3 1948.77 1899.32C1984.63 1934.34 2005.11 1982.17 2005.71 2032.29Z" fill="#70E1EC"/>
<path d="M1750.98 422.56V431.22L1751.84 422.56H1750.98Z" fill="#79E59B"/>
<path d="M1751.84 422.56H1752.48L1752.12 419.7L1751.84 422.56Z" fill="#79E59B"/>
<path d="M1519.67 778H1826.33C1887.65 778 1946.46 802.361 1989.83 845.723C2033.19 889.085 2057.55 947.897 2057.55 1009.22V1537H1288.45V1009.22C1288.45 947.897 1312.81 889.085 1356.17 845.723C1399.53 802.361 1458.35 778 1519.67 778Z" fill="#28B1BE"/>
<path d="M1515.62 576.71L1533.24 580.49V712.8C1533.24 718.308 1535.11 723.653 1538.54 727.964C1541.97 732.274 1546.75 735.297 1552.12 736.54V791.91H1787.45V498.83C1787.45 469.754 1775.9 441.869 1755.34 421.31C1734.78 400.75 1706.9 389.2 1677.82 389.2H1534.18L1533.24 398.77L1515.62 576.71Z" fill="black"/>
<path d="M1670.41 494.91C1670.41 494.91 1619.41 451.5 1572.88 494.91C1572.88 494.91 1613.15 533.93 1670.41 494.91Z" fill="white"/>
<path d="M1621.33 510.64C1630.71 510.64 1638.32 503.033 1638.32 493.65C1638.32 484.267 1630.71 476.66 1621.33 476.66C1611.95 476.66 1604.34 484.267 1604.34 493.65C1604.34 503.033 1611.95 510.64 1621.33 510.64Z" fill="black"/>
<path d="M1666.64 547.77C1666.64 547.77 1615.64 504.35 1569.11 547.77C1569.11 547.77 1609.38 586.78 1666.64 547.77Z" fill="white"/>
<path d="M1617.56 563.5C1626.94 563.5 1634.55 555.893 1634.55 546.51C1634.55 537.127 1626.94 529.52 1617.56 529.52C1608.18 529.52 1600.57 537.127 1600.57 546.51C1600.57 555.893 1608.18 563.5 1617.56 563.5Z" fill="black"/>
<path d="M1783.67 612.58C1773.33 612.58 1763.41 608.471 1756.09 601.157C1748.78 593.843 1744.67 583.923 1744.67 573.58V559.09C1749.84 559.09 1754.8 557.036 1758.46 553.379C1762.12 549.723 1764.18 544.763 1764.18 539.59V532C1764.18 526.826 1762.12 521.863 1758.47 518.204C1754.81 514.546 1749.84 512.49 1744.67 512.49H1739.67V497.87C1739.67 490.541 1738.23 483.284 1735.42 476.512C1732.62 469.741 1728.51 463.589 1723.32 458.406C1718.14 453.224 1711.99 449.113 1705.22 446.308C1698.45 443.504 1691.19 442.06 1683.86 442.06H1555.49C1550.92 442.06 1546.39 441.159 1542.16 439.408C1537.93 437.657 1534.09 435.09 1530.86 431.855C1527.62 428.62 1525.06 424.779 1523.31 420.552C1521.56 416.325 1520.66 411.795 1520.66 407.22V398.91C1520.66 388.325 1524.86 378.174 1532.35 370.689C1539.83 363.205 1549.99 359 1560.57 359H1671.29C1704.44 359 1736.24 372.17 1759.68 395.612C1783.12 419.054 1796.29 450.848 1796.29 484V580.45C1796.29 592.31 1793.29 605.33 1783.8 612.45C1783.77 612.46 1783.74 612.477 1783.72 612.499C1783.7 612.522 1783.68 612.55 1783.67 612.58Z" fill="white"/>
<path d="M1179.86 759.47V1021.6H1180.5V1377.5C1180.5 1405.22 1191.51 1431.8 1211.11 1451.39C1230.7 1470.99 1257.28 1482 1285 1482C1312.72 1482 1339.3 1470.99 1358.89 1451.39C1378.49 1431.8 1389.5 1405.22 1389.5 1377.5V1021.6H1508.23V990.47C1508.23 981.256 1506.42 972.133 1502.89 963.621C1499.36 955.109 1494.2 947.374 1487.68 940.859C1481.17 934.344 1473.43 929.177 1464.92 925.651C1456.41 922.125 1447.28 920.31 1438.07 920.31H1378.47V916C1378.47 911.868 1380.11 907.905 1383.03 904.983C1385.96 902.062 1389.92 900.42 1394.05 900.42H1511.54C1517.78 900.292 1523.72 897.725 1528.08 893.269C1532.45 888.813 1534.89 882.823 1534.89 876.585C1534.89 870.347 1532.45 864.357 1528.08 859.901C1523.72 855.445 1517.78 852.878 1511.54 852.75H1365.26C1360.74 852.75 1356.25 853.641 1352.07 855.373C1347.89 857.105 1344.1 859.644 1340.9 862.844C1337.7 866.044 1335.16 869.843 1333.43 874.024C1331.7 878.204 1330.81 882.685 1330.81 887.21V920.28H1287.11V847.84C1287.11 843.709 1288.75 839.747 1291.68 836.826C1294.6 833.905 1298.56 832.263 1302.69 832.26H1420.18C1426.5 832.26 1432.56 829.749 1437.03 825.28C1441.5 820.811 1444.01 814.75 1444.01 808.43C1444.01 802.11 1441.5 796.049 1437.03 791.58C1432.56 787.111 1426.5 784.6 1420.18 784.6H1273.9C1264.76 784.6 1256 788.23 1249.54 794.69C1243.08 801.151 1239.45 809.913 1239.45 819.05V920.31H1227.53V788.31C1227.53 784.178 1229.17 780.215 1232.09 777.293C1235.02 774.372 1238.98 772.73 1243.11 772.73H1360.6C1366.84 772.602 1372.78 770.035 1377.14 765.579C1381.51 761.123 1383.95 755.133 1383.95 748.895C1383.95 742.657 1381.51 736.667 1377.14 732.211C1372.78 727.755 1366.84 725.188 1360.6 725.06H1214.32C1205.19 725.06 1196.43 728.684 1189.97 735.135C1183.51 741.587 1179.87 750.339 1179.86 759.47Z" fill="black"/>
<path d="M1470.11 853.3C1470.11 853.3 1474.19 879.46 1533.8 871.57" stroke="white" stroke-width="2" stroke-miterlimit="10"/>
<path d="M1319.17 725.53C1319.17 725.53 1323.25 751.69 1382.86 743.8" stroke="white" stroke-width="2" stroke-miterlimit="10"/>
<path d="M1378.75 785.11C1378.75 785.11 1382.83 811.27 1442.44 803.38" stroke="white" stroke-width="2" stroke-miterlimit="10"/>
<path d="M272 636C303.48 636 329 610.48 329 579C329 547.52 303.48 522 272 522C240.52 522 215 547.52 215 579C215 610.48 240.52 636 272 636Z" fill="black"/>
<path d="M1820.79 4H1401.21V228.09H1477.96L1501.34 391L1551.29 228.09H1820.79V4Z" fill="#F64C6F"/>
<path d="M1736.04 54.0601H1466.16V64.4901H1736.04V54.0601Z" fill="white"/>
<path d="M1769.83 111.71H1466.16V122.14H1769.83V111.71Z" fill="white"/>
<path d="M1736.04 169.36H1466.16V179.79H1736.04V169.36Z" fill="white"/>
<path d="M1455 610.6L1301.12 510.6C1251.82 560.047 1185.23 588.401 1115.41 589.675C1045.6 590.949 978.016 565.045 926.94 517.43L754 597L890.34 475.49C858.365 430.174 841.244 376.051 841.34 320.59C841.34 171.92 961.86 51.3999 1110.53 51.3999C1259.2 51.3999 1379.71 171.92 1379.71 320.59C1379.78 369.829 1366.29 418.136 1340.71 460.21L1455 610.6Z" fill="#F64C6F"/>
<path d="M1250.08 257.52C1250.08 283.534 1242.65 309.006 1228.65 330.933C1214.65 352.861 1194.68 370.33 1171.08 381.28V456.63H1048.08V377.16C1026.97 365.587 1009.3 348.634 996.86 328.023C984.422 307.411 977.659 283.875 977.259 259.804C976.859 235.734 982.835 211.986 994.582 190.972C1006.33 169.959 1023.43 152.428 1044.14 140.16C1064.85 127.892 1088.44 121.323 1112.52 121.122C1136.59 120.92 1160.29 127.093 1181.2 139.012C1202.12 150.932 1219.51 168.174 1231.61 188.988C1243.7 209.802 1250.08 233.446 1250.08 257.52Z" fill="#F8A0B6"/>
<path d="M1183.07 464.29H1037.08V491.09H1183.07V464.29Z" fill="white"/>
<path d="M1165.84 500.19H1054.31V526.99H1165.84V500.19Z" fill="white"/>
<path d="M764 0V331H712.73L698 525L670.17 331H154V0H764Z" fill="#F64C6F"/>
<path d="M626.99 75.22H219.6V90.96H626.99V75.22Z" fill="white"/>
<path d="M678 162.23H219.6V177.97H678V162.23Z" fill="white"/>
<path d="M626.99 249.25H219.6V264.99H626.99V249.25Z" fill="white"/>
<path d="M2116.37 765.47V1027.6H2115.73V1383.5C2115.73 1411.22 2104.72 1437.8 2085.12 1457.39C2065.53 1476.99 2038.95 1488 2011.23 1488C1983.51 1488 1956.93 1476.99 1937.34 1457.39C1917.74 1437.8 1906.73 1411.22 1906.73 1383.5V1027.6H1788V996.47C1788 977.862 1795.39 960.017 1808.55 946.859C1821.71 933.702 1839.55 926.31 1858.16 926.31H1917.76V922C1917.76 917.868 1916.12 913.905 1913.2 910.983C1910.27 908.062 1906.31 906.42 1902.18 906.42H1784.69C1778.45 906.292 1772.51 903.725 1768.15 899.269C1763.78 894.813 1761.34 888.823 1761.34 882.585C1761.34 876.347 1763.78 870.357 1768.15 865.901C1772.51 861.445 1778.45 858.878 1784.69 858.75H1931C1935.52 858.75 1940.01 859.641 1944.19 861.373C1948.37 863.105 1952.16 865.644 1955.36 868.844C1958.56 872.044 1961.1 875.843 1962.83 880.024C1964.56 884.204 1965.45 888.685 1965.45 893.21V926.28H2009.15V853.84C2009.15 849.709 2007.5 845.747 2004.58 842.826C2001.66 839.905 1997.7 838.263 1993.57 838.26H1876.05C1869.73 838.26 1863.67 835.749 1859.2 831.28C1854.73 826.811 1852.22 820.75 1852.22 814.43C1852.22 808.11 1854.73 802.049 1859.2 797.58C1863.67 793.111 1869.73 790.6 1876.05 790.6H2022.33C2031.47 790.6 2040.23 794.23 2046.69 800.69C2053.15 807.151 2056.78 815.913 2056.78 825.05V926.31H2068.7V794.31C2068.7 790.178 2067.06 786.215 2064.14 783.293C2061.21 780.372 2057.25 778.73 2053.12 778.73H1935.63C1929.39 778.602 1923.45 776.035 1919.09 771.579C1914.72 767.123 1912.28 761.133 1912.28 754.895C1912.28 748.657 1914.72 742.667 1919.09 738.211C1923.45 733.755 1929.39 731.188 1935.63 731.06H2081.91C2091.04 731.06 2099.8 734.684 2106.26 741.135C2112.72 747.587 2116.36 756.339 2116.37 765.47Z" fill="black"/>
<path d="M1826.13 859.3C1826.13 859.3 1822.05 885.46 1762.43 877.57" stroke="white" stroke-width="2" stroke-miterlimit="10"/>
<path d="M1977.07 731.53C1977.07 731.53 1972.99 757.69 1913.37 749.8" stroke="white" stroke-width="2" stroke-miterlimit="10"/>
<path d="M1917.49 791.11C1917.49 791.11 1913.41 817.27 1853.79 809.38" stroke="white" stroke-width="2" stroke-miterlimit="10"/>
</svg>
