<svg width="837" height="654" viewBox="0 0 837 654" fill="none" xmlns="http://www.w3.org/2000/svg">
<path d="M371 134.647V141.447L370.328 134.647H371Z" fill="#DB666E"/>
<path d="M383.546 267.952L371 270.636V364.697C370.999 368.612 369.669 372.412 367.228 375.476C364.787 378.541 361.379 380.69 357.558 381.575V420.94H189.981V212.586C189.98 202.351 191.999 192.215 195.922 182.759C199.845 173.303 205.596 164.711 212.845 157.473C220.094 150.236 228.7 144.495 238.172 140.579C247.644 136.662 257.796 134.646 268.048 134.647H370.328L371 141.447L383.546 267.952Z" fill="#79E59B"/>
<path d="M370.328 134.647H369.822L370.104 132.41L370.328 134.647Z" fill="#DB666E"/>
<path d="M273.322 209.799C273.322 209.799 309.615 178.933 342.772 209.799C342.772 209.799 314.096 237.534 273.322 209.799Z" fill="white"/>
<path d="M308.271 220.982C314.952 220.982 320.369 215.575 320.369 208.904C320.369 202.234 314.952 196.826 308.271 196.826C301.589 196.826 296.173 202.234 296.173 208.904C296.173 215.575 301.589 220.982 308.271 220.982Z" fill="black"/>
<path d="M276.01 247.375C276.01 247.375 312.304 216.509 345.461 247.375C345.461 247.375 316.784 275.109 276.01 247.375Z" fill="white"/>
<path d="M310.959 258.558C317.641 258.558 323.057 253.151 323.057 246.48C323.057 239.81 317.641 234.402 310.959 234.402C304.278 234.402 298.862 239.81 298.862 246.48C298.862 253.151 304.278 258.558 310.959 258.558Z" fill="black"/>
<path d="M192.669 293.45C200.037 293.45 207.103 290.528 212.313 285.327C217.523 280.126 220.45 273.071 220.45 265.715V255.427C216.766 255.427 213.233 253.966 210.628 251.365C208.023 248.765 206.559 245.237 206.559 241.559V236.191C206.559 232.514 208.023 228.986 210.628 226.386C213.233 223.785 216.766 222.324 220.45 222.324H224.034V211.901C224.034 201.378 228.221 191.286 235.675 183.844C243.128 176.403 253.237 172.223 263.778 172.223H355.157C361.735 172.222 368.044 169.612 372.695 164.968C377.347 160.324 379.961 154.026 379.962 147.459V141.549C379.962 134.024 376.968 126.807 371.638 121.486C366.308 116.165 359.079 113.175 351.541 113.175H272.681C223.55 113.175 183.708 152.952 183.708 202.02V270.591C183.708 279.019 185.85 288.279 192.602 293.334C192.622 293.346 192.638 293.364 192.65 293.384C192.661 293.404 192.668 293.427 192.669 293.45Z" fill="black"/>
<path d="M177.117 359.208H391.482C422.532 359.208 452.311 371.522 474.267 393.442C496.223 415.362 508.557 445.092 508.557 476.091V543.062H60.0411V476.091C60.0411 445.092 72.3759 415.362 94.3318 393.442C116.288 371.522 146.066 359.208 177.117 359.208Z" fill="#F8A0B6"/>
<path d="M229.411 259.9V385.381C229.411 400.863 235.571 415.71 246.536 426.657C257.501 437.604 272.373 443.754 287.879 443.754H325.844C344.713 443.754 362.809 436.271 376.151 422.95C389.493 409.63 396.988 391.564 396.988 372.726V314.725C396.987 304.456 392.901 294.608 385.627 287.347C378.354 280.085 368.49 276.005 358.204 276.004H246.886V234.85H229.411C229.411 234.85 229.859 259.453 229.411 259.9Z" fill="black"/>
<path d="M578.456 439.28H480.329V513.09H578.456V439.28Z" fill="#DB666E"/>
<path d="M811.452 135.542H435.522V513.09H811.452V135.542Z" fill="#F64C6F"/>
<path d="M480.329 135.542V513.09H246.438V469.699H435.522V135.542H480.329Z" fill="#79E59B"/>
<path d="M647.459 382.022C665.771 382.022 680.616 354.384 680.616 320.29C680.616 286.196 665.771 258.558 647.459 258.558C629.146 258.558 614.302 286.196 614.302 320.29C614.302 354.384 629.146 382.022 647.459 382.022Z" fill="white"/>
<path d="M819.069 342.737V547.535H562.102V523.213C562.1 508.678 567.882 494.737 578.176 484.458C588.469 474.178 602.431 468.401 616.99 468.397H663.634V465.056C663.634 463.457 663.319 461.874 662.706 460.398C662.093 458.921 661.195 457.579 660.063 456.449C658.931 455.319 657.587 454.422 656.108 453.81C654.628 453.199 653.043 452.884 651.442 452.884H559.498C554.602 452.808 549.932 450.813 546.496 447.329C543.06 443.845 541.134 439.153 541.134 434.264C541.134 429.375 543.06 424.682 546.496 421.198C549.932 417.714 554.602 415.719 559.498 415.643H673.971C681.122 415.643 687.981 418.48 693.038 423.528C698.095 428.577 700.936 435.424 700.936 442.564V468.397H735.128V411.778C735.128 408.55 733.843 405.454 731.557 403.172C729.27 400.889 726.169 399.607 722.936 399.607H630.992C626.096 399.531 621.425 397.536 617.99 394.052C614.554 390.568 612.628 385.875 612.628 380.986C612.628 376.097 614.554 371.404 617.99 367.921C621.425 364.437 626.096 362.442 630.992 362.366H745.465C752.616 362.366 759.475 365.202 764.532 370.251C769.588 375.299 772.429 382.147 772.429 389.287V468.397H781.754V365.229C781.754 363.631 781.438 362.048 780.826 360.571C780.213 359.094 779.315 357.752 778.183 356.622C777.051 355.492 775.707 354.595 774.227 353.984C772.748 353.372 771.163 353.057 769.562 353.057H677.614C675.14 353.095 672.684 352.642 670.387 351.723C668.091 350.805 666 349.439 664.237 347.707C662.475 345.974 661.075 343.908 660.119 341.63C659.164 339.352 658.671 336.907 658.671 334.437C658.671 331.967 659.164 329.522 660.119 327.244C661.075 324.966 662.475 322.9 664.237 321.167C666 319.434 668.091 318.069 670.387 317.15C672.684 316.232 675.14 315.778 677.614 315.817H792.082C795.625 315.814 799.133 316.508 802.407 317.859C805.682 319.211 808.657 321.194 811.163 323.694C813.669 326.194 815.658 329.162 817.014 332.43C818.371 335.698 819.069 339.2 819.069 342.737Z" fill="#79E59B"/>
<path d="M710.036 316.219C710.036 316.219 706.841 336.658 660.193 330.494" stroke="white" stroke-width="2" stroke-miterlimit="10"/>
<path d="M663.41 362.787C663.41 362.787 660.215 383.225 613.562 377.061" stroke="white" stroke-width="2" stroke-miterlimit="10"/>
<path d="M591.898 416.493C591.898 416.493 588.708 436.932 542.055 430.768" stroke="white" stroke-width="2" stroke-miterlimit="10"/>
</svg>
