<svg width="3252" height="1514" viewBox="0 0 3252 1514" fill="none" xmlns="http://www.w3.org/2000/svg">
<path d="M70.7268 12.6383C70.0562 12.4849 69.4457 12.6529 69.3633 13.0135L68.0202 18.8888C67.9378 19.2494 68.4146 19.6659 69.0852 19.8192C69.7559 19.9725 70.3664 19.8045 70.4488 19.444L71.6426 14.2215L81.357 16.4421C82.0276 16.5954 82.6381 16.4274 82.7205 16.0669C82.8029 15.7064 82.3261 15.2898 81.6554 15.1365L70.7268 12.6383ZM167.688 97.0154L71.5417 13.0257L69.6134 13.5564L165.759 97.5461L167.688 97.0154Z" fill="#79E59B"/>
<path d="M305.936 6.10709C305.318 5.86254 304.695 5.97402 304.544 6.3561L302.078 12.5823C301.927 12.9644 302.305 13.4724 302.922 13.717C303.54 13.9615 304.163 13.85 304.314 13.4679L306.506 7.9335L315.451 11.4759C316.069 11.7205 316.692 11.609 316.843 11.2269C316.995 10.8448 316.617 10.3369 315.999 10.0923L305.936 6.10709ZM373.969 97.1047L306.646 6.62283L304.677 6.97497L372 97.4568L373.969 97.1047Z" fill="#79E59B"/>
<path d="M542.955 1.9405C542.425 1.61275 541.794 1.6716 541.547 2.07194L537.514 8.59585C537.266 8.99619 537.495 9.58642 538.026 9.91417C538.556 10.2419 539.186 10.1831 539.434 9.78274L543.019 3.9837L550.699 8.73124C551.229 9.05899 551.859 9.00015 552.107 8.59981C552.354 8.19947 552.125 7.60923 551.595 7.28149L542.955 1.9405ZM580.24 97.1878L543.502 2.57244L541.511 2.75832L578.249 97.3737L580.24 97.1878Z" fill="#79E59B"/>
<path d="M780.96 0.284145C780.548 -0.100725 779.915 -0.0924826 779.546 0.302554L773.527 6.74005C773.157 7.13508 773.191 7.76732 773.603 8.15219C774.015 8.53706 774.648 8.52882 775.017 8.13378L780.368 2.41157L786.33 7.98651C786.742 8.37138 787.375 8.36313 787.744 7.9681C788.113 7.57306 788.079 6.94082 787.668 6.55595L780.96 0.284145ZM786.505 97.2677L781.291 0.986404L779.291 1.01244L784.505 97.2938L786.505 97.2677Z" fill="#79E59B"/>
<path d="M1019.05 1.20452C1018.76 0.802221 1018.13 0.760225 1017.64 1.11072L1009.59 6.82241C1009.1 7.17291 1008.93 7.78318 1009.22 8.18548C1009.5 8.58778 1010.13 8.62978 1010.63 8.27928L1017.78 3.20222L1021.92 9.02968C1022.2 9.43198 1022.83 9.47397 1023.33 9.12348C1023.82 8.77298 1023.99 8.16271 1023.7 7.76041L1019.05 1.20452ZM992.763 97.3471L1019.15 1.90548L1017.16 1.77283L990.768 97.2144L992.763 97.3471Z" fill="#79E59B"/>
<path d="M1256.3 4.64389C1256.12 4.25446 1255.5 4.161 1254.9 4.43513L1245.25 8.90246C1244.66 9.17659 1244.33 9.71452 1244.51 10.1039C1244.69 10.4934 1245.31 10.5868 1245.91 10.3127L1254.48 6.34175L1257.09 11.9828C1257.28 12.3722 1257.9 12.4657 1258.49 12.1915C1259.09 11.9174 1259.42 11.3794 1259.24 10.99L1256.3 4.64389ZM1199.01 97.4284L1256.22 5.28787L1254.24 4.99265L1197.04 97.1331L1199.01 97.4284Z" fill="#79E59B"/>
<path d="M1491.85 10.4403C1491.74 10.0728 1491.13 9.92497 1490.47 10.1102L1479.79 13.1283C1479.13 13.3135 1478.68 13.7616 1478.79 14.1291C1478.89 14.4966 1479.51 14.6444 1480.16 14.4592L1489.66 11.7764L1491.16 17.0998C1491.27 17.4673 1491.88 17.6151 1492.54 17.4298C1493.19 17.2446 1493.64 16.7966 1493.54 16.4291L1491.85 10.4403ZM1405.26 97.5142L1491.63 11.009L1489.69 10.5422L1403.31 97.0474L1405.26 97.5142Z" fill="#79E59B"/>
<path d="M1724.89 18.3549C1724.84 18.0043 1724.24 17.7977 1723.55 17.8934L1712.31 19.4535C1711.62 19.5492 1711.1 19.911 1711.15 20.2616C1711.2 20.6123 1711.8 20.8189 1712.49 20.7231L1722.48 19.3364L1723.18 24.415C1723.23 24.7656 1723.83 24.9723 1724.52 24.8765C1725.21 24.7808 1725.73 24.419 1725.68 24.0684L1724.89 18.3549ZM1611.49 97.6071L1724.58 18.8546L1722.69 18.2019L1609.6 96.9544L1611.49 97.6071Z" fill="#79E59B"/>
<path d="M1954.73 28.074C1954.73 27.7301 1954.15 27.4586 1953.45 27.4675L1942.03 27.6127C1941.32 27.6216 1940.76 27.9076 1940.76 28.2515C1940.77 28.5954 1941.34 28.867 1942.04 28.8581L1952.2 28.729L1952.26 33.7106C1952.27 34.0545 1952.84 34.326 1953.54 34.3171C1954.24 34.3082 1954.8 34.0222 1954.8 33.6783L1954.73 28.074ZM1817.71 97.7097L1954.36 28.5191L1952.56 27.6613L1815.9 96.8519L1817.71 97.7097Z" fill="#79E59B"/>
<path d="M2180.82 39.2021C2180.86 38.854 2180.32 38.5103 2179.63 38.4345L2168.32 37.1993C2167.63 37.1235 2167.03 37.3442 2167 37.6924C2166.96 38.0405 2167.49 38.3841 2168.18 38.4599L2178.24 39.558L2177.69 44.6006C2177.65 44.9487 2178.18 45.2924 2178.87 45.3682C2179.57 45.444 2180.16 45.2232 2180.2 44.8751L2180.82 39.2021ZM2023.91 97.8235L2180.4 39.6076L2178.72 38.5221L2022.23 96.738L2023.91 97.8235Z" fill="#79E59B"/>
<path d="M2402.79 51.2653C2402.87 50.9036 2402.4 50.4815 2401.73 50.3225L2390.84 47.7324C2390.17 47.5734 2389.56 47.7378 2389.48 48.0995C2389.39 48.4612 2389.86 48.8833 2390.53 49.0422L2400.21 51.3446L2398.96 56.584C2398.88 56.9457 2399.35 57.3678 2400.02 57.5268C2400.69 57.6857 2401.3 57.5213 2401.38 57.1596L2402.79 51.2653ZM2230.07 97.9474L2402.32 51.6441L2400.83 50.3109L2228.58 96.6142L2230.07 97.9474Z" fill="#79E59B"/>
<path d="M2620.52 63.7276C2620.66 63.347 2620.28 62.8452 2619.66 62.6066L2609.52 58.7192C2608.9 58.4807 2608.27 58.5958 2608.13 58.9764C2607.98 59.3569 2608.37 59.8588 2608.99 60.0974L2618 63.5528L2615.89 69.0653C2615.74 69.4458 2616.13 69.9477 2616.75 70.1863C2617.37 70.4248 2617.99 70.3097 2618.14 69.9291L2620.52 63.7276ZM2436.2 98.0734L2620 64.0883L2618.78 62.503L2434.98 96.4881L2436.2 98.0734Z" fill="#79E59B"/>
<path d="M2834.19 76.0223C2834.41 75.6252 2834.14 75.0531 2833.58 74.7445L2824.53 69.7156C2823.98 69.407 2823.35 69.4788 2823.13 69.8758C2822.91 70.2729 2823.18 70.845 2823.73 71.1536L2831.78 75.6238L2828.58 81.3757C2828.36 81.7728 2828.63 82.3448 2829.19 82.6534C2829.74 82.962 2830.37 82.8903 2830.59 82.4932L2834.19 76.0223ZM2642.28 98.1843L2833.61 76.3671L2832.75 74.56L2641.42 96.3772L2642.28 98.1843Z" fill="#79E59B"/>
<path d="M3044.27 87.5998C3044.58 87.1978 3044.44 86.5794 3043.97 86.2186L3036.25 80.3397C3035.77 79.9789 3035.14 80.0124 3034.83 80.4144C3034.53 80.8165 3034.66 81.4348 3035.14 81.7956L3042 87.0213L3037.57 92.8448C3037.26 93.2468 3037.4 93.8652 3037.87 94.226C3038.35 94.5867 3038.98 94.5533 3039.29 94.1512L3044.27 87.5998ZM2848.32 98.2574L3043.63 87.9232L3043.2 85.9699L2847.89 96.3041L2848.32 98.2574Z" fill="#79E59B"/>
<path d="M3251.71 98.2755C3252.1 97.8849 3252.1 97.2518 3251.71 96.8613L3245.34 90.4973C3244.95 90.1068 3244.32 90.1068 3243.93 90.4973C3243.54 90.8878 3243.54 91.521 3243.93 91.9115L3249.59 97.5684L3243.93 103.225C3243.54 103.616 3243.54 104.249 3243.93 104.639C3244.32 105.03 3244.95 105.03 3245.34 104.639L3251.71 98.2755ZM3055.11 98.5684L3251 98.5684L3251 96.5684L3055.11 96.5684L3055.11 98.5684Z" fill="#79E59B"/>
<path d="M77.5514 111.974C76.8909 111.799 76.2767 111.953 76.1795 112.318L74.597 118.271C74.4999 118.636 74.9567 119.075 75.6172 119.25C76.2778 119.426 76.892 119.272 76.9891 118.907L78.3958 113.615L87.9639 116.159C88.6245 116.334 89.2387 116.18 89.3358 115.815C89.4329 115.45 88.9761 115.011 88.3156 114.836L77.5514 111.974ZM167.694 198.168L78.3456 112.393L76.4055 112.879L165.754 198.654L167.694 198.168Z" fill="#79E59B"/>
<path d="M313.878 105.906C313.279 105.638 312.654 105.736 312.48 106.124L309.65 112.445C309.476 112.832 309.82 113.364 310.418 113.632C311.016 113.9 311.642 113.802 311.816 113.414L314.332 107.796L322.995 111.675C323.593 111.943 324.219 111.845 324.392 111.457C324.566 111.07 324.222 110.538 323.624 110.27L313.878 105.906ZM373.972 198.257L314.551 106.455L312.575 106.762L371.996 198.565L373.972 198.257Z" fill="#79E59B"/>
<path d="M551.972 102.336C551.473 101.988 550.841 102.033 550.561 102.435L545.993 108.989C545.712 109.392 545.889 110 546.388 110.347C546.887 110.695 547.519 110.651 547.799 110.248L551.86 104.422L559.085 109.458C559.584 109.806 560.215 109.761 560.496 109.359C560.776 108.957 560.599 108.349 560.1 108.001L551.972 102.336ZM580.242 198.341L552.462 102.995L550.466 103.134L578.247 198.481L580.242 198.341Z" fill="#79E59B"/>
<path d="M790.962 101.426C790.59 101.032 789.957 101.024 789.548 101.41L782.873 107.691C782.463 108.077 782.432 108.709 782.804 109.104C783.175 109.498 783.808 109.506 784.218 109.12L790.151 103.537L795.531 109.253C795.902 109.648 796.535 109.655 796.945 109.27C797.354 108.885 797.385 108.252 797.014 107.858L790.962 101.426ZM786.505 198.423L791.22 102.136L789.22 102.112L784.505 198.399L786.505 198.423Z" fill="#79E59B"/>
<path d="M1029.89 103.244C1029.64 102.844 1029.01 102.784 1028.48 103.111L1019.82 108.436C1019.29 108.762 1019.06 109.352 1019.3 109.752C1019.55 110.152 1020.18 110.212 1020.71 109.885L1028.41 105.152L1031.97 110.949C1032.22 111.349 1032.85 111.408 1033.38 111.082C1033.91 110.755 1034.14 110.166 1033.9 109.765L1029.89 103.244ZM992.761 198.505L1029.92 103.93L1027.93 103.741L990.77 198.317L992.761 198.505Z" fill="#79E59B"/>
<path d="M1267.78 107.73C1267.63 107.349 1267.01 107.235 1266.39 107.476L1256.28 111.397C1255.65 111.637 1255.27 112.141 1255.42 112.522C1255.57 112.903 1256.19 113.017 1256.81 112.777L1265.8 109.291L1267.94 114.811C1268.09 115.192 1268.71 115.306 1269.33 115.066C1269.95 114.825 1270.33 114.321 1270.19 113.94L1267.78 107.73ZM1199.01 198.591L1267.64 108.345L1265.67 107.986L1197.04 198.231L1199.01 198.591Z" fill="#79E59B"/>
<path d="M1503.7 114.728C1503.62 114.369 1503.01 114.197 1502.34 114.343L1491.37 116.73C1490.69 116.877 1490.21 117.287 1490.29 117.646C1490.37 118.005 1490.98 118.178 1491.65 118.031L1501.4 115.909L1502.54 121.112C1502.61 121.471 1503.22 121.643 1503.9 121.497C1504.57 121.35 1505.05 120.94 1504.97 120.581L1503.7 114.728ZM1405.25 198.683L1503.44 115.266L1501.52 114.721L1403.32 198.139L1405.25 198.683Z" fill="#79E59B"/>
<path d="M1736.78 124.006C1736.76 123.66 1736.17 123.423 1735.47 123.476L1724.1 124.343C1723.41 124.396 1722.86 124.72 1722.89 125.066C1722.91 125.412 1723.5 125.649 1724.2 125.596L1734.31 124.825L1734.69 129.836C1734.71 130.182 1735.3 130.42 1736 130.366C1736.7 130.313 1737.24 129.99 1737.21 129.644L1736.78 124.006ZM1611.47 198.786L1736.45 124.477L1734.59 123.727L1609.62 198.036L1611.47 198.786Z" fill="#79E59B"/>
<path d="M1966.24 135.242C1966.26 134.897 1965.7 134.586 1965.01 134.548L1953.61 133.923C1952.91 133.884 1952.33 134.133 1952.31 134.478C1952.29 134.823 1952.84 135.134 1953.54 135.172L1963.67 135.727L1963.4 140.724C1963.38 141.069 1963.93 141.38 1964.63 141.418C1965.33 141.457 1965.91 141.208 1965.93 140.863L1966.24 135.242ZM1817.68 198.902L1965.84 135.663L1964.1 134.682L1815.94 197.92L1817.68 198.902Z" fill="#79E59B"/>
<path d="M2191.4 148.013C2191.47 147.657 2190.97 147.264 2190.3 147.134L2179.22 145.024C2178.54 144.895 2177.93 145.078 2177.87 145.434C2177.8 145.79 2178.29 146.184 2178.97 146.313L2188.82 148.189L2187.84 153.345C2187.77 153.701 2188.26 154.095 2188.94 154.224C2189.62 154.353 2190.23 154.17 2190.3 153.814L2191.4 148.013ZM2023.85 199.033L2190.96 148.4L2189.39 147.157L2022.28 197.79L2023.85 199.033Z" fill="#79E59B"/>
<path d="M2411.83 161.792C2411.96 161.416 2411.55 160.934 2410.91 160.714L2400.56 157.136C2399.92 156.916 2399.3 157.043 2399.17 157.418C2399.04 157.794 2399.45 158.277 2400.09 158.496L2409.29 161.677L2407.41 167.121C2407.28 167.497 2407.69 167.979 2408.33 168.199C2408.96 168.418 2409.58 168.292 2409.71 167.916L2411.83 161.792ZM2229.98 199.173L2411.33 162.157L2410.03 160.632L2228.68 197.649L2229.98 199.173Z" fill="#79E59B"/>
<path d="M2627.36 175.957C2627.57 175.562 2627.29 174.996 2626.73 174.693L2617.56 169.767C2616.99 169.464 2616.37 169.54 2616.15 169.936C2615.94 170.332 2616.22 170.898 2616.79 171.2L2624.94 175.579L2621.86 181.313C2621.65 181.709 2621.93 182.275 2622.49 182.577C2623.06 182.879 2623.68 182.804 2623.9 182.408L2627.36 175.957ZM2436.04 199.305L2626.79 176.304L2625.89 174.516L2435.14 197.517L2436.04 199.305Z" fill="#79E59B"/>
<path d="M2838.22 189.832C2838.54 189.431 2838.42 188.809 2837.95 188.445L2830.37 182.501C2829.9 182.136 2829.27 182.166 2828.96 182.567C2828.64 182.969 2828.76 183.59 2829.23 183.955L2835.97 189.239L2831.41 195.056C2831.1 195.458 2831.22 196.079 2831.68 196.444C2832.15 196.809 2832.78 196.779 2833.1 196.377L2838.22 189.832ZM2642.04 199.392L2837.57 190.153L2837.19 188.191L2641.66 197.43L2642.04 199.392Z" fill="#79E59B"/>
<path d="M3045.06 202.762C3045.48 202.379 3045.53 201.748 3045.17 201.352L3039.3 194.889C3038.93 194.492 3038.3 194.48 3037.88 194.862C3037.46 195.245 3037.41 195.876 3037.77 196.273L3042.99 202.017L3036.9 207.553C3036.48 207.935 3036.44 208.566 3036.8 208.963C3037.16 209.36 3037.79 209.371 3038.21 208.989L3045.06 202.762ZM2848.03 199.408L3044.33 203.041L3044.49 201.046L2848.19 197.414L2848.03 199.408Z" fill="#79E59B"/>
<path d="M3248.88 214.206C3249.39 213.864 3249.58 213.262 3249.31 212.86L3244.92 206.311C3244.65 205.91 3244.02 205.861 3243.51 206.202C3243 206.543 3242.81 207.146 3243.08 207.548L3246.98 213.369L3239.6 218.314C3239.09 218.655 3238.9 219.257 3239.17 219.659C3239.44 220.061 3240.07 220.11 3240.58 219.769L3248.88 214.206ZM3054.06 199.363L3248.08 214.43L3248.7 212.527L3054.68 197.46L3054.06 199.363Z" fill="#79E59B"/>
<path d="M82.7364 211.852C82.0845 211.659 81.4678 211.803 81.359 212.172L79.5852 218.187C79.4764 218.557 79.9166 219.012 80.5685 219.204C81.2204 219.396 81.8371 219.253 81.946 218.884L83.5226 213.536L92.9656 216.321C93.6175 216.513 94.2342 216.37 94.3431 216.001C94.4519 215.631 94.0117 215.176 93.3598 214.984L82.7364 211.852ZM167.698 299.316L83.5133 212.294L81.5653 212.747L165.75 299.769L167.698 299.316Z" fill="#79E59B"/>
<path d="M319.939 206.144C319.357 205.859 318.73 205.946 318.538 206.338L315.411 212.725C315.219 213.117 315.535 213.666 316.117 213.95C316.699 214.235 317.326 214.148 317.518 213.756L320.298 208.079L328.725 212.204C329.306 212.489 329.934 212.402 330.125 212.01C330.317 211.619 330.001 211.07 329.42 210.785L319.939 206.144ZM373.975 299.405L320.582 206.716L318.601 206.99L371.994 299.679L373.975 299.405Z" fill="#79E59B"/>
<path d="M558.892 203.046C558.419 202.685 557.787 202.719 557.48 203.121L552.482 209.672C552.175 210.074 552.311 210.692 552.784 211.053C553.257 211.414 553.889 211.381 554.196 210.979L558.639 205.156L565.494 210.386C565.968 210.747 566.6 210.714 566.906 210.312C567.213 209.91 567.078 209.292 566.605 208.93L558.892 203.046ZM580.243 299.49L559.336 203.722L557.338 203.827L578.246 299.594L580.243 299.49Z" fill="#79E59B"/>
<path d="M798.685 202.739C798.345 202.34 797.712 202.32 797.272 202.696L790.098 208.81C789.657 209.186 789.576 209.814 789.917 210.213C790.257 210.612 790.89 210.632 791.33 210.257L797.707 204.821L802.639 210.607C802.979 211.006 803.612 211.026 804.052 210.651C804.492 210.276 804.573 209.648 804.233 209.248L798.685 202.739ZM786.505 299.573L798.888 203.45L796.888 203.388L784.506 299.511L786.505 299.573Z" fill="#79E59B"/>
<path d="M1038.31 205.297C1038.1 204.9 1037.47 204.827 1036.91 205.133L1027.81 210.118C1027.25 210.424 1026.97 210.993 1027.19 211.39C1027.4 211.786 1028.03 211.86 1028.59 211.554L1036.68 207.123L1039.83 212.867C1040.05 213.263 1040.68 213.337 1041.23 213.031C1041.79 212.725 1042.07 212.156 1041.85 211.759L1038.31 205.297ZM992.759 299.658L1038.29 205.967L1036.31 205.735L990.772 299.426L992.759 299.658Z" fill="#79E59B"/>
<path d="M1276.76 210.669C1276.63 210.295 1276.01 210.164 1275.37 210.377L1264.95 213.851C1264.31 214.064 1263.89 214.54 1264.02 214.914C1264.14 215.288 1264.76 215.419 1265.4 215.206L1274.67 212.118L1276.47 217.539C1276.6 217.913 1277.22 218.043 1277.86 217.83C1278.49 217.617 1278.91 217.141 1278.79 216.767L1276.76 210.669ZM1199 299.748L1276.58 211.261L1274.62 210.849L1197.05 299.336L1199 299.748Z" fill="#79E59B"/>
<path d="M1513.02 218.719C1512.96 218.366 1512.36 218.173 1511.67 218.288L1500.52 220.163C1499.84 220.278 1499.33 220.658 1499.39 221.012C1499.45 221.365 1500.05 221.558 1500.74 221.443L1510.65 219.776L1511.51 224.897C1511.57 225.25 1512.17 225.444 1512.86 225.329C1513.54 225.214 1514.05 224.834 1513.99 224.48L1513.02 218.719ZM1405.24 299.847L1512.73 219.233L1510.83 218.623L1403.33 299.237L1405.24 299.847Z" fill="#79E59B"/>
<path d="M1746.14 229.233C1746.14 228.889 1745.56 228.625 1744.86 228.643L1733.44 228.936C1732.74 228.954 1732.18 229.247 1732.18 229.591C1732.19 229.935 1732.77 230.2 1733.47 230.182L1743.62 229.921L1743.75 234.906C1743.76 235.25 1744.33 235.514 1745.03 235.496C1745.74 235.478 1746.3 235.185 1746.29 234.84L1746.14 229.233ZM1611.46 299.96L1745.78 229.683L1743.97 228.848L1609.64 299.124L1611.46 299.96Z" fill="#79E59B"/>
<path d="M1975.21 241.896C1975.25 241.548 1974.72 241.201 1974.03 241.122L1962.73 239.836C1962.04 239.757 1961.44 239.976 1961.4 240.324C1961.36 240.673 1961.89 241.019 1962.59 241.098L1972.63 242.241L1972.06 247.289C1972.02 247.637 1972.55 247.984 1973.24 248.063C1973.93 248.142 1974.53 247.923 1974.57 247.575L1975.21 241.896ZM1817.64 300.089L1974.79 242.3L1973.12 241.206L1815.97 298.995L1817.64 300.089Z" fill="#79E59B"/>
<path d="M2199.43 256.27C2199.53 255.904 2199.07 255.464 2198.41 255.287L2187.66 252.402C2187 252.225 2186.38 252.378 2186.29 252.744C2186.19 253.11 2186.64 253.55 2187.3 253.727L2196.86 256.291L2195.44 261.587C2195.34 261.953 2195.8 262.392 2196.46 262.569C2197.12 262.746 2197.73 262.594 2197.83 262.228L2199.43 256.27ZM2023.79 300.237L2198.95 256.644L2197.51 255.254L2022.35 298.847L2023.79 300.237Z" fill="#79E59B"/>
<path d="M2418.19 271.774C2418.37 271.385 2418.04 270.849 2417.44 270.576L2407.77 266.129C2407.18 265.856 2406.55 265.95 2406.38 266.339C2406.2 266.728 2406.53 267.265 2407.13 267.538L2415.72 271.491L2413.13 277.127C2412.95 277.516 2413.29 278.053 2413.88 278.326C2414.47 278.599 2415.1 278.505 2415.28 278.116L2418.19 271.774ZM2229.86 300.39L2417.65 272.128L2416.59 270.433L2228.8 298.694L2229.86 300.39Z" fill="#79E59B"/>
<path d="M2631.26 287.688C2631.54 287.286 2631.38 286.674 2630.89 286.322L2622.9 280.58C2622.41 280.228 2621.78 280.268 2621.49 280.671C2621.2 281.073 2621.36 281.685 2621.85 282.037L2628.96 287.141L2624.77 292.969C2624.48 293.371 2624.64 293.983 2625.13 294.335C2625.62 294.687 2626.26 294.647 2626.55 294.244L2631.26 287.688ZM2435.85 300.508L2630.63 288.016L2630.11 286.084L2435.33 298.576L2435.85 300.508Z" fill="#79E59B"/>
<path d="M2838.86 303.196C2839.27 302.812 2839.31 302.18 2838.95 301.785L2832.98 295.338C2832.61 294.942 2831.98 294.933 2831.57 295.317C2831.15 295.7 2831.11 296.332 2831.48 296.728L2836.78 302.459L2830.77 308.02C2830.36 308.404 2830.32 309.036 2830.69 309.431C2831.05 309.827 2831.69 309.836 2832.1 309.453L2838.86 303.196ZM2641.79 300.54L2838.13 303.478L2838.26 301.482L2641.91 298.544L2641.79 300.54Z" fill="#79E59B"/>
<path d="M3041.83 317.513C3042.36 317.182 3042.58 316.588 3042.32 316.188L3038.2 309.656C3037.95 309.255 3037.32 309.199 3036.79 309.53C3036.27 309.861 3036.05 310.455 3036.3 310.856L3039.97 316.662L3032.36 321.462C3031.84 321.794 3031.62 322.387 3031.87 322.788C3032.12 323.189 3032.75 323.245 3033.28 322.914L3041.83 317.513ZM2847.76 300.48L3041.03 317.725L3041.72 315.85L2848.46 298.605L2847.76 300.48Z" fill="#79E59B"/>
<path d="M3241.5 330.006C3242.1 329.742 3242.45 329.214 3242.28 328.827L3239.51 322.521C3239.34 322.134 3238.72 322.034 3238.12 322.298C3237.52 322.562 3237.17 323.09 3237.34 323.477L3239.8 329.082L3231.09 332.908C3230.49 333.172 3230.14 333.7 3230.31 334.087C3230.48 334.474 3231.1 334.573 3231.7 334.309L3241.5 330.006ZM3053.82 300.376L3240.64 330.139L3241.75 328.471L3054.92 298.708L3053.82 300.376Z" fill="#79E59B"/>
<path d="M86.0751 312.223C85.4292 312.02 84.811 312.157 84.6943 312.529L82.7927 318.585C82.676 318.957 83.105 319.423 83.7509 319.625C84.3967 319.828 85.0149 319.691 85.1316 319.32L86.8219 313.936L96.1777 316.873C96.8236 317.076 97.4418 316.939 97.5585 316.568C97.6752 316.196 97.2462 315.73 96.6003 315.527L86.0751 312.223ZM167.7 400.456L86.8401 312.68L84.8874 313.112L165.747 400.889L167.7 400.456Z" fill="#79E59B"/>
<path d="M323.896 306.746C323.325 306.451 322.697 306.531 322.493 306.925L319.163 313.352C318.958 313.746 319.255 314.306 319.826 314.601C320.396 314.897 321.024 314.817 321.228 314.422L324.188 308.71L332.451 312.991C333.022 313.286 333.65 313.206 333.854 312.812C334.058 312.418 333.762 311.858 333.191 311.563L323.896 306.746ZM373.976 400.546L324.518 307.334L322.534 307.587L371.992 400.799L373.976 400.546Z" fill="#79E59B"/>
<path d="M563.478 303.966C563.023 303.597 562.39 303.623 562.065 304.024L556.776 310.558C556.451 310.959 556.557 311.583 557.013 311.952C557.469 312.321 558.102 312.295 558.426 311.894L563.128 306.086L569.73 311.431C570.186 311.8 570.819 311.774 571.143 311.373C571.468 310.972 571.362 310.348 570.906 309.979L563.478 303.966ZM580.244 400.631L563.89 304.651L561.891 304.733L578.245 400.713L580.244 400.631Z" fill="#79E59B"/>
<path d="M803.888 304.078C803.568 303.677 802.936 303.649 802.475 304.016L794.972 309.997C794.512 310.364 794.398 310.986 794.718 311.388C795.038 311.789 795.67 311.817 796.131 311.45L802.8 306.134L807.434 311.947C807.753 312.348 808.386 312.376 808.846 312.009C809.307 311.642 809.421 311.019 809.101 310.618L803.888 304.078ZM786.504 400.716L804.054 304.787L802.056 304.699L784.506 400.628L786.504 400.716Z" fill="#79E59B"/>
<path d="M1044.09 307.171C1043.89 306.778 1043.26 306.695 1042.69 306.986L1033.31 311.721C1032.73 312.012 1032.42 312.567 1032.62 312.96C1032.82 313.353 1033.45 313.436 1034.03 313.146L1042.36 308.936L1045.24 314.633C1045.44 315.026 1046.07 315.109 1046.64 314.819C1047.22 314.528 1047.52 313.974 1047.33 313.58L1044.09 307.171ZM992.757 400.804L1044.04 307.829L1042.06 307.566L990.774 400.541L992.757 400.804Z" fill="#79E59B"/>
<path d="M1283.03 313.216C1282.92 312.847 1282.3 312.704 1281.65 312.898L1271.04 316.049C1270.39 316.242 1269.95 316.699 1270.06 317.068C1270.17 317.437 1270.78 317.58 1271.43 317.387L1280.87 314.586L1282.46 319.937C1282.57 320.306 1283.18 320.449 1283.83 320.255C1284.49 320.062 1284.93 319.606 1284.82 319.236L1283.03 313.216ZM1199 400.898L1282.82 313.792L1280.87 313.341L1197.05 400.447L1199 400.898Z" fill="#79E59B"/>
<path d="M1519.65 322.108C1519.6 321.758 1519.01 321.549 1518.32 321.641L1507.06 323.143C1506.37 323.235 1505.85 323.594 1505.9 323.944C1505.94 324.294 1506.54 324.503 1507.23 324.411L1517.23 323.076L1517.91 328.148C1517.96 328.498 1518.56 328.707 1519.25 328.615C1519.94 328.523 1520.46 328.164 1520.41 327.814L1519.65 322.108ZM1405.23 401.003L1519.34 322.606L1517.46 321.945L1403.34 400.342L1405.23 401.003Z" fill="#79E59B"/>
<path d="M1752.89 333.667C1752.9 333.323 1752.33 333.037 1751.63 333.029L1740.21 332.886C1739.51 332.877 1738.93 333.149 1738.93 333.493C1738.92 333.837 1739.49 334.123 1740.19 334.131L1750.35 334.258L1750.29 339.24C1750.28 339.584 1750.85 339.869 1751.55 339.878C1752.25 339.887 1752.82 339.615 1752.82 339.271L1752.89 333.667ZM1611.44 401.124L1752.52 334.103L1750.73 333.2L1609.65 400.221L1611.44 401.124Z" fill="#79E59B"/>
<path d="M1981.71 347.606C1981.77 347.253 1981.26 346.877 1980.57 346.766L1969.4 344.954C1968.72 344.843 1968.11 345.039 1968.06 345.392C1968 345.745 1968.51 346.121 1969.19 346.232L1979.12 347.842L1978.29 352.954C1978.24 353.307 1978.75 353.683 1979.43 353.794C1980.12 353.905 1980.72 353.709 1980.78 353.356L1981.71 347.606ZM1817.61 401.267L1981.27 347.999L1979.66 346.81L1816 400.078L1817.61 401.267Z" fill="#79E59B"/>
<path d="M2205.1 363.495C2205.23 363.12 2204.81 362.641 2204.18 362.424L2193.78 358.903C2193.15 358.687 2192.53 358.816 2192.4 359.191C2192.27 359.566 2192.69 360.045 2193.32 360.261L2202.56 363.391L2200.72 368.822C2200.59 369.197 2201.01 369.676 2201.65 369.892C2202.28 370.108 2202.9 369.979 2203.03 369.604L2205.1 363.495ZM2023.72 401.429L2204.6 363.86L2203.29 362.347L2022.41 399.916L2023.72 401.429Z" fill="#79E59B"/>
<path d="M2422.24 380.717C2422.47 380.318 2422.22 379.74 2421.67 379.425L2412.75 374.287C2412.21 373.972 2411.58 374.039 2411.35 374.437C2411.12 374.836 2411.38 375.414 2411.92 375.729L2419.85 380.296L2416.52 386.066C2416.29 386.465 2416.55 387.043 2417.1 387.358C2417.64 387.674 2418.27 387.606 2418.5 387.208L2422.24 380.717ZM2229.73 401.586L2421.66 381.06L2420.85 379.232L2228.92 399.759L2229.73 401.586Z" fill="#79E59B"/>
<path d="M2632.69 398.442C2633.05 398.047 2633.01 397.415 2632.6 397.031L2625.84 390.774C2625.43 390.39 2624.79 390.399 2624.43 390.795C2624.06 391.19 2624.1 391.822 2624.52 392.206L2630.52 397.768L2625.22 403.498C2624.85 403.894 2624.89 404.526 2625.3 404.91C2625.72 405.294 2626.35 405.284 2626.72 404.889L2632.69 398.442ZM2435.65 401.67L2632 398.745L2631.87 396.749L2435.53 399.674L2435.65 401.67Z" fill="#79E59B"/>
<path d="M2836.61 415.693C2837.12 415.348 2837.3 414.742 2837.03 414.34L2832.54 407.788C2832.27 407.386 2831.63 407.339 2831.13 407.684C2830.63 408.029 2830.44 408.634 2830.72 409.036L2834.7 414.861L2827.41 419.855C2826.9 420.2 2826.72 420.805 2826.99 421.207C2827.27 421.609 2827.9 421.656 2828.4 421.311L2836.61 415.693ZM2641.56 401.629L2835.82 415.921L2836.41 414.008L2642.14 399.716L2641.56 401.629Z" fill="#79E59B"/>
<path d="M3034.99 431.503C3035.6 431.241 3035.95 430.715 3035.78 430.329L3033.05 424.032C3032.88 423.645 3032.25 423.544 3031.65 423.806C3031.05 424.068 3030.69 424.594 3030.86 424.98L3033.29 430.578L3024.55 434.372C3023.95 434.634 3023.6 435.159 3023.76 435.546C3023.93 435.932 3024.56 436.033 3025.16 435.771L3034.99 431.503ZM2847.55 401.502L3034.13 431.633L3035.25 429.973L2848.67 399.842L2847.55 401.502Z" fill="#79E59B"/>
<path d="M3229.57 445.06C3230.23 444.884 3230.69 444.445 3230.59 444.079L3229.01 438.124C3228.91 437.759 3228.29 437.605 3227.63 437.782C3226.97 437.958 3226.52 438.397 3226.61 438.762L3228.03 444.056L3218.46 446.607C3217.8 446.783 3217.35 447.222 3217.44 447.588C3217.54 447.953 3218.15 448.106 3218.81 447.93L3229.57 445.06ZM3053.65 401.366L3228.68 445.092L3230.12 443.705L3055.09 399.979L3053.65 401.366Z" fill="#79E59B"/>
<path d="M87.4013 413.061C86.7579 412.854 86.1391 412.989 86.0193 413.361L84.0657 419.435C83.9459 419.807 84.3703 420.277 85.0136 420.484C85.657 420.691 86.2758 420.557 86.3957 420.184L88.1321 414.786L97.4518 417.783C98.0952 417.99 98.7139 417.856 98.8338 417.483C98.9537 417.111 98.5293 416.641 97.8859 416.434L87.4013 413.061ZM167.701 501.59L88.1614 413.524L86.207 413.948L165.746 502.014L167.701 501.59Z" fill="#79E59B"/>
<path d="M325.557 407.667C324.992 407.367 324.364 407.445 324.154 407.84L320.737 414.282C320.527 414.678 320.815 415.241 321.381 415.541C321.946 415.841 322.575 415.764 322.785 415.369L325.822 409.642L334.014 413.987C334.579 414.287 335.208 414.21 335.417 413.815C335.627 413.419 335.338 412.856 334.773 412.556L325.557 407.667ZM373.977 501.68L326.17 408.261L324.185 408.505L371.992 501.924L373.977 501.68Z" fill="#79E59B"/>
<path d="M565.52 405.019C565.072 404.647 564.439 404.67 564.106 405.07L558.685 411.592C558.353 411.993 558.446 412.619 558.894 412.991C559.342 413.363 559.975 413.341 560.307 412.94L565.126 407.143L571.614 412.535C572.061 412.907 572.694 412.885 573.027 412.484C573.36 412.084 573.266 411.458 572.818 411.086L565.52 405.019ZM580.244 501.766L565.917 405.708L563.918 405.78L578.245 501.838L580.244 501.766Z" fill="#79E59B"/>
<path d="M806.346 405.331C806.036 404.929 805.404 404.897 804.934 405.26L797.278 411.171C796.808 411.534 796.679 412.153 796.989 412.555C797.299 412.957 797.932 412.989 798.402 412.626L805.207 407.372L809.701 413.193C810.011 413.595 810.644 413.626 811.114 413.264C811.583 412.901 811.713 412.281 811.402 411.879L806.346 405.331ZM786.504 501.852L806.494 406.038L804.497 405.937L784.506 501.752L786.504 501.852Z" fill="#79E59B"/>
<path d="M1046.99 408.71C1046.8 408.318 1046.17 408.23 1045.59 408.513L1036.07 413.119C1035.49 413.402 1035.17 413.948 1035.36 414.34C1035.55 414.731 1036.18 414.82 1036.76 414.537L1045.22 410.442L1047.96 416.113C1048.15 416.504 1048.78 416.592 1049.36 416.31C1049.95 416.027 1050.27 415.481 1050.08 415.089L1046.99 408.71ZM992.756 501.942L1046.92 409.361L1044.94 409.082L990.775 501.663L992.756 501.942Z" fill="#79E59B"/>
<path d="M1286.37 415.157C1286.27 414.79 1285.66 414.64 1285 414.823L1274.29 417.8C1273.64 417.982 1273.19 418.428 1273.29 418.795C1273.39 419.162 1274.01 419.311 1274.66 419.128L1284.18 416.482L1285.66 421.797C1285.76 422.164 1286.38 422.314 1287.03 422.131C1287.69 421.948 1288.14 421.503 1288.04 421.136L1286.37 415.157ZM1199 502.038L1286.16 415.723L1284.21 415.251L1197.05 501.566L1199 502.038Z" fill="#79E59B"/>
<path d="M1523.41 424.608C1523.37 424.259 1522.77 424.041 1522.08 424.119L1510.78 425.405C1510.08 425.484 1509.55 425.831 1509.59 426.179C1509.63 426.528 1510.23 426.746 1510.92 426.667L1520.97 425.524L1521.54 430.572C1521.58 430.92 1522.17 431.139 1522.87 431.06C1523.56 430.981 1524.09 430.635 1524.05 430.286L1523.41 424.608ZM1405.23 502.147L1523.09 425.096L1521.21 424.405L1403.35 501.457L1405.23 502.147Z" fill="#79E59B"/>
<path d="M1756.93 436.935C1756.95 436.59 1756.39 436.29 1755.69 436.265L1744.27 435.851C1743.57 435.826 1743 436.084 1742.98 436.428C1742.97 436.773 1743.53 437.072 1744.23 437.098L1754.38 437.466L1754.19 442.454C1754.18 442.798 1754.74 443.098 1755.44 443.123C1756.14 443.149 1756.72 442.89 1756.73 442.546L1756.93 436.935ZM1611.43 502.276L1756.55 437.362L1754.79 436.415L1609.67 501.329L1611.43 502.276Z" fill="#79E59B"/>
<path d="M1985.76 451.909C1985.83 451.552 1985.34 451.155 1984.66 451.022L1973.61 448.856C1972.93 448.723 1972.32 448.905 1972.25 449.261C1972.18 449.618 1972.67 450.015 1973.35 450.148L1983.18 452.073L1982.17 457.238C1982.1 457.595 1982.59 457.992 1983.27 458.125C1983.95 458.257 1984.56 458.076 1984.63 457.72L1985.76 451.909ZM1817.59 502.429L1985.31 452.295L1983.76 451.041L1816.03 501.176L1817.59 502.429Z" fill="#79E59B"/>
<path d="M2208.66 469.148C2208.81 468.766 2208.44 468.259 2207.82 468.015L2197.75 464.038C2197.13 463.794 2196.51 463.906 2196.36 464.288C2196.2 464.67 2196.58 465.177 2197.2 465.421L2206.15 468.956L2203.97 474.488C2203.82 474.87 2204.2 475.378 2204.81 475.622C2205.43 475.866 2206.05 475.754 2206.21 475.372L2208.66 469.148ZM2023.67 502.604L2208.14 469.508L2206.95 467.905L2022.47 501.001L2023.67 502.604Z" fill="#79E59B"/>
<path d="M2424.48 488.04C2424.75 487.638 2424.56 487.033 2424.06 486.688L2415.84 481.077C2415.34 480.732 2414.7 480.779 2414.43 481.181C2414.15 481.583 2414.34 482.188 2414.85 482.533L2422.15 487.521L2418.18 493.345C2417.9 493.747 2418.09 494.352 2418.59 494.696C2419.1 495.041 2419.73 494.994 2420 494.592L2424.48 488.04ZM2229.62 502.758L2423.86 488.372L2423.27 486.461L2229.03 500.847L2229.62 502.758Z" fill="#79E59B"/>
<path d="M2632.38 507.667C2632.81 507.289 2632.88 506.66 2632.53 506.261L2626.86 499.768C2626.51 499.369 2625.88 499.353 2625.44 499.731C2625.01 500.109 2624.94 500.738 2625.29 501.137L2630.33 506.908L2624.06 512.384C2623.63 512.762 2623.56 513.391 2623.91 513.79C2624.26 514.188 2624.89 514.205 2625.33 513.827L2632.38 507.667ZM2435.48 502.796L2631.64 507.94L2631.86 505.951L2435.7 500.808L2435.48 502.796Z" fill="#79E59B"/>
<path d="M2832.28 526.866C2832.85 526.571 2833.14 526.012 2832.94 525.618L2829.62 519.193C2829.42 518.799 2828.79 518.718 2828.22 519.013C2827.65 519.308 2827.35 519.867 2827.55 520.261L2830.5 525.972L2822.23 530.245C2821.66 530.54 2821.36 531.099 2821.57 531.494C2821.77 531.888 2822.4 531.968 2822.97 531.673L2832.28 526.866ZM2641.38 502.685L2831.44 527.034L2832.38 525.269L2642.32 500.92L2641.38 502.685Z" fill="#79E59B"/>
<path d="M3025.17 544.377C3025.82 544.189 3026.27 543.738 3026.16 543.37L3024.44 537.37C3024.33 537.002 3023.72 536.856 3023.06 537.044C3022.41 537.232 3021.96 537.683 3022.07 538.051L3023.6 543.384L3014.13 546.109C3013.47 546.297 3013.03 546.748 3013.13 547.116C3013.24 547.484 3013.86 547.63 3014.51 547.442L3025.17 544.377ZM2847.41 502.514L3024.28 544.423L3025.68 542.998L2848.81 501.09L2847.41 502.514Z" fill="#79E59B"/>
<path d="M3213.37 559.047C3214.06 558.96 3214.59 558.606 3214.54 558.256L3213.82 552.561C3213.78 552.211 3213.18 551.999 3212.49 552.086C3211.8 552.174 3211.28 552.528 3211.32 552.877L3211.96 557.94L3201.94 559.206C3201.25 559.294 3200.73 559.648 3200.77 559.997C3200.81 560.347 3201.41 560.559 3202.1 560.472L3213.37 559.047ZM3053.54 502.362L3212.46 558.974L3214.12 557.855L3055.2 501.243L3053.54 502.362Z" fill="#79E59B"/>
<path d="M86.5977 514.368C85.9528 514.164 85.3344 514.3 85.2164 514.672L83.2944 520.735C83.1765 521.107 83.6037 521.574 84.2486 521.779C84.8935 521.983 85.5119 521.847 85.6299 521.475L87.3383 516.086L96.6799 519.047C97.3248 519.251 97.9432 519.115 98.0612 518.743C98.1791 518.371 97.7519 517.904 97.107 517.699L86.5977 514.368ZM167.7 602.718L87.3608 514.827L85.4074 515.256L165.747 603.148L167.7 602.718Z" fill="#79E59B"/>
<path d="M324.779 508.895C324.212 508.597 323.583 508.676 323.376 509.071L320 515.506C319.793 515.901 320.085 516.462 320.653 516.76C321.221 517.058 321.849 516.98 322.056 516.585L325.057 510.865L333.282 515.18C333.85 515.478 334.478 515.399 334.686 515.004C334.893 514.609 334.6 514.048 334.033 513.75L324.779 508.895ZM373.976 602.809L325.397 509.486L323.412 509.734L371.992 603.057L373.976 602.809Z" fill="#79E59B"/>
<path d="M564.839 506.174C564.389 505.803 563.756 505.827 563.426 506.228L558.049 512.754C557.719 513.155 557.817 513.78 558.267 514.151C558.718 514.523 559.351 514.499 559.681 514.098L564.46 508.297L570.986 513.674C571.437 514.045 572.07 514.021 572.399 513.621C572.729 513.22 572.632 512.595 572.181 512.223L564.839 506.174ZM580.244 602.896L565.241 506.862L563.243 506.937L578.245 602.971L580.244 602.896Z" fill="#79E59B"/>
<path d="M805.851 506.436C805.539 506.034 804.906 506.003 804.438 506.367L796.813 512.292C796.345 512.655 796.219 513.276 796.531 513.678C796.843 514.079 797.476 514.11 797.944 513.747L804.722 508.48L809.244 514.299C809.556 514.701 810.189 514.732 810.656 514.369C811.124 514.005 811.251 513.384 810.938 512.983L805.851 506.436ZM786.504 602.982L806.002 507.143L804.005 507.045L784.506 602.884L786.504 602.982Z" fill="#79E59B"/>
<path d="M1046.78 509.81C1046.59 509.418 1045.96 509.33 1045.38 509.614L1035.87 514.23C1035.29 514.513 1034.97 515.06 1035.16 515.452C1035.35 515.843 1035.98 515.931 1036.56 515.648L1045.01 511.545L1047.76 517.217C1047.95 517.609 1048.58 517.696 1049.16 517.413C1049.75 517.13 1050.07 516.583 1049.88 516.191L1046.78 509.81ZM992.756 603.072L1046.71 510.461L1044.73 510.184L990.775 602.794L992.756 603.072Z" fill="#79E59B"/>
<path d="M1286.54 516.329C1286.44 515.962 1285.82 515.812 1285.17 515.994L1274.46 518.962C1273.8 519.144 1273.35 519.589 1273.45 519.956C1273.55 520.323 1274.17 520.473 1274.82 520.291L1284.34 517.652L1285.82 522.965C1285.92 523.332 1286.53 523.482 1287.19 523.3C1287.85 523.118 1288.3 522.673 1288.2 522.306L1286.54 516.329ZM1199 603.17L1286.32 516.895L1284.38 516.422L1197.05 602.697L1199 603.17Z" fill="#79E59B"/>
<path d="M1524.03 525.975C1524 525.627 1523.4 525.406 1522.71 525.483L1511.4 526.732C1510.71 526.809 1510.18 527.154 1510.22 527.502C1510.25 527.85 1510.85 528.07 1511.54 527.993L1521.59 526.883L1522.15 531.927C1522.19 532.275 1522.78 532.495 1523.48 532.419C1524.17 532.342 1524.7 531.997 1524.66 531.649L1524.03 525.975ZM1405.22 603.281L1523.72 526.461L1521.84 525.766L1403.35 602.585L1405.22 603.281Z" fill="#79E59B"/>
<path d="M1758.06 538.687C1758.08 538.342 1757.52 538.038 1756.82 538.008L1745.41 537.516C1744.71 537.486 1744.13 537.741 1744.12 538.086C1744.1 538.43 1744.66 538.734 1745.36 538.764L1755.5 539.201L1755.29 544.192C1755.27 544.536 1755.83 544.84 1756.53 544.87C1757.23 544.9 1757.81 544.646 1757.82 544.301L1758.06 538.687ZM1611.42 603.413L1757.67 539.112L1755.92 538.152L1609.67 602.453L1611.42 603.413Z" fill="#79E59B"/>
<path d="M1987.31 554.325C1987.39 553.967 1986.9 553.562 1986.22 553.42L1975.22 551.113C1974.54 550.971 1973.94 551.147 1973.86 551.505C1973.79 551.863 1974.27 552.268 1974.95 552.41L1984.73 554.461L1983.64 559.65C1983.57 560.008 1984.05 560.414 1984.73 560.555C1985.4 560.697 1986.01 560.521 1986.09 560.163L1987.31 554.325ZM1817.58 603.573L1986.86 554.709L1985.32 553.429L1816.04 602.293L1817.58 603.573Z" fill="#79E59B"/>
<path d="M2210.3 572.617C2210.46 572.231 2210.11 571.71 2209.5 571.452L2199.61 567.247C2199.01 566.989 2198.38 567.092 2198.22 567.478C2198.05 567.863 2198.41 568.385 2199.02 568.643L2207.81 572.38L2205.43 577.964C2205.27 578.349 2205.63 578.871 2206.23 579.129C2206.84 579.387 2207.47 579.284 2207.63 578.898L2210.3 572.617ZM2023.63 603.757L2209.77 572.973L2208.64 571.326L2022.5 602.109L2023.63 603.757Z" fill="#79E59B"/>
<path d="M2425.45 593.036C2425.75 592.634 2425.61 592.016 2425.14 591.656L2417.39 585.79C2416.91 585.43 2416.28 585.465 2415.97 585.867C2415.67 586.269 2415.81 586.887 2416.28 587.247L2423.17 592.461L2418.76 598.285C2418.46 598.687 2418.6 599.305 2419.07 599.665C2419.55 600.025 2420.18 599.99 2420.49 599.588L2425.45 593.036ZM2229.55 603.909L2424.8 593.36L2424.37 591.409L2229.11 601.957L2229.55 603.909Z" fill="#79E59B"/>
<path d="M2631.29 614.661C2631.77 614.303 2631.91 613.686 2631.61 613.284L2626.71 606.73C2626.41 606.328 2625.77 606.292 2625.3 606.65C2624.82 607.009 2624.67 607.625 2624.97 608.027L2629.33 613.853L2622.39 619.042C2621.91 619.4 2621.77 620.017 2622.07 620.419C2622.37 620.821 2623 620.857 2623.48 620.499L2631.29 614.661ZM2435.36 603.907L2630.51 614.906L2630.97 612.959L2435.82 601.96L2435.36 603.907Z" fill="#79E59B"/>
<path d="M2827.03 636.144C2827.65 635.897 2828.02 635.386 2827.87 635.003L2825.36 628.764C2825.2 628.382 2824.58 628.272 2823.96 628.519C2823.35 628.767 2822.98 629.278 2823.13 629.661L2825.36 635.206L2816.45 638.792C2815.83 639.04 2815.46 639.551 2815.61 639.933C2815.77 640.316 2816.39 640.426 2817.01 640.178L2827.03 636.144ZM2641.26 603.74L2826.16 636.258L2827.34 634.644L2642.44 602.126L2641.26 603.74Z" fill="#79E59B"/>
<path d="M3013.34 655.747C3014.03 655.628 3014.53 655.245 3014.47 654.891L3013.47 649.12C3013.4 648.766 3012.8 648.575 3012.12 648.694C3011.43 648.813 3010.93 649.196 3010.99 649.55L3011.88 654.68L3001.99 656.401C3001.3 656.52 3000.8 656.903 3000.86 657.257C3000.92 657.611 3001.53 657.802 3002.21 657.683L3013.34 655.747ZM2847.31 603.539L3012.44 655.712L3014.03 654.501L2848.91 602.328L2847.31 603.539Z" fill="#79E59B"/>
<path d="M3193.27 671.661C3193.97 671.661 3194.54 671.382 3194.54 671.038L3194.54 665.435C3194.54 665.091 3193.97 664.812 3193.27 664.812C3192.57 664.812 3192 665.091 3192 665.435L3192 670.415L3181.84 670.415C3181.14 670.415 3180.58 670.694 3180.58 671.038C3180.58 671.382 3181.14 671.661 3181.84 671.661L3193.27 671.661ZM3053.47 603.373L3192.38 671.478L3194.17 670.598L3055.27 602.493L3053.47 603.373Z" fill="#79E59B"/>
<path d="M83.6059 616.172C82.9555 615.977 82.3384 616.119 82.2275 616.489L80.4209 622.515C80.31 622.885 80.7473 623.343 81.3977 623.538C82.0481 623.733 82.6652 623.591 82.7761 623.221L84.382 617.865L93.8028 620.689C94.4531 620.884 95.0702 620.742 95.1811 620.372C95.292 620.003 94.8546 619.545 94.2042 619.35L83.6059 616.172ZM167.698 703.84L84.3798 616.618L82.4305 617.066L165.749 704.288L167.698 703.84Z" fill="#79E59B"/>
<path d="M321.471 610.456C320.893 610.167 320.266 610.251 320.069 610.644L316.864 617.047C316.667 617.44 316.976 617.993 317.554 618.282C318.131 618.571 318.759 618.487 318.955 618.094L321.804 612.402L330.168 616.589C330.746 616.878 331.373 616.794 331.57 616.401C331.767 616.008 331.458 615.455 330.881 615.166L321.471 610.456ZM373.975 703.931L322.106 611.034L320.123 611.301L371.993 704.197L373.975 703.931Z" fill="#79E59B"/>
<path d="M561.306 607.451C560.842 607.085 560.21 607.115 559.894 607.516L554.743 614.06C554.427 614.461 554.547 615.083 555.011 615.448C555.475 615.814 556.108 615.784 556.424 615.383L561.002 609.566L567.725 614.858C568.189 615.224 568.822 615.194 569.138 614.793C569.454 614.391 569.334 613.77 568.87 613.404L561.306 607.451ZM580.244 704.018L561.733 608.131L559.735 608.224L578.246 704.11L580.244 704.018Z" fill="#79E59B"/>
<path d="M802.221 607.396C801.894 606.995 801.262 606.97 800.808 607.339L793.409 613.365C792.955 613.734 792.852 614.359 793.178 614.76C793.505 615.161 794.137 615.186 794.591 614.816L801.168 609.46L805.896 615.266C806.223 615.667 806.855 615.692 807.309 615.322C807.763 614.953 807.867 614.328 807.54 613.927L802.221 607.396ZM786.504 704.104L802.398 608.105L800.4 608.025L784.506 704.024L786.504 704.104Z" fill="#79E59B"/>
<path d="M1043.21 610.444C1043.01 610.05 1042.38 609.968 1041.81 610.261L1032.47 615.036C1031.89 615.329 1031.59 615.886 1031.79 616.279C1031.99 616.673 1032.62 616.755 1033.2 616.462L1041.5 612.218L1044.41 617.922C1044.62 618.316 1045.24 618.398 1045.82 618.105C1046.39 617.812 1046.69 617.255 1046.49 616.861L1043.21 610.444ZM992.757 704.193L1043.16 611.103L1041.18 610.845L990.774 703.935L992.757 704.193Z" fill="#79E59B"/>
<path d="M1283.23 616.655C1283.12 616.286 1282.5 616.142 1281.85 616.335L1271.23 619.476C1270.58 619.669 1270.14 620.125 1270.25 620.494C1270.36 620.863 1270.97 621.006 1271.62 620.813L1281.06 618.021L1282.65 623.37C1282.76 623.74 1283.37 623.883 1284.02 623.69C1284.68 623.497 1285.11 623.042 1285.01 622.672L1283.23 616.655ZM1199 704.29L1283.02 617.23L1281.07 616.778L1197.05 703.838L1199 704.29Z" fill="#79E59B"/>
<path d="M1521.19 626.052C1521.14 625.703 1520.55 625.49 1519.86 625.577L1508.58 626.991C1507.89 627.077 1507.37 627.431 1507.41 627.78C1507.45 628.13 1508.05 628.343 1508.74 628.256L1518.76 626.999L1519.4 632.061C1519.44 632.41 1520.04 632.623 1520.73 632.536C1521.42 632.45 1521.95 632.096 1521.9 631.747L1521.19 626.052ZM1405.23 704.4L1520.88 626.546L1518.99 625.873L1403.34 703.728L1405.23 704.4Z" fill="#79E59B"/>
<path d="M1755.91 638.643C1755.92 638.299 1755.36 638.003 1754.66 637.982L1743.24 637.637C1742.54 637.616 1741.97 637.878 1741.96 638.222C1741.95 638.566 1742.5 638.862 1743.21 638.883L1753.36 639.19L1753.21 644.175C1753.2 644.519 1753.75 644.816 1754.46 644.837C1755.16 644.858 1755.73 644.596 1755.74 644.252L1755.91 638.643ZM1611.43 704.532L1755.53 639.072L1753.76 638.137L1609.66 703.596L1611.43 704.532Z" fill="#79E59B"/>
<path d="M1986.04 654.4C1986.11 654.043 1985.62 653.644 1984.94 653.51L1973.9 651.319C1973.22 651.184 1972.61 651.365 1972.54 651.721C1972.47 652.078 1972.96 652.477 1973.64 652.611L1983.46 654.559L1982.44 659.728C1982.36 660.085 1982.86 660.483 1983.53 660.618C1984.21 660.752 1984.82 660.572 1984.89 660.215L1986.04 654.4ZM1817.58 704.693L1985.59 654.785L1984.04 653.527L1816.03 703.435L1817.58 704.693Z" fill="#79E59B"/>
<path d="M2209.94 673.219C2210.1 672.834 2209.74 672.316 2209.13 672.061L2199.2 667.907C2198.59 667.652 2197.97 667.758 2197.81 668.142C2197.65 668.527 2198.01 669.045 2198.62 669.3L2207.44 672.992L2205.11 678.564C2204.95 678.949 2205.32 679.468 2205.93 679.722C2206.53 679.977 2207.16 679.872 2207.32 679.487L2209.94 673.219ZM2023.64 704.883L2209.41 673.576L2208.27 671.938L2022.49 703.245L2023.64 704.883Z" fill="#79E59B"/>
<path d="M2425.57 694.8C2425.88 694.398 2425.75 693.779 2425.28 693.416L2417.61 687.512C2417.14 687.15 2416.51 687.182 2416.2 687.584C2415.89 687.986 2416.02 688.605 2416.49 688.968L2423.31 694.216L2418.83 700.037C2418.52 700.439 2418.65 701.059 2419.12 701.421C2419.59 701.783 2420.22 701.751 2420.53 701.349L2425.57 694.8ZM2229.53 705.042L2424.93 695.122L2424.52 693.166L2229.12 703.086L2229.53 705.042Z" fill="#79E59B"/>
<path d="M2630.56 718.413C2631.06 718.066 2631.24 717.458 2630.96 717.055L2626.39 710.501C2626.11 710.099 2625.48 710.054 2624.98 710.402C2624.48 710.75 2624.3 711.358 2624.58 711.76L2628.64 717.586L2621.42 722.622C2620.92 722.97 2620.74 723.577 2621.02 723.98C2621.3 724.382 2621.93 724.426 2622.43 724.078L2630.56 718.413ZM2435.31 705.024L2629.77 718.645L2630.33 716.725L2435.87 703.104L2435.31 705.024Z" fill="#79E59B"/>
<path d="M2822.65 742.662C2823.29 742.448 2823.7 741.971 2823.58 741.597L2821.54 735.496C2821.41 735.122 2820.79 734.992 2820.15 735.206C2819.51 735.42 2819.1 735.896 2819.22 736.271L2821.04 741.694L2811.78 744.791C2811.14 745.005 2810.72 745.482 2810.85 745.856C2810.98 746.231 2811.6 746.361 2812.23 746.147L2822.65 742.662ZM2641.19 704.817L2821.76 742.737L2823.08 741.231L2642.51 703.311L2641.19 704.817Z" fill="#79E59B"/>
<path d="M3001.14 765.116C3001.83 765.056 3002.37 764.727 3002.34 764.38L3001.86 758.734C3001.83 758.387 3001.24 758.155 3000.55 758.214C2999.85 758.274 2999.31 758.603 2999.34 758.95L2999.77 763.969L2989.67 764.831C2988.98 764.891 2988.44 765.22 2988.46 765.567C2988.49 765.913 2989.08 766.146 2989.78 766.086L3001.14 765.116ZM2847.26 704.584L3000.23 765.008L3001.94 763.968L2848.96 703.544L2847.26 704.584Z" fill="#79E59B"/>
<path d="M3169.75 782.617C3170.45 782.704 3171.04 782.492 3171.09 782.142L3171.81 776.447C3171.85 776.098 3171.33 775.743 3170.63 775.656C3169.94 775.569 3169.35 775.781 3169.3 776.131L3168.66 781.193L3158.64 779.927C3157.95 779.84 3157.36 780.052 3157.31 780.402C3157.27 780.751 3157.79 781.105 3158.48 781.193L3169.75 782.617ZM3053.43 704.4L3168.89 782.32L3170.78 781.649L3055.31 703.728L3053.43 704.4Z" fill="#79E59B"/>
<path d="M78.4385 718.536C77.7794 718.358 77.1647 718.51 77.0657 718.876L75.451 724.84C75.352 725.206 75.806 725.647 76.4651 725.825C77.1242 726.004 77.7389 725.852 77.8379 725.486L79.2732 720.185L88.8208 722.77C89.4799 722.948 90.0946 722.796 90.1936 722.43C90.2927 722.064 89.8387 721.623 89.1796 721.445L78.4385 718.536ZM167.694 804.954L79.2299 718.959L77.2883 719.439L165.753 805.434L167.694 804.954Z" fill="#79E59B"/>
<path d="M315.611 712.423C315.018 712.15 314.392 712.245 314.213 712.634L311.299 718.974C311.121 719.364 311.457 719.9 312.05 720.173C312.644 720.446 313.27 720.351 313.449 719.962L316.039 714.326L324.636 718.277C325.23 718.549 325.856 718.455 326.035 718.066C326.213 717.677 325.877 717.14 325.284 716.868L315.611 712.423ZM373.973 805.045L316.276 712.979L314.299 713.277L371.995 805.343L373.973 805.045Z" fill="#79E59B"/>
<path d="M554.854 708.929C554.365 708.576 553.733 708.615 553.442 709.018L548.697 715.574C548.406 715.976 548.565 716.589 549.054 716.942C549.542 717.296 550.174 717.256 550.465 716.854L554.683 711.026L561.757 716.146C562.245 716.499 562.877 716.46 563.168 716.057C563.459 715.655 563.3 715.042 562.811 714.689L554.854 708.929ZM580.243 805.132L555.324 709.595L553.328 709.72L578.247 805.257L580.243 805.132Z" fill="#79E59B"/>
<path d="M795.324 708.294C794.97 707.896 794.337 707.882 793.91 708.262L786.952 714.454C786.525 714.834 786.466 715.464 786.82 715.862C787.174 716.26 787.807 716.274 788.234 715.894L794.418 710.39L799.544 716.15C799.898 716.547 800.531 716.562 800.958 716.182C801.385 715.802 801.444 715.171 801.091 714.774L795.324 708.294ZM786.505 805.217L795.551 709.004L793.551 708.959L784.505 805.172L786.505 805.217Z" fill="#79E59B"/>
<path d="M1036.07 710.685C1035.85 710.288 1035.22 710.218 1034.67 710.529L1025.68 715.608C1025.13 715.919 1024.86 716.494 1025.09 716.892C1025.31 717.29 1025.94 717.36 1026.49 717.048L1034.48 712.534L1037.74 718.294C1037.96 718.692 1038.59 718.762 1039.14 718.45C1039.69 718.138 1039.96 717.563 1039.73 717.166L1036.07 710.685ZM992.76 805.304L1036.07 711.36L1034.08 711.139L990.772 805.084L992.76 805.304Z" fill="#79E59B"/>
<path d="M1276.1 716.182C1275.98 715.807 1275.36 715.678 1274.72 715.893L1264.32 719.399C1263.68 719.614 1263.27 720.092 1263.39 720.467C1263.52 720.842 1264.14 720.971 1264.78 720.756L1274.02 717.639L1275.85 723.067C1275.98 723.442 1276.6 723.571 1277.24 723.356C1277.87 723.141 1278.29 722.662 1278.16 722.288L1276.1 716.182ZM1199 805.399L1275.93 716.776L1273.97 716.367L1197.05 804.99L1199 805.399Z" fill="#79E59B"/>
<path d="M1514.41 724.828C1514.35 724.475 1513.75 724.279 1513.06 724.389L1501.89 726.187C1501.2 726.297 1500.69 726.673 1500.75 727.025C1500.81 727.378 1501.41 727.575 1502.09 727.464L1512.03 725.866L1512.85 730.976C1512.91 731.329 1513.51 731.525 1514.19 731.415C1514.88 731.304 1515.39 730.929 1515.33 730.576L1514.41 724.828ZM1405.24 805.505L1514.12 725.338L1512.21 724.717L1403.34 804.884L1405.24 805.505Z" fill="#79E59B"/>
<path d="M1749.88 736.677C1749.88 736.333 1749.31 736.057 1748.61 736.06L1737.18 736.114C1736.48 736.117 1735.92 736.399 1735.92 736.743C1735.92 737.087 1736.49 737.363 1737.19 737.359L1747.35 737.311L1747.37 742.292C1747.37 742.636 1747.94 742.912 1748.64 742.909C1749.35 742.905 1749.91 742.624 1749.91 742.28L1749.88 736.677ZM1611.45 805.63L1749.51 737.119L1747.71 736.247L1609.65 804.758L1611.45 805.63Z" fill="#79E59B"/>
<path d="M1981.27 751.8C1981.33 751.447 1980.82 751.073 1980.13 750.964L1968.95 749.19C1968.26 749.081 1967.66 749.279 1967.6 749.631C1967.55 749.984 1968.06 750.358 1968.75 750.467L1978.68 752.044L1977.87 757.15C1977.82 757.503 1978.33 757.877 1979.01 757.986C1979.7 758.095 1980.3 757.897 1980.36 757.545L1981.27 751.8ZM1817.61 805.785L1980.83 752.193L1979.22 751.012L1816 804.604L1817.61 805.785Z" fill="#79E59B"/>
<path d="M2206.96 770.289C2207.09 769.91 2206.7 769.417 2206.07 769.186L2195.83 765.434C2195.21 765.204 2194.58 765.324 2194.45 765.703C2194.31 766.081 2194.7 766.575 2195.33 766.805L2204.43 770.14L2202.42 775.622C2202.28 776.001 2202.68 776.494 2203.31 776.724C2203.94 776.955 2204.56 776.834 2204.7 776.456L2206.96 770.289ZM2023.69 805.974L2206.45 770.651L2205.19 769.092L2022.44 804.415L2023.69 805.974Z" fill="#79E59B"/>
<path d="M2424.7 792.203C2424.98 791.801 2424.8 791.193 2424.3 790.845L2416.17 785.18C2415.67 784.832 2415.04 784.876 2414.76 785.279C2414.48 785.681 2414.66 786.289 2415.16 786.636L2422.38 791.672L2418.32 797.498C2418.04 797.901 2418.22 798.509 2418.72 798.856C2419.22 799.204 2419.85 799.16 2420.13 798.757L2424.7 792.203ZM2229.61 806.154L2424.07 792.533L2423.51 790.613L2229.05 804.234L2229.61 806.154Z" fill="#79E59B"/>
<path d="M2631.18 817.354C2631.66 816.997 2631.81 816.382 2631.51 815.98L2626.67 809.425C2626.37 809.022 2625.74 808.985 2625.25 809.342C2624.77 809.698 2624.62 810.314 2624.92 810.716L2629.23 816.543L2622.24 821.708C2621.76 822.064 2621.61 822.679 2621.9 823.082C2622.2 823.484 2622.83 823.521 2623.32 823.164L2631.18 817.354ZM2435.35 806.166L2630.4 817.597L2630.88 815.654L2435.83 804.223L2435.35 806.166Z" fill="#79E59B"/>
<path d="M2821.72 844.829C2822.36 844.622 2822.78 844.151 2822.66 843.779L2820.71 837.705C2820.59 837.332 2819.97 837.198 2819.33 837.405C2818.68 837.612 2818.26 838.082 2818.38 838.455L2820.12 843.854L2810.8 846.856C2810.16 847.063 2809.73 847.533 2809.85 847.906C2809.97 848.278 2810.59 848.413 2811.23 848.205L2821.72 844.829ZM2641.18 805.937L2820.83 844.896L2822.17 843.411L2642.52 804.452L2641.18 805.937Z" fill="#79E59B"/>
<path d="M2991.55 871.632C2992.25 871.614 2992.81 871.32 2992.8 870.976L2992.65 865.369C2992.64 865.025 2992.07 864.76 2991.37 864.779C2990.67 864.797 2990.11 865.091 2990.12 865.435L2990.25 870.419L2980.09 870.685C2979.39 870.704 2978.83 870.997 2978.84 871.341C2978.85 871.686 2979.43 871.95 2980.13 871.931L2991.55 871.632ZM2847.22 805.658L2990.65 871.473L2992.42 870.545L2849 804.73L2847.22 805.658Z" fill="#79E59B"/>
<path d="M3143.37 891.673C3144.04 891.849 3144.65 891.696 3144.75 891.33L3146.34 885.375C3146.43 885.01 3145.98 884.571 3145.32 884.395C3144.66 884.218 3144.04 884.372 3143.94 884.737L3142.53 890.031L3132.97 887.48C3132.31 887.303 3131.69 887.457 3131.6 887.822C3131.5 888.188 3131.95 888.627 3132.61 888.803L3143.37 891.673ZM3053.4 805.437L3142.58 891.254L3144.52 890.769L3055.34 804.952L3053.4 805.437Z" fill="#79E59B"/>
<path d="M71.1925 821.554C70.5225 821.399 69.9118 821.566 69.8284 821.927L68.4694 827.807C68.386 828.168 68.8615 828.586 69.5315 828.741C70.2015 828.896 70.8122 828.729 70.8956 828.368L72.1036 823.141L81.8087 825.384C82.4787 825.539 83.0894 825.372 83.1728 825.011C83.2562 824.65 82.7807 824.232 82.1107 824.077L71.1925 821.554ZM167.688 906.06L72.0061 821.943L70.0769 822.471L165.759 906.588L167.688 906.06Z" fill="#79E59B"/>
<path d="M307.271 814.914C306.657 814.665 306.033 814.774 305.878 815.157L303.353 821.4C303.198 821.783 303.57 822.295 304.185 822.543C304.799 822.792 305.423 822.683 305.578 822.3L307.822 816.751L316.723 820.351C317.337 820.599 317.961 820.49 318.116 820.107C318.271 819.724 317.898 819.212 317.284 818.964L307.271 814.914ZM373.969 906.152L307.976 815.435L306.005 815.78L371.999 906.496L373.969 906.152Z" fill="#79E59B"/>
<path d="M545.506 810.754C544.984 810.421 544.353 810.475 544.097 810.877L539.915 817.413C539.659 817.814 539.874 818.41 540.395 818.743C540.917 819.077 541.547 819.022 541.804 818.621L545.521 812.811L553.075 817.644C553.597 817.977 554.228 817.923 554.484 817.522C554.741 817.121 554.526 816.525 554.005 816.191L545.506 810.754ZM580.241 906.238L546.037 811.394L544.045 811.567L578.248 906.411L580.241 906.238Z" fill="#79E59B"/>
<path d="M785.113 809.302C784.718 808.913 784.085 808.915 783.699 809.306L777.407 815.687C777.021 816.079 777.028 816.712 777.423 817.101C777.818 817.491 778.451 817.489 778.837 817.097L784.43 811.425L790.151 817.067C790.546 817.456 791.179 817.454 791.565 817.063C791.951 816.671 791.944 816.038 791.549 815.649L785.113 809.302ZM786.505 906.321L785.414 810.009L783.414 810.014L784.505 906.327L786.505 906.321Z" fill="#79E59B"/>
<path d="M1025.21 810.727C1024.95 810.325 1024.32 810.274 1023.8 810.611L1015.4 816.11C1014.89 816.447 1014.68 817.047 1014.94 817.448C1015.21 817.85 1015.84 817.901 1016.35 817.564L1023.82 812.676L1027.63 818.492C1027.89 818.893 1028.52 818.945 1029.04 818.608C1029.55 818.27 1029.76 817.671 1029.5 817.27L1025.21 810.727ZM992.762 906.406L1025.28 811.42L1023.28 811.256L990.769 906.242L992.762 906.406Z" fill="#79E59B"/>
<path d="M1264.88 815.112C1264.72 814.729 1264.1 814.62 1263.49 814.87L1253.48 818.932C1252.87 819.181 1252.5 819.694 1252.65 820.077C1252.81 820.46 1253.43 820.569 1254.05 820.32L1262.94 816.709L1265.19 822.261C1265.35 822.644 1265.97 822.752 1266.59 822.503C1267.2 822.254 1267.57 821.741 1267.42 821.358L1264.88 815.112ZM1199.01 906.496L1264.75 815.735L1262.78 815.392L1197.04 906.153L1199.01 906.496Z" fill="#79E59B"/>
<path d="M1503.19 822.494C1503.11 822.135 1502.5 821.963 1501.83 822.112L1490.87 824.527C1490.19 824.675 1489.71 825.086 1489.79 825.446C1489.87 825.805 1490.48 825.977 1491.15 825.829L1500.9 823.682L1502.04 828.889C1502.12 829.249 1502.73 829.42 1503.41 829.272C1504.08 829.124 1504.56 828.712 1504.48 828.353L1503.19 822.494ZM1405.25 906.595L1502.93 823.033L1501.01 822.492L1403.32 906.054L1405.25 906.595Z" fill="#79E59B"/>
<path d="M1739.19 832.923C1739.17 832.578 1738.59 832.334 1737.89 832.378L1726.5 833.1C1725.8 833.145 1725.25 833.461 1725.27 833.806C1725.29 834.151 1725.88 834.395 1726.58 834.351L1736.7 833.709L1737.02 838.711C1737.04 839.056 1737.62 839.3 1738.32 839.256C1739.02 839.212 1739.57 838.896 1739.55 838.55L1739.19 832.923ZM1611.47 906.71L1738.85 833.389L1737 832.618L1609.62 905.939L1611.47 906.71Z" fill="#79E59B"/>
<path d="M1971.83 846.5C1971.86 846.153 1971.32 845.82 1970.63 845.757L1959.28 844.728C1958.59 844.665 1958 844.895 1957.96 845.242C1957.93 845.588 1958.47 845.921 1959.17 845.984L1969.25 846.899L1968.8 851.923C1968.77 852.27 1969.31 852.602 1970 852.665C1970.7 852.728 1971.29 852.498 1971.32 852.151L1971.83 846.5ZM1817.66 906.849L1971.42 846.91L1969.72 845.86L1815.96 905.799L1817.66 906.849Z" fill="#79E59B"/>
<path d="M2199.81 863.425C2199.91 863.059 2199.45 862.617 2198.79 862.438L2188.06 859.513C2187.4 859.334 2186.79 859.485 2186.69 859.851C2186.59 860.218 2187.04 860.66 2187.7 860.839L2197.24 863.439L2195.8 868.743C2195.7 869.109 2196.15 869.551 2196.81 869.731C2197.47 869.91 2198.08 869.759 2198.18 869.393L2199.81 863.425ZM2023.78 907.023L2199.33 863.799L2197.9 862.402L2022.35 905.626L2023.78 907.023Z" fill="#79E59B"/>
<path d="M2421.21 884.088C2421.42 883.692 2421.14 883.125 2420.58 882.822L2411.43 877.876C2410.87 877.573 2410.24 877.648 2410.02 878.044C2409.81 878.44 2410.09 879.007 2410.65 879.311L2418.79 883.707L2415.69 889.444C2415.47 889.84 2415.75 890.407 2416.31 890.71C2416.88 891.014 2417.5 890.939 2417.72 890.543L2421.21 884.088ZM2229.77 907.22L2420.64 884.435L2419.75 882.643L2228.88 905.429L2229.77 907.22Z" fill="#79E59B"/>
<path d="M2632.66 909.123C2633.06 908.737 2633.09 908.104 2632.72 907.71L2626.64 901.284C2626.26 900.89 2625.63 900.883 2625.22 901.269C2624.81 901.655 2624.79 902.288 2625.16 902.682L2630.57 908.394L2624.66 913.985C2624.25 914.371 2624.23 915.003 2624.6 915.398C2624.97 915.792 2625.6 915.799 2626.01 915.413L2632.66 909.123ZM2435.54 907.323L2631.94 909.408L2632.03 907.41L2435.63 905.325L2435.54 907.323Z" fill="#79E59B"/>
<path d="M2827.25 939.239C2827.87 938.989 2828.24 938.476 2828.08 938.093L2825.54 931.847C2825.39 931.464 2824.76 931.355 2824.15 931.605C2823.54 931.854 2823.17 932.367 2823.32 932.75L2825.58 938.302L2816.69 941.914C2816.07 942.164 2815.7 942.676 2815.86 943.06C2816.01 943.443 2816.64 943.552 2817.25 943.302L2827.25 939.239ZM2641.26 907.134L2826.38 939.355L2827.56 937.735L2642.44 905.514L2641.26 907.134Z" fill="#79E59B"/>
<path d="M2991.06 973.014C2991.76 972.998 2992.33 972.706 2992.32 972.362L2992.19 966.755C2992.18 966.411 2991.6 966.145 2990.9 966.162C2990.2 966.178 2989.64 966.47 2989.65 966.814L2989.76 971.798L2979.61 972.035C2978.91 972.051 2978.35 972.343 2978.36 972.687C2978.36 973.031 2978.94 973.297 2979.64 973.281L2991.06 973.014ZM2847.22 906.786L2990.16 972.853L2991.94 971.93L2849 905.863L2847.22 906.786Z" fill="#79E59B"/>
<path d="M3114.77 998.626C3115.37 998.89 3115.99 998.79 3116.16 998.403L3118.93 992.097C3119.1 991.71 3118.75 991.182 3118.15 990.918C3117.55 990.654 3116.92 990.754 3116.75 991.141L3114.29 996.746L3105.58 992.921C3104.98 992.657 3104.35 992.756 3104.18 993.143C3104.01 993.53 3104.36 994.058 3104.97 994.322L3114.77 998.626ZM3053.38 906.481L3114.09 998.082L3116.06 997.768L3055.36 906.167L3053.38 906.481Z" fill="#79E59B"/>
<path d="M62.0608 925.343C61.3794 925.219 60.7745 925.406 60.7097 925.761L59.6538 931.547C59.589 931.902 60.0888 932.291 60.7702 932.415C61.4516 932.539 62.0565 932.352 62.1213 931.997L63.06 926.854L72.9302 928.655C73.6116 928.78 74.2165 928.593 74.2813 928.238C74.3461 927.882 73.8462 927.494 73.1648 927.369L62.0608 925.343ZM167.679 1007.16L62.8989 925.69L60.9881 926.281L165.768 1007.75L167.679 1007.16Z" fill="#79E59B"/>
<path d="M296.627 918.083C295.99 917.867 295.37 917.996 295.242 918.371L293.171 924.481C293.043 924.856 293.457 925.335 294.095 925.551C294.733 925.767 295.352 925.639 295.48 925.264L297.321 919.832L306.557 922.964C307.195 923.18 307.815 923.052 307.942 922.677C308.069 922.302 307.655 921.823 307.018 921.606L296.627 918.083ZM373.963 1007.25L297.376 918.559L295.418 918.965L372.005 1007.66L373.963 1007.25Z" fill="#79E59B"/>
<path d="M533.407 913.128C532.846 912.824 532.218 912.898 532.003 913.294L528.501 919.751C528.286 920.147 528.566 920.715 529.127 921.019C529.688 921.323 530.317 921.248 530.531 920.852L533.644 915.113L541.766 919.518C542.327 919.822 542.956 919.748 543.171 919.352C543.386 918.955 543.105 918.388 542.544 918.084L533.407 913.128ZM580.238 1007.34L534.011 913.727L532.025 913.963L578.252 1007.57L580.238 1007.34Z" fill="#79E59B"/>
<path d="M771.673 910.676C771.224 910.304 770.592 910.327 770.259 910.727L764.845 917.25C764.513 917.65 764.607 918.276 765.055 918.648C765.504 919.021 766.136 918.998 766.469 918.597L771.281 912.799L777.775 918.189C778.223 918.561 778.856 918.538 779.188 918.138C779.521 917.738 779.426 917.111 778.978 916.739L771.673 910.676ZM786.504 1007.42L772.07 911.365L770.072 911.437L784.506 1007.49L786.504 1007.42Z" fill="#79E59B"/>
<path d="M1010.62 910.883C1010.3 910.482 1009.67 910.453 1009.2 910.819L1001.67 916.787C1001.21 917.153 1001.09 917.775 1001.41 918.177C1001.73 918.578 1002.36 918.607 1002.82 918.24L1009.52 912.936L1014.13 918.751C1014.44 919.152 1015.08 919.181 1015.54 918.815C1016 918.448 1016.12 917.826 1015.8 917.425L1010.62 910.883ZM992.765 1007.5L1010.78 911.591L1008.78 911.501L990.767 1007.41L992.765 1007.5Z" fill="#79E59B"/>
<path d="M1249.38 913.823C1249.18 913.429 1248.55 913.347 1247.98 913.64L1238.64 918.419C1238.07 918.712 1237.77 919.269 1237.97 919.663C1238.17 920.057 1238.8 920.139 1239.37 919.845L1247.67 915.598L1250.59 921.303C1250.79 921.697 1251.42 921.779 1251.99 921.485C1252.57 921.192 1252.87 920.635 1252.67 920.241L1249.38 913.823ZM1199.02 1007.58L1249.33 914.482L1247.35 914.225L1197.03 1007.33L1199.02 1007.58Z" fill="#79E59B"/>
<path d="M1487.12 919.495C1487.01 919.124 1486.39 918.985 1485.74 919.186L1475.19 922.449C1474.55 922.649 1474.11 923.112 1474.23 923.483C1474.34 923.854 1474.96 923.993 1475.61 923.793L1484.99 920.892L1486.65 926.267C1486.76 926.638 1487.38 926.776 1488.03 926.576C1488.68 926.376 1489.11 925.913 1488.99 925.542L1487.12 919.495ZM1405.26 1007.67L1486.93 920.076L1484.97 919.639L1403.31 1007.24L1405.26 1007.67Z" fill="#79E59B"/>
<path d="M1723.03 927.885C1722.98 927.534 1722.38 927.332 1721.69 927.434L1710.48 929.099C1709.79 929.201 1709.27 929.569 1709.33 929.921C1709.38 930.272 1709.98 930.474 1710.67 930.372L1720.63 928.892L1721.39 933.984C1721.44 934.335 1722.04 934.538 1722.73 934.435C1723.42 934.333 1723.93 933.965 1723.88 933.614L1723.03 927.885ZM1611.49 1007.77L1722.73 928.39L1720.84 927.751L1609.6 1007.14L1611.49 1007.77Z" fill="#79E59B"/>
<path d="M1956.29 939.01C1956.29 938.666 1955.72 938.39 1955.02 938.393L1943.59 938.437C1942.89 938.44 1942.32 938.721 1942.33 939.065C1942.33 939.409 1942.9 939.685 1943.6 939.682L1953.76 939.643L1953.78 944.624C1953.78 944.967 1954.35 945.244 1955.05 945.241C1955.75 945.238 1956.32 944.957 1956.32 944.614L1956.29 939.01ZM1817.71 1007.89L1955.92 939.452L1954.12 938.578L1815.91 1007.02L1817.71 1007.89Z" fill="#79E59B"/>
<path d="M2186.05 952.973C2186.1 952.621 2185.58 952.254 2184.89 952.153L2173.68 950.502C2172.99 950.401 2172.39 950.604 2172.34 950.955C2172.29 951.306 2172.8 951.673 2173.49 951.775L2183.46 953.242L2182.71 958.332C2182.66 958.683 2183.18 959.05 2183.86 959.152C2184.55 959.253 2185.15 959.05 2185.2 958.699L2186.05 952.973ZM2023.88 1008.03L2185.61 953.369L2183.98 952.21L2022.25 1006.88L2023.88 1008.03Z" fill="#79E59B"/>
<path d="M2411.21 970.1C2411.34 969.726 2410.92 969.248 2410.28 969.033L2399.88 965.529C2399.24 965.314 2398.62 965.444 2398.5 965.818C2398.37 966.193 2398.78 966.671 2399.42 966.886L2408.67 970L2406.84 975.427C2406.72 975.802 2407.13 976.28 2407.77 976.495C2408.41 976.709 2409.03 976.58 2409.15 976.205L2411.21 970.1ZM2229.98 1008.21L2410.71 970.466L2409.4 968.956L2228.67 1006.7L2229.98 1008.21Z" fill="#79E59B"/>
<path d="M2629.97 991.292C2630.23 990.891 2630.01 990.295 2629.49 989.962L2620.99 984.524C2620.47 984.191 2619.84 984.245 2619.58 984.647C2619.33 985.048 2619.54 985.643 2620.06 985.977L2627.62 990.81L2623.9 996.62C2623.64 997.021 2623.86 997.617 2624.38 997.95C2624.9 998.284 2625.53 998.229 2625.79 997.828L2629.97 991.292ZM2435.93 1008.4L2629.37 991.629L2628.69 989.747L2435.25 1006.51L2435.93 1008.4Z" fill="#79E59B"/>
<path d="M2837.6 1018.99C2838.07 1018.63 2838.22 1018.01 2837.91 1017.61L2832.99 1011.06C2832.68 1010.65 2832.05 1010.62 2831.57 1010.98C2831.1 1011.34 2830.95 1011.95 2831.26 1012.36L2835.64 1018.18L2828.72 1023.38C2828.24 1023.74 2828.1 1024.36 2828.4 1024.76C2828.7 1025.16 2829.34 1025.2 2829.81 1024.84L2837.6 1018.99ZM2641.63 1008.43L2836.82 1019.23L2837.27 1017.28L2642.07 1006.48L2641.63 1008.43Z" fill="#79E59B"/>
<path d="M3014.32 1059.52C3015 1059.4 3015.5 1059.01 3015.44 1058.66L3014.38 1052.87C3014.32 1052.52 3013.72 1052.33 3013.03 1052.45C3012.35 1052.58 3011.85 1052.97 3011.92 1053.32L3012.85 1058.46L3002.98 1060.26C3002.3 1060.38 3001.8 1060.77 3001.86 1061.13C3001.93 1061.48 3002.53 1061.67 3003.21 1061.54L3014.32 1059.52ZM2847.32 1008.07L3013.41 1059.49L3014.99 1058.27L2848.9 1006.84L2847.32 1008.07Z" fill="#79E59B"/>
<path d="M3084.61 1103.31C3085.12 1103.65 3085.75 1103.6 3086.02 1103.2L3090.41 1096.65C3090.68 1096.25 3090.49 1095.65 3089.98 1095.31C3089.47 1094.97 3088.84 1095.02 3088.57 1095.42L3084.67 1101.24L3077.29 1096.29C3076.78 1095.95 3076.15 1096 3075.88 1096.4C3075.61 1096.8 3075.8 1097.41 3076.31 1097.75L3084.61 1103.31ZM3053.37 1007.53L3084.1 1102.66L3086.1 1102.51L3055.37 1007.38L3053.37 1007.53Z" fill="#79E59B"/>
<path d="M51.3399 1030.03C50.6483 1029.95 50.0519 1030.16 50.0077 1030.51L49.2879 1036.2C49.2437 1036.55 49.7686 1036.91 50.4602 1036.99C51.1518 1037.08 51.7482 1036.87 51.7924 1036.52L52.4322 1031.46L62.4501 1032.72C63.1416 1032.81 63.7381 1032.6 63.7823 1032.25C63.8264 1031.9 63.3016 1031.54 62.61 1031.46L51.3399 1030.03ZM167.666 1108.25L52.202 1030.33L50.3179 1031L165.782 1108.92L167.666 1108.25Z" fill="#79E59B"/>
<path d="M283.979 1022.11C283.319 1021.93 282.705 1022.08 282.607 1022.45L281.019 1028.4C280.921 1028.77 281.378 1029.21 282.038 1029.39C282.698 1029.56 283.312 1029.41 283.41 1029.04L284.822 1023.75L294.386 1026.3C295.047 1026.48 295.661 1026.32 295.758 1025.96C295.856 1025.59 295.4 1025.15 294.739 1024.98L283.979 1022.11ZM373.954 1108.34L284.773 1022.53L282.833 1023.01L372.014 1108.83L373.954 1108.34Z" fill="#79E59B"/>
<path d="M518.849 1016.28C518.248 1016.02 517.623 1016.12 517.453 1016.51L514.684 1022.81C514.514 1023.2 514.863 1023.73 515.465 1023.99C516.066 1024.26 516.692 1024.16 516.861 1023.77L519.323 1018.16L528.034 1021.99C528.636 1022.25 529.261 1022.15 529.431 1021.77C529.601 1021.38 529.251 1020.85 528.65 1020.59L518.849 1016.28ZM580.232 1108.43L519.529 1016.83L517.554 1017.14L578.257 1108.74L580.232 1108.43Z" fill="#79E59B"/>
<path d="M755.263 1012.73C754.754 1012.39 754.122 1012.44 753.853 1012.84L749.464 1019.39C749.195 1019.79 749.39 1020.39 749.899 1020.73C750.409 1021.07 751.04 1021.03 751.309 1020.62L755.21 1014.8L762.589 1019.75C763.098 1020.09 763.73 1020.04 763.999 1019.64C764.268 1019.24 764.073 1018.63 763.564 1018.29L755.263 1012.73ZM786.502 1108.51L755.772 1013.38L753.778 1013.53L784.508 1108.66L786.502 1108.51Z" fill="#79E59B"/>
<path d="M992.267 1011.76C991.877 1011.37 991.243 1011.37 990.853 1011.76L984.489 1018.12C984.098 1018.51 984.098 1019.15 984.489 1019.54C984.88 1019.93 985.513 1019.93 985.903 1019.54L991.56 1013.88L997.217 1019.54C997.607 1019.93 998.241 1019.93 998.631 1019.54C999.022 1019.15 999.022 1018.51 998.631 1018.12L992.267 1011.76ZM992.56 1108.51L992.56 1012.47L990.56 1012.47L990.56 1108.51L992.56 1108.51Z" fill="#79E59B"/>
<path d="M1229.68 1012.84C1229.41 1012.44 1228.78 1012.39 1228.27 1012.73L1219.97 1018.29C1219.46 1018.63 1219.26 1019.24 1219.53 1019.64C1219.8 1020.04 1220.43 1020.09 1220.94 1019.75L1228.32 1014.8L1232.22 1020.62C1232.49 1021.03 1233.12 1021.07 1233.63 1020.73C1234.14 1020.39 1234.34 1019.79 1234.07 1019.39L1229.68 1012.84ZM1199.02 1108.66L1229.75 1013.53L1227.76 1013.38L1197.03 1108.51L1199.02 1108.66Z" fill="#79E59B"/>
<path d="M1466.08 1016.51C1465.91 1016.12 1465.28 1016.02 1464.68 1016.28L1454.88 1020.59C1454.28 1020.85 1453.93 1021.38 1454.1 1021.77C1454.27 1022.15 1454.9 1022.25 1455.5 1021.99L1464.21 1018.16L1466.67 1023.77C1466.84 1024.16 1467.46 1024.26 1468.07 1023.99C1468.67 1023.73 1469.02 1023.2 1468.85 1022.81L1466.08 1016.51ZM1405.27 1108.74L1465.98 1017.14L1464 1016.83L1403.3 1108.43L1405.27 1108.74Z" fill="#79E59B"/>
<path d="M1700.92 1022.45C1700.83 1022.08 1700.21 1021.93 1699.55 1022.11L1688.79 1024.98C1688.13 1025.15 1687.67 1025.59 1687.77 1025.96C1687.87 1026.32 1688.48 1026.48 1689.14 1026.3L1698.71 1023.75L1700.12 1029.04C1700.22 1029.41 1700.83 1029.56 1701.49 1029.39C1702.15 1029.21 1702.61 1028.77 1702.51 1028.4L1700.92 1022.45ZM1611.52 1108.83L1700.7 1023.01L1698.76 1022.53L1609.58 1108.34L1611.52 1108.83Z" fill="#79E59B"/>
<path d="M1933.52 1030.51C1933.48 1030.16 1932.88 1029.95 1932.19 1030.03L1920.92 1031.46C1920.23 1031.54 1919.7 1031.9 1919.75 1032.25C1919.79 1032.6 1920.39 1032.81 1921.08 1032.72L1931.1 1031.46L1931.74 1036.52C1931.78 1036.87 1932.38 1037.08 1933.07 1036.99C1933.76 1036.91 1934.29 1036.55 1934.24 1036.2L1933.52 1030.51ZM1817.75 1108.92L1933.21 1031L1931.33 1030.33L1815.87 1108.25L1817.75 1108.92Z" fill="#79E59B"/>
<path d="M2163.24 1040.48C2163.24 1040.14 2162.67 1039.86 2161.97 1039.86L2150.54 1039.86C2149.84 1039.86 2149.27 1040.14 2149.27 1040.48C2149.27 1040.82 2149.84 1041.1 2150.54 1041.1L2160.7 1041.1L2160.7 1046.08C2160.7 1046.43 2161.27 1046.71 2161.97 1046.71C2162.67 1046.71 2163.24 1046.43 2163.24 1046.08L2163.24 1040.48ZM2023.97 1109.03L2162.87 1040.92L2161.07 1040.04L2022.17 1108.15L2023.97 1109.03Z" fill="#79E59B"/>
<path d="M2389.5 1052.13C2389.55 1051.78 2389.02 1051.43 2388.33 1051.34L2377.06 1049.92C2376.37 1049.83 2375.77 1050.04 2375.73 1050.39C2375.68 1050.74 2376.21 1051.09 2376.9 1051.18L2386.92 1052.45L2386.28 1057.51C2386.23 1057.86 2386.76 1058.21 2387.45 1058.3C2388.14 1058.39 2388.74 1058.18 2388.78 1057.83L2389.5 1052.13ZM2230.16 1109.14L2389.08 1052.53L2387.42 1051.41L2228.5 1108.03L2230.16 1109.14Z" fill="#79E59B"/>
<path d="M2611.81 1065.18C2611.91 1064.81 2611.45 1064.37 2610.79 1064.2L2600.03 1061.33C2599.37 1061.15 2598.76 1061.3 2598.66 1061.67C2598.56 1062.04 2599.02 1062.47 2599.68 1062.65L2609.24 1065.2L2607.83 1070.5C2607.73 1070.86 2608.19 1071.3 2608.85 1071.48C2609.51 1071.65 2610.13 1071.5 2610.22 1071.13L2611.81 1065.18ZM2436.31 1109.28L2611.34 1065.55L2609.9 1064.17L2434.87 1107.89L2436.31 1109.28Z" fill="#79E59B"/>
<path d="M2829.76 1079.3C2829.93 1078.91 2829.58 1078.39 2828.98 1078.12L2819.18 1073.82C2818.58 1073.55 2817.95 1073.65 2817.78 1074.04C2817.61 1074.43 2817.96 1074.96 2818.57 1075.22L2827.28 1079.05L2824.82 1084.65C2824.65 1085.04 2825 1085.57 2825.6 1085.83C2826.2 1086.09 2826.82 1085.99 2826.99 1085.61L2829.76 1079.3ZM2642.4 1109.42L2829.23 1079.66L2828.12 1077.99L2641.3 1107.75L2642.4 1109.42Z" fill="#79E59B"/>
<path d="M3043.05 1094.14C3043.32 1093.73 3043.13 1093.13 3042.62 1092.79L3034.32 1087.23C3033.81 1086.89 3033.18 1086.94 3032.91 1087.34C3032.64 1087.74 3032.83 1088.34 3033.34 1088.68L3040.72 1093.63L3036.82 1099.45C3036.55 1099.85 3036.74 1100.45 3037.25 1100.79C3037.76 1101.14 3038.39 1101.09 3038.66 1100.69L3043.05 1094.14ZM2848.42 1109.54L3042.44 1094.47L3041.82 1092.57L2847.8 1107.63L2848.42 1109.54Z" fill="#79E59B"/>
<path d="M39.4304 1135.75C38.7316 1135.71 38.1473 1135.95 38.1253 1136.3L37.767 1141.92C37.745 1142.27 38.2937 1142.58 38.9925 1142.63C39.6913 1142.67 40.2756 1142.43 40.2976 1142.08L40.616 1137.08L50.7383 1137.73C51.4371 1137.77 52.0214 1137.53 52.0434 1137.18C52.0654 1136.84 51.5168 1136.52 50.818 1136.48L39.4304 1135.75ZM167.646 1209.33L40.3134 1135.99L38.4677 1136.76L165.801 1210.1L167.646 1209.33Z" fill="#79E59B"/>
<path d="M269.754 1127.17C269.075 1127.04 268.469 1127.22 268.401 1127.58L267.299 1133.38C267.231 1133.73 267.727 1134.13 268.407 1134.25C269.087 1134.38 269.693 1134.2 269.76 1133.84L270.74 1128.69L280.587 1130.56C281.267 1130.69 281.873 1130.51 281.94 1130.15C282.008 1129.79 281.512 1129.4 280.832 1129.27L269.754 1127.17ZM373.941 1209.43L270.589 1127.52L268.675 1128.1L372.027 1210.01L373.941 1209.43Z" fill="#79E59B"/>
<path d="M502.282 1120.47C501.643 1120.26 501.024 1120.39 500.898 1120.76L498.851 1126.86C498.725 1127.24 499.141 1127.72 499.78 1127.93C500.419 1128.14 501.038 1128.01 501.164 1127.64L502.984 1122.22L512.237 1125.32C512.876 1125.53 513.496 1125.4 513.621 1125.03C513.747 1124.66 513.331 1124.18 512.692 1123.96L502.282 1120.47ZM580.223 1209.51L503.033 1120.94L501.076 1121.35L578.266 1209.92L580.223 1209.51Z" fill="#79E59B"/>
<path d="M736.35 1115.8C735.779 1115.5 735.151 1115.58 734.947 1115.98L731.62 1122.4C731.416 1122.8 731.713 1123.36 732.284 1123.65C732.855 1123.95 733.483 1123.87 733.687 1123.47L736.644 1117.76L744.909 1122.04C745.48 1122.34 746.108 1122.26 746.312 1121.86C746.516 1121.47 746.219 1120.91 745.649 1120.61L736.35 1115.8ZM786.497 1209.59L736.972 1116.39L734.988 1116.64L784.513 1209.84L786.497 1209.59Z" fill="#79E59B"/>
<path d="M971.243 1113.23C970.769 1112.87 970.136 1112.9 969.83 1113.3L964.843 1119.86C964.537 1120.26 964.673 1120.88 965.147 1121.24C965.621 1121.6 966.254 1121.56 966.56 1121.16L970.993 1115.34L977.857 1120.56C978.331 1120.93 978.964 1120.89 979.27 1120.49C979.576 1120.09 979.44 1119.47 978.966 1119.11L971.243 1113.23ZM992.764 1209.66L971.687 1113.9L969.69 1114.01L990.767 1209.77L992.764 1209.66Z" fill="#79E59B"/>
<path d="M1206.2 1112.78C1205.83 1112.38 1205.2 1112.37 1204.78 1112.75L1197.93 1118.98C1197.51 1119.36 1197.46 1119.99 1197.82 1120.39C1198.18 1120.79 1198.82 1120.8 1199.24 1120.42L1205.33 1114.88L1210.55 1120.63C1210.91 1121.02 1211.54 1121.03 1211.96 1120.65C1212.38 1120.27 1212.43 1119.64 1212.07 1119.24L1206.2 1112.78ZM1199.03 1209.73L1206.43 1113.49L1204.43 1113.45L1197.03 1209.7L1199.03 1209.73Z" fill="#79E59B"/>
<path d="M1440.41 1114.36C1440.16 1113.96 1439.53 1113.9 1439 1114.23L1430.45 1119.63C1429.92 1119.96 1429.7 1120.56 1429.96 1120.96C1430.21 1121.36 1430.84 1121.42 1431.36 1121.08L1438.97 1116.28L1442.63 1122.09C1442.89 1122.49 1443.52 1122.55 1444.04 1122.22C1444.57 1121.88 1444.79 1121.29 1444.53 1120.89L1440.41 1114.36ZM1405.28 1209.81L1440.46 1115.05L1438.46 1114.87L1403.29 1209.63L1405.28 1209.81Z" fill="#79E59B"/>
<path d="M1673.09 1117.76C1672.92 1117.38 1672.3 1117.27 1671.7 1117.54L1661.86 1121.8C1661.26 1122.07 1660.91 1122.59 1661.08 1122.98C1661.24 1123.36 1661.87 1123.47 1662.47 1123.2L1671.21 1119.41L1673.64 1125.01C1673.81 1125.39 1674.43 1125.49 1675.04 1125.23C1675.64 1124.97 1675.99 1124.45 1675.83 1124.06L1673.09 1117.76ZM1611.53 1209.88L1672.99 1118.4L1671.01 1118.08L1609.56 1209.56L1611.53 1209.88Z" fill="#79E59B"/>
<path d="M1903.47 1122.66C1903.36 1122.29 1902.74 1122.14 1902.09 1122.33L1891.43 1125.4C1890.78 1125.58 1890.33 1126.03 1890.44 1126.4C1890.54 1126.77 1891.16 1126.92 1891.81 1126.73L1901.29 1124L1902.82 1129.34C1902.93 1129.71 1903.54 1129.85 1904.2 1129.66C1904.85 1129.48 1905.3 1129.02 1905.19 1128.66L1903.47 1122.66ZM1817.78 1209.95L1903.25 1123.23L1901.31 1122.77L1815.83 1209.49L1817.78 1209.95Z" fill="#79E59B"/>
<path d="M2130.71 1128.54C2130.65 1128.19 2130.05 1128 2129.37 1128.12L2118.23 1130.05C2117.55 1130.17 2117.05 1130.55 2117.11 1130.91C2117.17 1131.26 2117.77 1131.45 2118.46 1131.33L2128.35 1129.61L2129.24 1134.74C2129.3 1135.1 2129.91 1135.29 2130.59 1135.17C2131.28 1135.05 2131.78 1134.67 2131.72 1134.31L2130.71 1128.54ZM2024.02 1210.02L2130.43 1129.06L2128.52 1128.46L2022.11 1209.42L2024.02 1210.02Z" fill="#79E59B"/>
<path d="M2353.83 1134.61C2353.8 1134.26 2353.21 1134.03 2352.51 1134.09L2341.16 1135.06C2340.46 1135.12 2339.92 1135.45 2339.95 1135.79C2339.98 1136.14 2340.57 1136.37 2341.26 1136.31L2351.36 1135.45L2351.79 1140.47C2351.82 1140.81 2352.41 1141.05 2353.1 1140.99C2353.8 1140.93 2354.34 1140.6 2354.31 1140.25L2353.83 1134.61ZM2230.26 1210.08L2353.5 1135.08L2351.64 1134.35L2228.4 1209.35L2230.26 1210.08Z" fill="#79E59B"/>
<path d="M2571.09 1139.36C2571.08 1139.02 2570.51 1138.75 2569.8 1138.77L2558.38 1139.07C2557.68 1139.09 2557.12 1139.38 2557.13 1139.73C2557.14 1140.07 2557.72 1140.34 2558.42 1140.32L2568.57 1140.05L2568.7 1145.04C2568.71 1145.38 2569.28 1145.65 2569.98 1145.63C2570.69 1145.61 2571.25 1145.31 2571.24 1144.97L2571.09 1139.36ZM2436.5 1210.13L2570.73 1139.81L2568.91 1138.98L2434.68 1209.3L2436.5 1210.13Z" fill="#79E59B"/>
<path d="M2777.87 1139.6C2777.86 1139.26 2777.28 1138.99 2776.58 1139.01L2765.16 1139.28C2764.46 1139.29 2763.9 1139.59 2763.9 1139.93C2763.91 1140.27 2764.49 1140.54 2765.19 1140.52L2775.34 1140.29L2775.46 1145.27C2775.47 1145.61 2776.04 1145.88 2776.74 1145.86C2777.44 1145.85 2778 1145.55 2778 1145.21L2777.87 1139.6ZM2642.76 1210.14L2777.5 1140.05L2775.69 1139.21L2640.94 1209.3L2642.76 1210.14Z" fill="#79E59B"/>
<path d="M2954.23 1128.06C2954.17 1127.7 2953.56 1127.51 2952.88 1127.64L2941.77 1129.66C2941.09 1129.78 2940.59 1130.17 2940.66 1130.53C2940.72 1130.88 2941.33 1131.07 2942.01 1130.94L2951.88 1129.15L2952.81 1134.29C2952.88 1134.64 2953.48 1134.83 2954.17 1134.71C2954.85 1134.58 2955.35 1134.2 2955.28 1133.84L2954.23 1128.06ZM2849.07 1210.01L2953.95 1128.58L2952.04 1127.98L2847.15 1209.42L2849.07 1210.01Z" fill="#79E59B"/>
<path d="M3024.13 1113.86C3023.62 1113.52 3022.99 1113.57 3022.72 1113.97L3018.33 1120.52C3018.06 1120.92 3018.25 1121.52 3018.76 1121.86C3019.27 1122.2 3019.9 1122.16 3020.17 1121.75L3024.07 1115.93L3031.45 1120.88C3031.96 1121.22 3032.59 1121.17 3032.86 1120.77C3033.13 1120.37 3032.94 1119.76 3032.43 1119.42L3024.13 1113.86ZM3055.37 1209.64L3024.64 1114.51L3022.64 1114.66L3053.37 1209.79L3055.37 1209.64Z" fill="#79E59B"/>
<path d="M26.8283 1242.61C26.127 1242.61 25.5601 1242.89 25.5621 1243.24L25.5937 1248.84C25.5957 1249.18 26.1657 1249.46 26.867 1249.46C27.5683 1249.45 28.1352 1249.17 28.1332 1248.83L28.1051 1243.85L38.2632 1243.79C38.9645 1243.78 39.5314 1243.5 39.5295 1243.16C39.5275 1242.81 38.9574 1242.54 38.2562 1242.54L26.8283 1242.61ZM167.619 1310.4L27.7272 1242.78L25.9365 1243.68L165.828 1311.29L167.619 1310.4Z" fill="#79E59B"/>
<path d="M254.498 1233.42C253.804 1233.34 253.211 1233.56 253.172 1233.91L252.547 1239.59C252.509 1239.93 253.04 1240.28 253.734 1240.36C254.428 1240.43 255.022 1240.21 255.06 1239.86L255.616 1234.82L265.667 1235.93C266.361 1236 266.954 1235.78 266.993 1235.43C267.031 1235.09 266.5 1234.74 265.806 1234.67L254.498 1233.42ZM373.922 1310.5L255.366 1233.7L253.491 1234.4L372.047 1311.19L373.922 1310.5Z" fill="#79E59B"/>
<path d="M484.306 1225.91C483.637 1225.76 483.026 1225.92 482.942 1226.29L481.562 1232.17C481.478 1232.53 481.951 1232.95 482.621 1233.11C483.29 1233.27 483.901 1233.1 483.985 1232.74L485.212 1227.51L494.905 1229.78C495.574 1229.93 496.185 1229.77 496.269 1229.41C496.354 1229.05 495.88 1228.63 495.211 1228.47L484.306 1225.91ZM580.21 1310.58L485.118 1226.31L483.188 1226.83L578.28 1311.11L580.21 1310.58Z" fill="#79E59B"/>
<path d="M715.599 1220.2C714.975 1219.96 714.352 1220.08 714.209 1220.46L711.868 1226.65C711.724 1227.03 712.114 1227.53 712.738 1227.76C713.362 1228 713.984 1227.88 714.128 1227.5L716.208 1222L725.247 1225.42C725.871 1225.65 726.494 1225.54 726.637 1225.16C726.781 1224.78 726.392 1224.28 725.768 1224.04L715.599 1220.2ZM786.488 1310.66L716.322 1220.7L714.356 1221.07L784.522 1311.03L786.488 1310.66Z" fill="#79E59B"/>
<path d="M947.668 1216.32C947.112 1216.01 946.483 1216.08 946.263 1216.48L942.667 1222.95C942.446 1223.34 942.718 1223.92 943.273 1224.23C943.829 1224.53 944.458 1224.46 944.678 1224.07L947.874 1218.31L955.919 1222.78C956.475 1223.09 957.104 1223.02 957.324 1222.62C957.545 1222.23 957.274 1221.65 956.718 1221.35L947.668 1216.32ZM992.759 1310.73L948.262 1216.92L946.275 1217.15L990.772 1310.96L992.759 1310.73Z" fill="#79E59B"/>
<path d="M1179.75 1214.25C1179.29 1213.88 1178.65 1213.91 1178.34 1214.32L1173.21 1220.86C1172.89 1221.26 1173.02 1221.88 1173.48 1222.25C1173.95 1222.61 1174.58 1222.58 1174.89 1222.18L1179.45 1216.36L1186.2 1221.65C1186.66 1222.01 1187.29 1221.98 1187.61 1221.58C1187.92 1221.18 1187.8 1220.56 1187.34 1220.19L1179.75 1214.25ZM1199.02 1310.8L1180.18 1214.93L1178.18 1215.02L1197.03 1310.89L1199.02 1310.8Z" fill="#79E59B"/>
<path d="M1411.03 1213.88C1410.66 1213.49 1410.03 1213.48 1409.61 1213.86L1402.86 1220.12C1402.44 1220.5 1402.4 1221.13 1402.77 1221.53C1403.13 1221.92 1403.77 1221.93 1404.18 1221.55L1410.19 1215.99L1415.5 1221.72C1415.86 1222.11 1416.49 1222.12 1416.91 1221.74C1417.32 1221.36 1417.36 1220.72 1417 1220.33L1411.03 1213.88ZM1405.29 1310.86L1411.28 1214.59L1409.28 1214.56L1403.29 1310.83L1405.29 1310.86Z" fill="#79E59B"/>
<path d="M1640.61 1214.97C1640.33 1214.57 1639.7 1214.53 1639.2 1214.87L1630.99 1220.49C1630.48 1220.83 1630.3 1221.44 1630.57 1221.84C1630.85 1222.24 1631.48 1222.29 1631.99 1221.94L1639.28 1216.95L1643.27 1222.77C1643.54 1223.18 1644.18 1223.22 1644.68 1222.88C1645.18 1222.53 1645.37 1221.93 1645.09 1221.53L1640.61 1214.97ZM1611.54 1310.92L1640.69 1215.67L1638.7 1215.52L1609.55 1310.77L1611.54 1310.92Z" fill="#79E59B"/>
<path d="M1867.5 1217.13C1867.3 1216.73 1866.67 1216.65 1866.1 1216.95L1856.8 1221.75C1856.22 1222.05 1855.93 1222.61 1856.13 1223C1856.33 1223.4 1856.96 1223.48 1857.53 1223.18L1865.8 1218.91L1868.75 1224.62C1868.96 1225.01 1869.59 1225.09 1870.16 1224.8C1870.73 1224.5 1871.03 1223.95 1870.82 1223.55L1867.5 1217.13ZM1817.8 1310.97L1867.46 1217.79L1865.48 1217.53L1815.82 1310.72L1817.8 1310.97Z" fill="#79E59B"/>
<path d="M2090.5 1219.74C2090.35 1219.36 2089.73 1219.25 2089.11 1219.49L2079.09 1223.53C2078.47 1223.78 2078.1 1224.29 2078.25 1224.67C2078.4 1225.05 2079.03 1225.16 2079.64 1224.91L2088.55 1221.33L2090.79 1226.87C2090.94 1227.26 2091.56 1227.37 2092.18 1227.12C2092.79 1226.87 2093.17 1226.36 2093.01 1225.98L2090.5 1219.74ZM2024.05 1311.02L2090.37 1220.36L2088.4 1220.01L2022.08 1310.67L2024.05 1311.02Z" fill="#79E59B"/>
<path d="M2307.83 1221.92C2307.7 1221.55 2307.08 1221.42 2306.44 1221.63L2296.03 1225.12C2295.39 1225.33 2294.97 1225.81 2295.1 1226.18C2295.22 1226.56 2295.84 1226.69 2296.48 1226.47L2305.74 1223.38L2307.55 1228.8C2307.68 1229.17 2308.3 1229.3 2308.94 1229.09C2309.58 1228.88 2309.99 1228.4 2309.87 1228.02L2307.83 1221.92ZM2230.31 1311.05L2307.65 1222.52L2305.69 1222.11L2228.35 1310.64L2230.31 1311.05Z" fill="#79E59B"/>
<path d="M2516.21 1222.39C2516.09 1222.02 2515.47 1221.88 2514.83 1222.09L2504.35 1225.47C2503.71 1225.67 2503.28 1226.14 2503.4 1226.52C2503.52 1226.89 2504.14 1227.02 2504.78 1226.81L2514.1 1223.81L2515.84 1229.21C2515.96 1229.59 2516.58 1229.72 2517.22 1229.51C2517.87 1229.31 2518.29 1228.84 2518.17 1228.46L2516.21 1222.39ZM2436.57 1311.06L2516.03 1222.98L2514.07 1222.55L2434.61 1310.63L2436.57 1311.06Z" fill="#79E59B"/>
<path d="M2708.68 1219.63C2708.52 1219.25 2707.9 1219.14 2707.28 1219.39L2697.28 1223.45C2696.67 1223.7 2696.3 1224.21 2696.45 1224.6C2696.61 1224.98 2697.23 1225.09 2697.84 1224.84L2706.74 1221.23L2708.99 1226.78C2709.15 1227.16 2709.77 1227.27 2710.38 1227.02C2711 1226.77 2711.37 1226.26 2711.21 1225.88L2708.68 1219.63ZM2642.83 1311.02L2708.55 1220.25L2706.58 1219.91L2640.86 1310.68L2642.83 1311.02Z" fill="#79E59B"/>
<path d="M2871.01 1214.49C2870.71 1214.09 2870.07 1214.05 2869.6 1214.41L2861.81 1220.26C2861.34 1220.62 2861.2 1221.24 2861.5 1221.64C2861.8 1222.04 2862.43 1222.08 2862.91 1221.72L2869.83 1216.52L2874.21 1222.34C2874.51 1222.75 2875.14 1222.78 2875.62 1222.42C2876.1 1222.06 2876.24 1221.45 2875.94 1221.04L2871.01 1214.49ZM2849.11 1310.9L2871.14 1215.2L2869.15 1215.08L2847.11 1310.79L2849.11 1310.9Z" fill="#79E59B"/>
<path d="M2993.97 1218.55C2993.37 1218.28 2992.75 1218.38 2992.58 1218.77L2989.81 1225.07C2989.64 1225.46 2989.99 1225.99 2990.59 1226.25C2991.19 1226.52 2991.82 1226.42 2991.99 1226.03L2994.45 1220.42L3003.16 1224.25C3003.76 1224.51 3004.39 1224.41 3004.56 1224.03C3004.73 1223.64 3004.38 1223.11 3003.78 1222.85L2993.97 1218.55ZM3055.36 1310.69L2994.65 1219.09L2992.68 1219.4L3053.38 1311L3055.36 1310.69Z" fill="#79E59B"/>
<path d="M14.1071 1350.68C13.41 1350.74 12.8682 1351.06 12.8968 1351.41L13.3642 1357.05C13.3928 1357.4 13.9812 1357.63 14.6783 1357.58C15.3754 1357.52 15.9172 1357.19 15.8885 1356.84L15.4731 1351.83L25.5707 1350.99C26.2678 1350.93 26.8096 1350.61 26.7809 1350.26C26.7523 1349.91 26.1639 1349.68 25.4668 1349.74L14.1071 1350.68ZM167.579 1411.46L15.0148 1350.79L13.3032 1351.82L165.868 1412.49L167.579 1411.46Z" fill="#79E59B"/>
<path d="M238.856 1340.99C238.155 1340.97 237.579 1341.24 237.57 1341.58L237.42 1347.19C237.411 1347.53 237.972 1347.83 238.673 1347.85C239.374 1347.87 239.949 1347.6 239.959 1347.26L240.091 1342.27L250.243 1342.54C250.944 1342.56 251.52 1342.3 251.529 1341.95C251.538 1341.61 250.977 1341.32 250.277 1341.3L238.856 1340.99ZM373.893 1411.56L239.748 1341.2L237.93 1342.03L372.075 1412.39L373.893 1411.56Z" fill="#79E59B"/>
<path d="M465.649 1332.79C464.959 1332.7 464.361 1332.91 464.313 1333.26L463.539 1338.97C463.491 1339.32 464.012 1339.68 464.702 1339.77C465.392 1339.87 465.99 1339.66 466.038 1339.31L466.727 1334.23L476.723 1335.59C477.413 1335.68 478.011 1335.48 478.059 1335.13C478.106 1334.77 477.586 1334.41 476.895 1334.32L465.649 1332.79ZM580.189 1411.65L466.507 1333.1L464.619 1333.76L578.3 1412.31L580.189 1411.65Z" fill="#79E59B"/>
<path d="M693.84 1326.18C693.175 1326.01 692.562 1326.17 692.471 1326.53L690.977 1332.46C690.886 1332.82 691.35 1333.25 692.014 1333.42C692.679 1333.58 693.292 1333.43 693.383 1333.06L694.711 1327.8L704.335 1330.22C704.999 1330.39 705.612 1330.23 705.704 1329.87C705.796 1329.5 705.331 1329.07 704.667 1328.91L693.84 1326.18ZM786.473 1411.73L694.642 1326.58L692.706 1327.09L784.537 1412.23L786.473 1411.73Z" fill="#79E59B"/>
<path d="M922.716 1321.17C922.094 1320.93 921.471 1321.04 921.325 1321.43L918.947 1327.63C918.801 1328.01 919.187 1328.51 919.809 1328.75C920.431 1328.99 921.054 1328.87 921.2 1328.49L923.314 1322.98L932.325 1326.43C932.947 1326.67 933.57 1326.56 933.716 1326.18C933.862 1325.8 933.476 1325.29 932.853 1325.06L922.716 1321.17ZM992.749 1411.8L923.435 1321.68L921.468 1322.04L990.782 1412.16L992.749 1411.8Z" fill="#79E59B"/>
<path d="M1151.5 1317.73C1150.94 1317.43 1150.31 1317.51 1150.09 1317.9L1146.63 1324.35C1146.42 1324.75 1146.7 1325.31 1147.26 1325.62C1147.83 1325.92 1148.46 1325.84 1148.67 1325.45L1151.75 1319.71L1159.9 1324.09C1160.46 1324.39 1161.09 1324.32 1161.3 1323.92C1161.52 1323.53 1161.23 1322.96 1160.67 1322.66L1151.5 1317.73ZM1199.02 1411.86L1152.11 1318.33L1150.12 1318.57L1197.03 1412.1L1199.02 1411.86Z" fill="#79E59B"/>
<path d="M1379.33 1315.75C1378.84 1315.39 1378.21 1315.44 1377.92 1315.84L1373.21 1322.39C1372.92 1322.8 1373.08 1323.41 1373.58 1323.76C1374.07 1324.11 1374.7 1324.07 1374.99 1323.67L1379.17 1317.84L1386.28 1322.95C1386.77 1323.3 1387.4 1323.26 1387.69 1322.86C1387.98 1322.45 1387.81 1321.84 1387.32 1321.49L1379.33 1315.75ZM1405.28 1411.91L1379.81 1316.41L1377.81 1316.54L1403.29 1412.04L1405.28 1411.91Z" fill="#79E59B"/>
<path d="M1605.24 1314.99C1604.83 1314.61 1604.2 1314.62 1603.83 1315.01L1597.86 1321.46C1597.49 1321.85 1597.53 1322.49 1597.95 1322.87C1598.36 1323.25 1598.99 1323.24 1599.36 1322.85L1604.67 1317.12L1610.67 1322.68C1611.09 1323.06 1611.72 1323.05 1612.09 1322.66C1612.45 1322.26 1612.41 1321.63 1612 1321.25L1605.24 1314.99ZM1611.55 1411.96L1605.58 1315.69L1603.58 1315.72L1609.55 1411.99L1611.55 1411.96Z" fill="#79E59B"/>
<path d="M1828.08 1315.12C1827.73 1314.72 1827.1 1314.7 1826.67 1315.08L1819.62 1321.24C1819.18 1321.62 1819.11 1322.25 1819.46 1322.64C1819.81 1323.04 1820.44 1323.06 1820.88 1322.68L1827.14 1317.21L1832.19 1322.98C1832.53 1323.38 1833.17 1323.39 1833.6 1323.01C1834.03 1322.64 1834.1 1322.01 1833.75 1321.61L1828.08 1315.12ZM1817.81 1412L1828.3 1315.83L1826.3 1315.77L1815.81 1411.95L1817.81 1412Z" fill="#79E59B"/>
<path d="M2046.37 1315.64C2046.07 1315.24 2045.44 1315.21 2044.96 1315.56L2037.15 1321.4C2036.67 1321.76 2036.53 1322.38 2036.83 1322.78C2037.13 1323.18 2037.76 1323.22 2038.24 1322.86L2045.18 1317.67L2049.54 1323.49C2049.84 1323.9 2050.47 1323.93 2050.95 1323.57C2051.43 1323.22 2051.57 1322.6 2051.27 1322.2L2046.37 1315.64ZM2024.07 1412.03L2046.5 1316.35L2044.5 1316.24L2022.07 1411.92L2024.07 1412.03Z" fill="#79E59B"/>
<path d="M2258.01 1316C2257.73 1315.6 2257.1 1315.55 2256.6 1315.9L2248.47 1321.57C2247.97 1321.91 2247.8 1322.52 2248.08 1322.92C2248.36 1323.33 2248.99 1323.37 2249.49 1323.02L2256.71 1317.99L2260.77 1323.81C2261.05 1324.22 2261.69 1324.26 2262.18 1323.91C2262.68 1323.57 2262.86 1322.96 2262.58 1322.56L2258.01 1316ZM2230.33 1412.05L2258.11 1316.7L2256.11 1316.56L2228.33 1411.91L2230.33 1412.05Z" fill="#79E59B"/>
<path d="M2459.78 1315.7C2459.48 1315.3 2458.85 1315.26 2458.36 1315.61L2450.5 1321.43C2450.02 1321.78 2449.87 1322.4 2450.17 1322.8C2450.47 1323.2 2451.1 1323.24 2451.58 1322.88L2458.57 1317.72L2462.88 1323.54C2463.17 1323.95 2463.8 1323.98 2464.29 1323.63C2464.77 1323.27 2464.92 1322.65 2464.62 1322.25L2459.78 1315.7ZM2436.59 1412.04L2459.9 1316.4L2457.9 1316.28L2434.59 1411.92L2436.59 1412.04Z" fill="#79E59B"/>
<path d="M2646.84 1314.99C2646.47 1314.59 2645.83 1314.59 2645.42 1314.97L2638.78 1321.26C2638.37 1321.65 2638.34 1322.28 2638.72 1322.67C2639.09 1323.07 2639.72 1323.08 2640.13 1322.69L2646.04 1317.1L2651.45 1322.81C2651.82 1323.2 2652.45 1323.21 2652.86 1322.82C2653.27 1322.44 2653.3 1321.81 2652.92 1321.41L2646.84 1314.99ZM2642.85 1411.99L2647.1 1315.7L2645.1 1315.67L2640.85 1411.97L2642.85 1411.99Z" fill="#79E59B"/>
<path d="M2814.38 1316.41C2813.86 1316.07 2813.22 1316.13 2812.97 1316.53L2808.79 1323.06C2808.53 1323.47 2808.74 1324.06 2809.27 1324.4C2809.79 1324.73 2810.42 1324.67 2810.68 1324.27L2814.39 1318.46L2821.95 1323.3C2822.47 1323.63 2823.1 1323.58 2823.36 1323.17C2823.61 1322.77 2823.4 1322.18 2822.88 1321.84L2814.38 1316.41ZM2849.11 1411.89L2814.91 1317.05L2812.92 1317.22L2847.11 1412.06L2849.11 1411.89Z" fill="#79E59B"/>
<path d="M2965.37 1325.5C2964.71 1325.32 2964.09 1325.48 2963.99 1325.84L2962.4 1331.8C2962.31 1332.16 2962.76 1332.6 2963.42 1332.78C2964.08 1332.95 2964.7 1332.8 2964.8 1332.43L2966.21 1327.14L2975.77 1329.69C2976.43 1329.87 2977.05 1329.71 2977.14 1329.35C2977.24 1328.98 2976.79 1328.54 2976.13 1328.37L2965.37 1325.5ZM3055.34 1411.73L2966.16 1325.92L2964.22 1326.4L3053.4 1412.22L3055.34 1411.73Z" fill="#79E59B"/>
<path d="M1.89067 1459.99C1.20684 1460.11 0.701437 1460.49 0.761813 1460.84L1.74569 1466.61C1.80607 1466.96 2.40936 1467.16 3.09319 1467.04C3.77701 1466.92 4.28242 1466.54 4.22204 1466.19L3.34748 1461.06L13.2529 1459.37C13.9367 1459.25 14.4421 1458.87 14.3817 1458.52C14.3213 1458.17 13.718 1457.97 13.0342 1458.09L1.89067 1459.99ZM167.522 1512.5L2.7982 1460.03L1.20177 1461.24L165.925 1513.71L167.522 1512.5Z" fill="#79E59B"/>
<path d="M223.536 1449.95C222.838 1449.99 222.288 1450.31 222.31 1450.66L222.662 1456.28C222.684 1456.63 223.268 1456.87 223.967 1456.83C224.666 1456.78 225.215 1456.47 225.193 1456.12L224.88 1451.12L235.004 1450.49C235.703 1450.44 236.252 1450.13 236.23 1449.78C236.208 1449.44 235.624 1449.19 234.925 1449.24L223.536 1449.95ZM373.851 1512.61L224.443 1450.08L222.708 1451.07L372.117 1513.61L373.851 1512.61Z" fill="#79E59B"/>
<path d="M447.121 1441.22C446.421 1441.19 445.842 1441.45 445.829 1441.8L445.618 1447.41C445.605 1447.75 446.162 1448.05 446.863 1448.08C447.563 1448.11 448.142 1447.85 448.155 1447.5L448.342 1442.52L458.488 1442.9C459.188 1442.92 459.767 1442.67 459.78 1442.32C459.793 1441.98 459.235 1441.68 458.535 1441.65L447.121 1441.22ZM580.158 1512.7L448.011 1441.44L446.184 1442.25L578.331 1513.51L580.158 1512.7Z" fill="#79E59B"/>
<path d="M672.007 1433.89C671.317 1433.8 670.719 1434.01 670.671 1434.36L669.893 1440.07C669.846 1440.42 670.366 1440.78 671.056 1440.87C671.746 1440.96 672.344 1440.76 672.392 1440.41L673.084 1435.33L683.079 1436.69C683.769 1436.79 684.367 1436.58 684.415 1436.23C684.463 1435.88 683.942 1435.52 683.252 1435.42L672.007 1433.89ZM786.45 1512.78L672.865 1434.2L670.976 1434.85L784.561 1513.44L786.45 1512.78Z" fill="#79E59B"/>
<path d="M897.484 1428C896.815 1427.84 896.204 1428 896.118 1428.37L894.716 1434.26C894.63 1434.62 895.102 1435.04 895.77 1435.2C896.438 1435.36 897.05 1435.2 897.136 1434.84L898.382 1429.6L908.062 1431.9C908.73 1432.06 909.341 1431.89 909.427 1431.53C909.513 1431.17 909.041 1430.75 908.373 1430.59L897.484 1428ZM992.731 1512.85L898.294 1428.39L896.362 1428.91L990.8 1513.37L992.731 1512.85Z" fill="#79E59B"/>
<path d="M1122.76 1423.51C1122.13 1423.29 1121.51 1423.42 1121.38 1423.79L1119.26 1429.92C1119.13 1430.29 1119.54 1430.77 1120.18 1430.99C1120.81 1431.21 1121.43 1431.09 1121.56 1430.71L1123.44 1425.27L1132.65 1428.45C1133.28 1428.67 1133.9 1428.54 1134.03 1428.17C1134.16 1427.79 1133.75 1427.31 1133.12 1427.09L1122.76 1423.51ZM1199.01 1512.91L1123.51 1423.99L1121.55 1424.39L1197.05 1513.31L1199.01 1512.91Z" fill="#79E59B"/>
<path d="M1346.97 1420.33C1346.38 1420.05 1345.75 1420.15 1345.57 1420.54L1342.65 1426.88C1342.48 1427.27 1342.81 1427.81 1343.41 1428.08C1344 1428.35 1344.62 1428.26 1344.8 1427.87L1347.4 1422.23L1355.99 1426.18C1356.58 1426.46 1357.21 1426.36 1357.39 1425.97C1357.57 1425.58 1357.23 1425.05 1356.64 1424.77L1346.97 1420.33ZM1405.28 1512.96L1347.63 1420.88L1345.66 1421.18L1403.3 1513.26L1405.28 1512.96Z" fill="#79E59B"/>
<path d="M1569.1 1418.28C1568.55 1417.97 1567.92 1418.04 1567.69 1418.43L1563.95 1424.93C1563.72 1425.32 1563.98 1425.9 1564.53 1426.22C1565.07 1426.53 1565.7 1426.47 1565.93 1426.07L1569.26 1420.3L1577.18 1424.86C1577.73 1425.18 1578.36 1425.11 1578.59 1424.71C1578.82 1424.32 1578.56 1423.74 1578.01 1423.42L1569.1 1418.28ZM1611.54 1513L1569.68 1418.9L1567.69 1419.11L1609.55 1513.21L1611.54 1513Z" fill="#79E59B"/>
<path d="M1787.96 1417.14C1787.46 1416.8 1786.83 1416.85 1786.55 1417.25L1782.08 1423.8C1781.81 1424.2 1781.99 1424.81 1782.5 1425.15C1783 1425.5 1783.63 1425.45 1783.91 1425.05L1787.88 1419.22L1795.19 1424.21C1795.69 1424.56 1796.33 1424.51 1796.6 1424.11C1796.88 1423.71 1796.69 1423.1 1796.18 1422.76L1787.96 1417.14ZM1817.8 1513.03L1788.46 1417.8L1786.47 1417.95L1815.81 1513.18L1817.8 1513.03Z" fill="#79E59B"/>
<path d="M2002.1 1416.64C2001.63 1416.28 2001 1416.32 2000.69 1416.72L1995.73 1423.27C1995.43 1423.67 1995.57 1424.29 1996.04 1424.65C1996.52 1425.01 1997.15 1424.98 1997.45 1424.58L2001.86 1418.75L2008.75 1423.97C2009.23 1424.33 2009.86 1424.29 2010.16 1423.89C2010.47 1423.49 2010.33 1422.87 2009.85 1422.51L2002.1 1416.64ZM2024.07 1513.05L2002.55 1417.32L2000.55 1417.43L2022.07 1513.16L2024.07 1513.05Z" fill="#79E59B"/>
<path d="M2209.66 1416.58C2209.19 1416.21 2208.55 1416.25 2208.24 1416.65L2203.2 1423.2C2202.89 1423.6 2203.02 1424.22 2203.5 1424.58C2203.97 1424.94 2204.6 1424.91 2204.91 1424.51L2209.39 1418.69L2216.21 1423.94C2216.68 1424.3 2217.31 1424.27 2217.62 1423.86C2217.93 1423.46 2217.8 1422.84 2217.33 1422.48L2209.66 1416.58ZM2230.33 1513.06L2210.1 1417.25L2208.1 1417.36L2228.33 1513.16L2230.33 1513.06Z" fill="#79E59B"/>
<path d="M2408.32 1417.03C2407.82 1416.68 2407.18 1416.73 2406.9 1417.13L2402.34 1423.69C2402.06 1424.09 2402.23 1424.7 2402.73 1425.04C2403.23 1425.39 2403.86 1425.35 2404.14 1424.94L2408.2 1419.12L2415.43 1424.15C2415.93 1424.5 2416.56 1424.46 2416.84 1424.06C2417.12 1423.65 2416.94 1423.05 2416.44 1422.7L2408.32 1417.03ZM2436.59 1513.04L2408.81 1417.69L2406.81 1417.83L2434.59 1513.18L2436.59 1513.04Z" fill="#79E59B"/>
<path d="M2595.77 1418.81C2595.2 1418.51 2594.58 1418.58 2594.36 1418.98L2590.87 1425.43C2590.66 1425.83 2590.94 1426.39 2591.5 1426.7C2592.06 1427 2592.69 1426.93 2592.91 1426.53L2596.01 1420.79L2604.14 1425.19C2604.7 1425.49 2605.33 1425.42 2605.54 1425.02C2605.76 1424.63 2605.48 1424.06 2604.92 1423.75L2595.77 1418.81ZM2642.84 1512.99L2596.37 1419.41L2594.39 1419.64L2640.86 1513.23L2642.84 1512.99Z" fill="#79E59B"/>
<path d="M2771.36 1423.82C2770.72 1423.6 2770.1 1423.73 2769.97 1424.11L2767.92 1430.21C2767.79 1430.59 2768.21 1431.06 2768.84 1431.28C2769.48 1431.49 2770.1 1431.37 2770.23 1430.99L2772.06 1425.56L2781.3 1428.68C2781.94 1428.89 2782.56 1428.76 2782.69 1428.39C2782.81 1428.01 2782.4 1427.54 2781.76 1427.32L2771.36 1423.82ZM2849.09 1512.9L2772.11 1424.29L2770.15 1424.7L2847.13 1513.31L2849.09 1512.9Z" fill="#79E59B"/>
<path d="M2938.99 1434.55C2938.29 1434.47 2937.7 1434.68 2937.65 1435.03L2936.93 1440.72C2936.89 1441.07 2937.42 1441.43 2938.11 1441.52C2938.8 1441.6 2939.39 1441.39 2939.44 1441.04L2940.08 1435.98L2950.1 1437.24C2950.79 1437.33 2951.38 1437.12 2951.43 1436.77C2951.47 1436.42 2950.95 1436.07 2950.26 1435.98L2938.99 1434.55ZM3055.31 1512.77L2939.85 1434.85L2937.96 1435.52L3053.43 1513.44L3055.31 1512.77Z" fill="#79E59B"/>
</svg>
