<svg width="1131" height="827" viewBox="0 0 1131 827" fill="none" xmlns="http://www.w3.org/2000/svg">
<path d="M25.8092 6.85468C25.2208 6.69403 24.6396 6.94531 24.5111 7.41593L22.4173 15.0851C22.2888 15.5557 22.6617 16.0675 23.2501 16.2281C23.8385 16.3887 24.4197 16.1375 24.5482 15.6668L26.4093 8.84981L34.9328 11.1768C35.5212 11.3375 36.1024 11.0862 36.2309 10.6156C36.3593 10.145 35.9865 9.63322 35.3981 9.47258L25.8092 6.85468ZM59.8818 53.1344L26.4944 7.30994L24.6587 8.10367L58.0461 53.9281L59.8818 53.1344Z" fill="#79E59B"/>
<path d="M107.589 3.33433C107.046 3.08703 106.437 3.25834 106.228 3.71694L102.825 11.1903C102.616 11.6489 102.887 12.2212 103.43 12.4685C103.973 12.7158 104.583 12.5444 104.792 12.0858L107.816 5.44284L115.683 9.02494C116.226 9.27223 116.836 9.10093 117.045 8.64233C117.254 8.18372 116.983 7.61148 116.44 7.36419L107.589 3.33433ZM131.552 53.2607L108.174 3.89415L106.248 4.43525L129.627 53.8018L131.552 53.2607Z" fill="#79E59B"/>
<path d="M189.987 1.12041C189.507 0.797954 188.881 0.88983 188.588 1.32562L183.818 8.42716C183.525 8.86294 183.677 9.47761 184.157 9.80007C184.637 10.1225 185.264 10.0306 185.557 9.59486L189.796 3.28237L196.751 7.95317C197.231 8.27562 197.857 8.18375 198.15 7.74796C198.442 7.31218 198.291 6.6975 197.811 6.37505L189.987 1.12041ZM203.204 53.3861L190.447 1.76436L188.468 2.05457L201.225 53.6764L203.204 53.3861Z" fill="#79E59B"/>
<path d="M272.712 0.278808C272.308 -0.103498 271.675 -0.0905503 271.298 0.307728L265.155 6.79805C264.778 7.19633 264.8 7.82912 265.203 8.21143C265.607 8.59373 266.24 8.58079 266.617 8.18251L272.078 2.41333L277.929 7.95115C278.333 8.33345 278.966 8.32051 279.343 7.92223C279.72 7.52395 279.698 6.89116 279.294 6.50885L272.712 0.278808ZM274.84 53.5108L273.029 0.979506L271.03 1.02041L272.84 53.5517L274.84 53.5108Z" fill="#79E59B"/>
<path d="M355.456 0.83573C355.135 0.410552 354.505 0.344782 354.049 0.68883L346.616 6.29541C346.16 6.63946 346.051 7.26304 346.371 7.68822C346.692 8.1134 347.322 8.17917 347.778 7.83512L354.385 2.85149L359.03 9.01033C359.351 9.43551 359.981 9.50128 360.437 9.15723C360.893 8.81318 361.003 8.1896 360.682 7.76442L355.456 0.83573ZM346.46 53.6351L355.624 1.56256L353.635 1.35481L344.471 53.4274L346.46 53.6351Z" fill="#79E59B"/>
<path d="M437.903 2.76356C437.667 2.3112 437.05 2.16665 436.527 2.44069L427.992 6.90645C427.468 7.18049 427.235 7.76935 427.472 8.2217C427.709 8.67406 428.325 8.81861 428.849 8.54457L436.435 4.57501L439.864 11.1275C440.101 11.5798 440.717 11.7244 441.241 11.4504C441.765 11.1763 441.997 10.5874 441.761 10.1351L437.903 2.76356ZM418.064 53.7595L437.929 3.48805L435.981 3.03145L416.117 53.303L418.064 53.7595Z" fill="#79E59B"/>
<path d="M519.75 5.98709C519.594 5.51969 519.002 5.29627 518.427 5.48807L509.059 8.61361C508.484 8.80541 508.145 9.3398 508.3 9.8072C508.456 10.2746 509.049 10.498 509.624 10.3062L517.951 7.52796L520.21 14.2984C520.366 14.7658 520.958 14.9892 521.533 14.7974C522.108 14.6056 522.447 14.0713 522.291 13.6039L519.75 5.98709ZM489.652 53.8841L519.645 6.68724L517.774 5.98151L487.78 53.1784L489.652 53.8841Z" fill="#79E59B"/>
<path d="M600.711 10.3794C600.632 9.90493 600.075 9.60305 599.468 9.70512L589.581 11.3684C588.974 11.4705 588.547 11.9378 588.627 12.4123C588.706 12.8867 589.263 13.1886 589.87 13.0866L598.659 11.6081L599.815 18.4807C599.895 18.9551 600.451 19.257 601.058 19.1549C601.665 19.0529 602.092 18.5855 602.012 18.111L600.711 10.3794ZM561.22 54.008L600.492 11.041L598.734 10.0874L559.462 53.0545L561.22 54.008Z" fill="#79E59B"/>
<path d="M680.54 15.7637C680.533 15.2871 680.026 14.9085 679.407 14.9181L669.326 15.0748C668.707 15.0844 668.211 15.4786 668.219 15.9552C668.226 16.4319 668.734 16.8105 669.352 16.8008L678.314 16.6616L678.421 23.5657C678.428 24.0423 678.936 24.4209 679.554 24.4113C680.173 24.4017 680.669 24.0075 680.661 23.5309L680.54 15.7637ZM632.768 54.1292L680.222 16.3791L678.619 15.1832L631.165 52.9333L632.768 54.1292Z" fill="#79E59B"/>
<path d="M759.042 21.9159C759.105 21.4406 758.661 20.9895 758.05 20.9083L748.09 19.5855C747.479 19.5043 746.932 19.8238 746.869 20.2991C746.806 20.7744 747.25 21.2255 747.861 21.3067L756.715 22.4825L755.8 29.3673C755.737 29.8426 756.181 30.2937 756.793 30.3749C757.404 30.4561 757.95 30.1366 758.014 29.6613L759.042 21.9159ZM704.294 54.2437L758.637 22.4814L757.234 21.0564L702.89 52.8188L704.294 54.2437Z" fill="#79E59B"/>
<path d="M836.093 28.5693C836.227 28.0992 835.86 27.5834 835.273 27.4171L825.721 24.7083C825.135 24.5421 824.551 24.7884 824.418 25.2586C824.285 25.7287 824.652 26.2445 825.238 26.4108L833.729 28.8186L831.798 35.6283C831.665 36.0984 832.032 36.6143 832.618 36.7805C833.204 36.9467 833.788 36.7004 833.921 36.2303L836.093 28.5693ZM775.797 54.346L835.612 29.0831L834.452 27.4536L774.638 52.7165L775.797 54.346Z" fill="#79E59B"/>
<path d="M911.66 35.427C911.863 34.9673 911.585 34.3986 911.038 34.1568L902.128 30.2163C901.582 29.9745 900.974 30.1511 900.77 30.6108C900.567 31.0705 900.845 31.6392 901.392 31.881L909.312 35.3836L906.367 42.0425C906.163 42.5022 906.442 43.0709 906.988 43.3127C907.535 43.5545 908.143 43.3778 908.346 42.9182L911.66 35.427ZM847.282 54.4294L911.109 35.8873L910.23 34.091L846.403 52.6331L847.282 54.4294Z" fill="#79E59B"/>
<path d="M985.81 42.1801C986.082 41.7374 985.899 41.1312 985.402 40.8262L977.298 35.8561C976.801 35.5511 976.178 35.6628 975.906 36.1055C975.634 36.5482 975.817 37.1544 976.315 37.4594L983.518 41.8773L979.585 48.2903C979.313 48.733 979.496 49.3391 979.993 49.6441C980.491 49.9491 981.114 49.8375 981.385 49.3947L985.81 42.1801ZM918.757 54.4886L985.199 42.5852L984.621 40.6705L918.179 52.5739L918.757 54.4886Z" fill="#79E59B"/>
<path d="M1058.72 48.5346C1059.05 48.1155 1058.96 47.4885 1058.52 47.1341L1051.3 41.3589C1050.85 41.0045 1050.22 41.057 1049.89 41.4761C1049.55 41.8952 1049.64 42.5222 1050.08 42.8766L1056.51 48.0101L1051.65 54.0809C1051.32 54.5 1051.41 55.1271 1051.85 55.4815C1052.29 55.8359 1052.92 55.7834 1053.26 55.3643L1058.72 48.5346ZM990.232 54.5216L1058.05 48.8833L1057.78 46.9026L989.955 52.5409L990.232 54.5216Z" fill="#79E59B"/>
<path d="M1130.71 54.3949C1131.1 54.0043 1131.1 53.3712 1130.71 52.9806L1124.34 46.6167C1123.95 46.2262 1123.32 46.2262 1122.93 46.6167C1122.54 47.0072 1122.54 47.6404 1122.93 48.0309L1128.59 53.6877L1122.93 59.3446C1122.54 59.7351 1122.54 60.3683 1122.93 60.7588C1123.32 61.1493 1123.95 61.1493 1124.34 60.7588L1130.71 54.3949ZM1061.98 54.6877L1130 54.6877L1130 52.6877L1061.98 52.6877L1061.98 54.6877Z" fill="#79E59B"/>
<path d="M28.2045 61.0608C27.6253 60.8783 27.0361 61.1101 26.8885 61.5786L24.4829 69.2127C24.3353 69.6812 24.6852 70.2089 25.2644 70.3914C25.8436 70.5739 26.4328 70.3421 26.5804 69.8736L28.7187 63.0878L37.1086 65.7315C37.6878 65.914 38.277 65.6822 38.4246 65.2137C38.5722 64.7452 38.2223 64.2175 37.6431 64.035L28.2045 61.0608ZM59.8945 108.342L28.8678 61.543L27.0066 62.2752L58.0334 109.074L59.8945 108.342Z" fill="#79E59B"/>
<path d="M110.372 57.7989C109.844 57.5306 109.229 57.6809 108.999 58.1348L105.241 65.5303C105.01 65.9841 105.251 66.5695 105.78 66.8379C106.308 67.1062 106.923 66.9559 107.153 66.502L110.494 59.9282L118.143 63.8152C118.671 64.0836 119.287 63.9332 119.517 63.4794C119.748 63.0255 119.507 62.4401 118.978 62.1718L110.372 57.7989ZM131.561 108.47L110.926 58.3831L108.984 58.8581L129.618 108.945L131.561 108.47Z" fill="#79E59B"/>
<path d="M193.142 55.9144C192.682 55.5731 192.053 55.6424 191.736 56.0691L186.57 63.0225C186.253 63.4492 186.369 64.0717 186.828 64.413C187.288 64.7542 187.917 64.685 188.234 64.2583L192.825 58.0775L199.48 63.0207C199.939 63.362 200.569 63.2927 200.886 62.866C201.203 62.4393 201.087 61.8167 200.628 61.4755L193.142 55.9144ZM203.209 108.598L193.562 56.5776L191.574 56.7963L201.221 108.817L203.209 108.598Z" fill="#79E59B"/>
<path d="M276.206 55.4796C275.828 55.082 275.195 55.0703 274.792 55.4534L268.231 61.6966C267.829 62.0797 267.809 62.7126 268.187 63.1101C268.566 63.5077 269.199 63.5194 269.601 63.1363L275.433 57.5868L280.913 63.3455C281.291 63.7431 281.924 63.7548 282.327 63.3717C282.73 62.9885 282.749 62.3557 282.371 61.9581L276.206 55.4796ZM274.84 108.726L276.477 56.1917L274.478 56.1548L272.84 108.689L274.84 108.726Z" fill="#79E59B"/>
<path d="M359.241 56.5255C358.949 56.0893 358.323 55.9964 357.842 56.3179L350.003 61.5575C349.522 61.879 349.368 62.4932 349.66 62.9294C349.951 63.3656 350.578 63.4586 351.059 63.137L358.027 58.4796L362.25 64.7979C362.541 65.2341 363.168 65.327 363.649 65.0055C364.13 64.684 364.283 64.0697 363.992 63.6336L359.241 56.5255ZM346.455 108.855L359.359 57.2545L357.381 56.9609L344.476 108.561L346.455 108.855Z" fill="#79E59B"/>
<path d="M441.91 59.0289C441.705 58.5696 441.097 58.3948 440.551 58.6385L431.662 62.6098C431.116 62.8535 430.84 63.4234 431.046 63.8828C431.251 64.3421 431.859 64.5169 432.405 64.2732L440.306 60.7431L443.279 67.3966C443.484 67.8559 444.093 68.0307 444.638 67.787C445.184 67.5433 445.46 66.9734 445.254 66.5141L441.91 59.0289ZM418.052 108.984L441.884 59.7462L439.961 59.1941L416.129 108.432L418.052 108.984Z" fill="#79E59B"/>
<path d="M523.885 62.9168C523.763 62.4456 523.184 62.1884 522.593 62.3423L512.962 64.8498C512.371 65.0037 511.992 65.5104 512.114 65.9816C512.237 66.4528 512.816 66.71 513.407 66.5562L521.967 64.3272L523.744 71.1526C523.867 71.6238 524.446 71.881 525.037 71.7271C525.628 71.5733 526.007 71.0665 525.885 70.5954L523.885 62.9168ZM489.63 109.114L523.729 63.6017L521.902 62.7892L487.802 108.301L489.63 109.114Z" fill="#79E59B"/>
<path d="M604.853 68.0615C604.809 67.5855 604.274 67.246 603.659 67.3032L593.637 68.2353C593.022 68.2925 592.56 68.7247 592.604 69.2007C592.648 69.6767 593.183 70.0162 593.798 69.959L602.706 69.1305L603.347 76.0254C603.392 76.5014 603.926 76.8409 604.541 76.7837C605.156 76.7265 605.619 76.2942 605.575 75.8183L604.853 68.0615ZM561.185 109.244L604.584 68.7013L602.896 67.6289L559.497 108.172L561.185 109.244Z" fill="#79E59B"/>
<path d="M684.535 74.2797C684.566 73.8034 684.092 73.3838 683.475 73.3425L673.424 72.6695C672.807 72.6282 672.281 72.9808 672.25 73.4571C672.218 73.9334 672.692 74.3531 673.309 74.3943L682.243 74.9926L681.781 81.892C681.749 82.3683 682.224 82.788 682.84 82.8293C683.457 82.8705 683.983 82.5179 684.015 82.0416L684.535 74.2797ZM632.716 109.37L684.167 74.8676L682.669 73.5422L631.218 108.045L632.716 109.37Z" fill="#79E59B"/>
<path d="M762.701 81.3305C762.809 80.858 762.413 80.3641 761.816 80.2274L752.088 77.9988C751.491 77.862 750.919 78.1342 750.811 78.6066C750.703 79.0791 751.099 79.573 751.696 79.7098L760.343 81.6907L758.775 88.5348C758.667 89.0072 759.063 89.5011 759.66 89.6379C760.257 89.7746 760.829 89.5025 760.937 89.03L762.701 81.3305ZM704.218 109.488L762.246 81.8629L760.995 80.3028L702.966 107.928L704.218 109.488Z" fill="#79E59B"/>
<path d="M839.202 88.9177C839.389 88.4549 839.088 87.8979 838.53 87.6736L829.444 84.0183C828.887 83.794 828.284 83.9873 828.098 84.4501C827.912 84.913 828.213 85.47 828.77 85.6943L836.846 88.9434L834.149 95.6476C833.963 96.1104 834.264 96.6674 834.821 96.8917C835.379 97.116 835.982 96.9227 836.168 96.4599L839.202 88.9177ZM775.693 109.588L838.668 89.3913L837.717 87.6318L774.742 107.828L775.693 109.588Z" fill="#79E59B"/>
<path d="M913.993 96.7004C914.258 96.2557 914.066 95.6525 913.563 95.3532L905.375 90.4753C904.873 90.1759 904.251 90.2938 903.986 90.7385C903.721 91.1832 903.913 91.7864 904.416 92.0857L911.694 96.4217L907.857 102.864C907.592 103.308 907.784 103.911 908.287 104.211C908.789 104.51 909.411 104.392 909.676 103.948L913.993 96.7004ZM847.147 109.66L913.388 97.1111L912.78 95.2058L846.539 107.755L847.147 109.66Z" fill="#79E59B"/>
<path d="M987.161 104.316C987.502 103.9 987.424 103.271 986.986 102.913L979.849 97.0693C979.411 96.7107 978.78 96.7576 978.439 97.174C978.098 97.5904 978.177 98.2187 978.615 98.5773L984.958 103.772L980.019 109.803C979.678 110.22 979.757 110.848 980.195 111.207C980.632 111.565 981.264 111.518 981.605 111.102L987.161 104.316ZM918.593 109.7L986.493 104.659L986.244 102.675L918.344 107.715L918.593 109.7Z" fill="#79E59B"/>
<path d="M1058.93 111.416C1059.34 111.038 1059.37 110.405 1059 110.004L1052.95 103.463C1052.58 103.061 1051.95 103.043 1051.54 103.422C1051.13 103.8 1051.1 104.433 1051.47 104.834L1056.85 110.649L1050.92 116.134C1050.51 116.513 1050.48 117.145 1050.85 117.547C1051.22 117.948 1051.85 117.967 1052.26 117.588L1058.93 111.416ZM990.045 109.707L1058.21 111.688L1058.31 109.691L990.143 107.709L990.045 109.707Z" fill="#79E59B"/>
<path d="M1129.65 117.706C1130.12 117.371 1130.25 116.751 1129.94 116.321L1124.9 109.317C1124.59 108.887 1123.96 108.81 1123.5 109.146C1123.03 109.481 1122.9 110.101 1123.21 110.531L1127.69 116.757L1120.94 121.613C1120.47 121.948 1120.34 122.568 1120.65 122.998C1120.96 123.428 1121.59 123.505 1122.05 123.169L1129.65 117.706ZM1061.52 109.687L1128.89 117.908L1129.29 115.949L1061.92 107.728L1061.52 109.687Z" fill="#79E59B"/>
<path d="M30.0238 115.561C29.4522 115.362 28.8575 115.579 28.6955 116.046L26.0547 123.649C25.8926 124.116 26.2246 124.655 26.7961 124.853C27.3677 125.052 27.9624 124.835 28.1245 124.368L30.4718 117.61L38.751 120.485C39.3226 120.684 39.9173 120.466 40.0793 120C40.2414 119.533 39.9094 118.994 39.3379 118.796L30.0238 115.561ZM59.9032 163.541L30.6696 116.062L28.7911 116.749L58.0247 164.227L59.9032 163.541Z" fill="#79E59B"/>
<path d="M112.496 112.499C111.98 112.216 111.361 112.35 111.114 112.8L107.086 120.128C106.839 120.578 107.057 121.172 107.573 121.456C108.089 121.739 108.708 121.605 108.955 121.155L112.535 114.641L120.01 118.75C120.526 119.034 121.145 118.899 121.392 118.449C121.639 118 121.421 117.405 120.905 117.121L112.496 112.499ZM131.566 163.672L113.026 113.101L111.071 113.526L129.612 164.097L131.566 163.672Z" fill="#79E59B"/>
<path d="M195.562 110.875C195.119 110.521 194.488 110.573 194.152 110.992L188.686 117.818C188.35 118.237 188.437 118.864 188.88 119.219C189.323 119.573 189.954 119.521 190.29 119.102L195.149 113.035L201.565 118.173C202.008 118.527 202.639 118.475 202.975 118.056C203.31 117.638 203.223 117.01 202.78 116.656L195.562 110.875ZM203.211 163.802L195.951 111.552L193.958 111.716L201.218 163.966L203.211 163.802Z" fill="#79E59B"/>
<path d="M278.904 110.769C278.546 110.361 277.914 110.33 277.492 110.7L270.615 116.733C270.193 117.104 270.141 117.735 270.5 118.143C270.858 118.551 271.49 118.582 271.912 118.212L278.025 112.849L283.212 118.761C283.571 119.17 284.203 119.2 284.625 118.83C285.047 118.46 285.099 117.829 284.741 117.421L278.904 110.769ZM274.839 163.933L279.139 111.488L277.141 111.39L272.841 163.836L274.839 163.933Z" fill="#79E59B"/>
<path d="M362.183 112.219C361.914 111.775 361.291 111.661 360.792 111.963L352.652 116.894C352.152 117.197 351.965 117.802 352.234 118.245C352.502 118.689 353.125 118.803 353.625 118.501L360.86 114.118L364.752 120.543C365.021 120.987 365.644 121.101 366.143 120.799C366.643 120.496 366.83 119.891 366.561 119.448L362.183 112.219ZM346.449 164.065L362.262 112.947L360.295 112.586L344.482 163.704L346.449 164.065Z" fill="#79E59B"/>
<path d="M445.044 115.211C444.863 114.747 444.262 114.548 443.701 114.766L434.559 118.323C433.998 118.542 433.689 119.095 433.87 119.558C434.05 120.022 434.651 120.221 435.212 120.003L443.339 116.841L445.953 123.559C446.133 124.023 446.734 124.222 447.295 124.004C447.856 123.785 448.165 123.232 447.984 122.769L445.044 115.211ZM418.04 164.199L444.977 115.92L443.079 115.292L416.141 163.57L418.04 164.199Z" fill="#79E59B"/>
<path d="M527.134 119.68C527.038 119.207 526.472 118.922 525.871 119.044L516.069 121.034C515.467 121.156 515.058 121.638 515.154 122.112C515.25 122.585 515.815 122.87 516.417 122.748L525.13 120.98L526.521 127.837C526.617 128.311 527.183 128.595 527.784 128.473C528.386 128.351 528.796 127.869 528.7 127.395L527.134 119.68ZM489.609 164.334L526.938 120.351L525.152 119.452L487.823 163.434L489.609 164.334Z" fill="#79E59B"/>
<path d="M608.107 125.507C608.092 125.03 607.579 124.66 606.961 124.679L596.885 124.995C596.266 125.014 595.777 125.416 595.792 125.893C595.807 126.369 596.32 126.74 596.939 126.721L605.895 126.44L606.112 133.343C606.127 133.82 606.64 134.19 607.258 134.171C607.877 134.152 608.366 133.75 608.351 133.273L608.107 125.507ZM561.152 164.47L607.799 126.127L606.177 124.956L559.531 163.299L561.152 164.47Z" fill="#79E59B"/>
<path d="M687.644 132.508C687.71 132.033 687.268 131.579 686.657 131.495L676.708 130.118C676.097 130.034 675.549 130.351 675.483 130.826C675.417 131.301 675.859 131.755 676.47 131.839L685.314 133.062L684.362 139.945C684.296 140.421 684.738 140.874 685.348 140.959C685.959 141.043 686.507 140.726 686.573 140.251L687.644 132.508ZM632.664 164.601L687.236 133.071L685.841 131.638L631.269 163.168L632.664 164.601Z" fill="#79E59B"/>
<path d="M765.467 140.433C765.616 139.965 765.268 139.436 764.689 139.252L755.261 136.256C754.682 136.072 754.092 136.302 753.944 136.771C753.795 137.239 754.143 137.768 754.722 137.951L763.103 140.615L760.946 147.399C760.798 147.867 761.146 148.396 761.725 148.58C762.303 148.764 762.893 148.533 763.042 148.065L765.467 140.433ZM704.142 164.719L764.97 140.935L763.869 139.265L703.042 163.049L704.142 164.719Z" fill="#79E59B"/>
<path d="M841.379 148.959C841.615 148.506 841.38 147.918 840.856 147.645L832.307 143.198C831.782 142.925 831.166 143.07 830.931 143.523C830.695 143.976 830.93 144.564 831.454 144.837L839.053 148.79L835.642 155.347C835.406 155.8 835.641 156.388 836.165 156.661C836.69 156.934 837.306 156.788 837.542 156.335L841.379 148.959ZM775.588 164.813L840.799 149.394L840.059 147.536L774.847 162.955L775.588 164.813Z" fill="#79E59B"/>
<path d="M915.303 157.695C915.626 157.271 915.52 156.647 915.066 156.301L907.669 150.665C907.215 150.319 906.585 150.382 906.262 150.806C905.939 151.231 906.045 151.855 906.499 152.201L913.074 157.211L908.393 163.355C908.07 163.779 908.176 164.403 908.629 164.749C909.083 165.095 909.713 165.031 910.037 164.607L915.303 157.695ZM847.01 164.87L914.649 158.055L914.314 156.083L846.675 162.898L847.01 164.87Z" fill="#79E59B"/>
<path d="M987.331 166.21C987.737 165.829 987.762 165.197 987.387 164.797L981.277 158.289C980.902 157.889 980.269 157.874 979.863 158.255C979.457 158.636 979.432 159.269 979.807 159.669L985.238 165.454L979.359 170.973C978.953 171.354 978.928 171.987 979.303 172.386C979.678 172.786 980.311 172.801 980.717 172.42L987.331 166.21ZM918.429 164.883L986.612 166.486L986.692 164.488L918.508 162.885L918.429 164.883Z" fill="#79E59B"/>
<path d="M1057.74 174.08C1058.22 173.754 1058.37 173.138 1058.07 172.703L1053.23 165.626C1052.93 165.192 1052.31 165.104 1051.83 165.43C1051.35 165.756 1051.21 166.372 1051.5 166.806L1055.81 173.097L1048.9 177.817C1048.43 178.143 1048.28 178.759 1048.58 179.193C1048.87 179.628 1049.5 179.715 1049.98 179.39L1057.74 174.08ZM989.864 164.857L1056.98 174.267L1057.44 172.32L990.324 162.911L989.864 164.857Z" fill="#79E59B"/>
<path d="M1127.01 180.946C1127.54 180.681 1127.78 180.098 1127.56 179.643L1123.86 172.234C1123.63 171.779 1123.01 171.626 1122.48 171.891C1121.95 172.156 1121.71 172.739 1121.93 173.194L1125.22 179.779L1117.54 183.618C1117.01 183.883 1116.76 184.466 1116.99 184.921C1117.21 185.376 1117.83 185.53 1118.36 185.264L1127.01 180.946ZM1061.33 164.806L1126.21 181.044L1126.98 179.201L1062.11 162.963L1061.33 164.806Z" fill="#79E59B"/>
<path d="M31.195 170.328C30.6286 170.119 30.0306 170.327 29.8593 170.793L27.0676 178.374C26.8963 178.839 27.2165 179.385 27.7829 179.594C28.3493 179.802 28.9473 179.594 29.1186 179.129L31.6001 172.39L39.804 175.411C40.3703 175.62 40.9683 175.412 41.1396 174.946C41.3109 174.481 40.9907 173.935 40.4243 173.726L31.195 170.328ZM59.9084 218.732L31.8292 170.842L29.9403 171.499L58.0195 219.389L59.9084 218.732Z" fill="#79E59B"/>
<path d="M113.882 167.396C113.374 167.103 112.753 167.227 112.495 167.674L108.291 174.954C108.033 175.4 108.236 176 108.744 176.294C109.252 176.587 109.872 176.462 110.13 176.016L113.867 169.545L121.223 173.792C121.731 174.086 122.352 173.961 122.61 173.515C122.868 173.068 122.666 172.468 122.158 172.175L113.882 167.396ZM131.57 218.864L114.395 168.008L112.434 168.401L129.609 219.257L131.57 218.864Z" fill="#79E59B"/>
<path d="M197.165 165.946C196.733 165.583 196.101 165.623 195.754 166.037L190.089 172.772C189.741 173.186 189.81 173.815 190.241 174.178C190.673 174.541 191.305 174.501 191.653 174.087L196.688 168.1L202.943 173.361C203.375 173.724 204.007 173.683 204.354 173.27C204.702 172.857 204.634 172.227 204.202 171.864L197.165 165.946ZM203.213 218.997L197.533 166.63L195.538 166.758L201.217 219.125L203.213 218.997Z" fill="#79E59B"/>
<path d="M280.721 166.068C280.377 165.654 279.745 165.61 279.311 165.971L272.226 171.853C271.791 172.214 271.718 172.843 272.062 173.258C272.407 173.673 273.038 173.717 273.473 173.356L279.771 168.127L284.76 174.136C285.104 174.55 285.736 174.594 286.171 174.233C286.605 173.872 286.679 173.243 286.334 172.828L280.721 166.068ZM274.838 219.13L280.932 166.791L278.937 166.653L272.842 218.992L274.838 219.13Z" fill="#79E59B"/>
<path d="M364.2 167.811C363.947 167.363 363.327 167.234 362.816 167.523L354.477 172.229C353.966 172.518 353.756 173.116 354.009 173.564C354.262 174.012 354.882 174.141 355.393 173.852L362.805 169.668L366.469 176.16C366.722 176.608 367.342 176.737 367.854 176.448C368.365 176.159 368.575 175.562 368.322 175.114L364.2 167.811ZM346.444 219.265L364.253 168.538L362.295 168.13L344.486 218.857L346.444 219.265Z" fill="#79E59B"/>
<path d="M447.233 171.175C447.07 170.708 446.474 170.492 445.903 170.692L436.598 173.945C436.027 174.144 435.697 174.684 435.86 175.151C436.023 175.617 436.618 175.833 437.189 175.634L445.46 172.742L447.822 179.499C447.985 179.965 448.58 180.181 449.151 179.982C449.722 179.782 450.053 179.242 449.89 178.776L447.233 171.175ZM418.03 219.402L447.139 171.878L445.259 171.195L416.151 218.719L418.03 219.402Z" fill="#79E59B"/>
<path d="M529.443 176.11C529.366 175.635 528.811 175.33 528.204 175.428L518.302 177.031C517.694 177.129 517.264 177.594 517.341 178.068C517.418 178.543 517.972 178.848 518.58 178.75L527.382 177.325L528.494 184.2C528.571 184.675 529.126 184.98 529.734 184.881C530.341 184.783 530.771 184.319 530.695 183.844L529.443 176.11ZM489.592 219.543L529.219 176.769L527.466 175.806L487.84 218.579L489.592 219.543Z" fill="#79E59B"/>
<path d="M610.452 182.511C610.459 182.035 609.964 181.641 609.345 181.631L599.264 181.477C598.645 181.468 598.138 181.847 598.13 182.323C598.123 182.8 598.619 183.194 599.237 183.203L608.198 183.34L608.093 190.244C608.086 190.721 608.581 191.115 609.2 191.124C609.819 191.134 610.326 190.755 610.333 190.279L610.452 182.511ZM561.124 219.683L610.115 183.117L608.549 181.872L559.559 218.438L561.124 219.683Z" fill="#79E59B"/>
<path d="M689.89 190.212C689.983 189.738 689.57 189.258 688.967 189.14L679.147 187.217C678.544 187.099 677.98 187.387 677.888 187.861C677.795 188.335 678.208 188.814 678.811 188.932L687.54 190.642L686.196 197.503C686.103 197.976 686.517 198.456 687.119 198.574C687.722 198.692 688.286 198.404 688.379 197.93L689.89 190.212ZM632.62 219.818L689.452 190.756L688.146 189.241L631.314 218.303L632.62 219.818Z" fill="#79E59B"/>
<path d="M767.416 198.963C767.599 198.5 767.294 197.945 766.735 197.724L757.618 194.122C757.059 193.901 756.457 194.098 756.274 194.561C756.091 195.024 756.396 195.579 756.955 195.8L765.059 199.002L762.407 205.714C762.224 206.177 762.529 206.732 763.088 206.953C763.648 207.174 764.25 206.978 764.433 206.514L767.416 198.963ZM704.074 219.937L766.885 199.439L765.921 197.687L703.11 218.185L704.074 219.937Z" fill="#79E59B"/>
<path d="M842.755 208.425C843.034 207.984 842.861 207.375 842.37 207.064L834.36 201.995C833.868 201.684 833.244 201.789 832.965 202.23C832.686 202.67 832.859 203.279 833.35 203.591L840.47 208.096L836.433 214.476C836.154 214.917 836.327 215.526 836.818 215.837C837.31 216.148 837.934 216.043 838.213 215.603L842.755 208.425ZM775.49 220.023L842.137 208.824L841.592 206.899L774.945 218.099L775.49 220.023Z" fill="#79E59B"/>
<path d="M915.761 218.155C916.136 217.755 916.111 217.123 915.706 216.742L909.093 210.531C908.687 210.15 908.054 210.165 907.679 210.565C907.304 210.964 907.329 211.597 907.735 211.978L913.613 217.498L908.18 223.283C907.805 223.682 907.83 224.315 908.236 224.696C908.642 225.077 909.275 225.062 909.65 224.663L915.761 218.155ZM846.882 220.06L915.066 218.464L914.987 216.465L846.803 218.062L846.882 220.06Z" fill="#79E59B"/>
<path d="M986.495 227.634C986.958 227.295 987.079 226.674 986.765 226.246L981.66 219.268C981.347 218.84 980.718 218.767 980.255 219.106C979.793 219.444 979.672 220.066 979.985 220.494L984.523 226.696L977.822 231.599C977.359 231.938 977.238 232.559 977.552 232.987C977.865 233.415 978.494 233.488 978.956 233.15L986.495 227.634ZM918.277 220.042L985.737 227.84L986.119 225.877L918.66 218.079L918.277 220.042Z" fill="#79E59B"/>
<path d="M1055.29 236.324C1055.82 236.061 1056.07 235.479 1055.85 235.024L1052.18 227.607C1051.96 227.152 1051.34 226.996 1050.81 227.259C1050.28 227.522 1050.03 228.105 1050.25 228.56L1053.51 235.152L1045.81 238.962C1045.27 239.225 1045.03 239.808 1045.25 240.263C1045.48 240.718 1046.09 240.874 1046.62 240.611L1055.29 236.324ZM989.701 219.98L1054.49 236.42L1055.28 234.581L990.487 218.141L989.701 219.98Z" fill="#79E59B"/>
<path d="M1122.77 243.766C1123.35 243.583 1123.69 243.055 1123.55 242.586L1121.13 234.953C1120.99 234.485 1120.4 234.253 1119.82 234.436C1119.24 234.619 1118.89 235.147 1119.04 235.616L1121.18 242.401L1112.8 245.052C1112.22 245.235 1111.87 245.763 1112.02 246.232C1112.16 246.7 1112.75 246.931 1113.33 246.748L1122.77 243.766ZM1061.17 219.895L1121.95 243.752L1123.05 242.083L1062.27 218.227L1061.17 219.895Z" fill="#79E59B"/>
<path d="M31.6602 225.346C31.0959 225.134 30.4967 225.338 30.3217 225.803L27.4702 233.375C27.2952 233.84 27.6107 234.389 28.175 234.601C28.7392 234.814 29.3385 234.609 29.5134 234.145L32.0481 227.414L40.2212 230.492C40.7855 230.704 41.3847 230.5 41.5597 230.035C41.7347 229.57 41.4191 229.022 40.8549 228.809L31.6602 225.346ZM59.9104 273.913L32.2898 225.865L30.3969 226.511L58.0175 274.559L59.9104 273.913Z" fill="#79E59B"/>
<path d="M114.463 222.461C113.959 222.164 113.337 222.284 113.075 222.729L108.798 229.988C108.535 230.433 108.731 231.035 109.236 231.333C109.74 231.63 110.362 231.51 110.624 231.064L114.426 224.612L121.732 228.917C122.237 229.214 122.858 229.094 123.121 228.649C123.383 228.203 123.187 227.601 122.683 227.304L114.463 222.461ZM131.571 274.047L114.97 223.078L113.006 223.457L129.607 274.426L131.571 274.047Z" fill="#79E59B"/>
<path d="M197.878 221.083C197.452 220.716 196.819 220.751 196.466 221.162L190.714 227.856C190.361 228.266 190.421 228.897 190.848 229.263C191.274 229.63 191.907 229.595 192.26 229.184L197.373 223.234L203.555 228.548C203.982 228.914 204.614 228.879 204.967 228.468C205.32 228.057 205.261 227.427 204.834 227.06L197.878 221.083ZM203.213 274.18L198.238 221.77L196.241 221.883L201.216 274.293L203.213 274.18Z" fill="#79E59B"/>
<path d="M281.58 221.315C281.242 220.897 280.611 220.847 280.17 221.204L272.988 227.012C272.547 227.369 272.464 227.996 272.802 228.414C273.14 228.832 273.771 228.882 274.212 228.525L280.596 223.362L285.49 229.414C285.828 229.832 286.46 229.882 286.9 229.525C287.341 229.169 287.424 228.541 287.086 228.123L281.58 221.315ZM274.837 274.315L281.779 222.039L279.785 221.882L272.843 274.158L274.837 274.315Z" fill="#79E59B"/>
<path d="M365.213 223.215C364.968 222.764 364.349 222.628 363.832 222.909L355.397 227.5C354.879 227.782 354.658 228.375 354.903 228.825C355.148 229.276 355.767 229.412 356.284 229.131L363.782 225.05L367.331 231.572C367.576 232.022 368.195 232.159 368.712 231.877C369.23 231.595 369.451 231.002 369.206 230.552L365.213 223.215ZM346.442 274.452L365.252 223.94L363.299 223.509L344.489 274.021L346.442 274.452Z" fill="#79E59B"/>
<path d="M448.4 226.8C448.247 226.333 447.655 226.107 447.079 226.296L437.692 229.382C437.116 229.572 436.774 230.104 436.927 230.572C437.081 231.04 437.673 231.265 438.249 231.076L446.593 228.333L448.82 235.108C448.974 235.575 449.565 235.801 450.141 235.612C450.717 235.422 451.06 234.89 450.906 234.422L448.4 226.8ZM418.025 274.593L448.292 227.5L446.423 226.787L416.156 273.88L418.025 274.593Z" fill="#79E59B"/>
<path d="M530.75 232.044C530.685 231.569 530.137 231.252 529.526 231.337L519.576 232.713C518.966 232.797 518.524 233.251 518.59 233.726C518.655 234.201 519.204 234.518 519.814 234.434L528.658 233.21L529.61 240.094C529.676 240.569 530.224 240.885 530.835 240.801C531.445 240.717 531.887 240.263 531.821 239.788L530.75 232.044ZM489.582 274.737L530.511 232.697L528.779 231.697L487.85 273.736L489.582 274.737Z" fill="#79E59B"/>
<path d="M611.854 238.869C611.875 238.393 611.391 237.984 610.773 237.957L600.704 237.51C600.086 237.483 599.568 237.847 599.547 238.324C599.526 238.8 600.01 239.209 600.628 239.236L609.578 239.633L609.272 246.535C609.251 247.012 609.735 247.42 610.353 247.447C610.97 247.475 611.488 247.111 611.51 246.634L611.854 238.869ZM561.105 274.881L611.499 239.465L609.971 238.175L559.577 273.591L561.105 274.881Z" fill="#79E59B"/>
<path d="M691.29 247.137C691.401 246.665 691.009 246.168 690.413 246.028L680.703 243.743C680.107 243.603 679.534 243.872 679.423 244.344C679.312 244.816 679.705 245.313 680.301 245.453L688.931 247.484L687.321 254.325C687.21 254.797 687.603 255.294 688.199 255.434C688.795 255.574 689.368 255.305 689.479 254.833L691.29 247.137ZM632.587 275.02L690.832 247.667L689.591 246.099L631.346 273.452L632.587 275.02Z" fill="#79E59B"/>
<path d="M768.637 256.626C768.845 256.167 768.574 255.595 768.03 255.349L759.174 251.327C758.631 251.08 758.022 251.252 757.813 251.71C757.605 252.169 757.877 252.741 758.42 252.988L766.292 256.563L763.274 263.207C763.066 263.666 763.337 264.238 763.881 264.485C764.424 264.732 765.034 264.56 765.242 264.101L768.637 256.626ZM704.021 275.14L768.082 257.083L767.224 255.276L703.163 273.333L704.021 275.14Z" fill="#79E59B"/>
<path d="M843.505 267C843.818 266.571 843.696 265.95 843.233 265.612L835.687 260.102C835.224 259.764 834.595 259.838 834.283 260.266C833.97 260.694 834.092 261.316 834.555 261.654L841.262 266.551L836.732 272.756C836.419 273.184 836.541 273.806 837.004 274.144C837.467 274.482 838.096 274.409 838.409 273.98L843.505 267ZM775.41 275.218L842.859 267.369L842.474 265.406L775.025 273.255L775.41 275.218Z" fill="#79E59B"/>
<path d="M915.618 277.777C916.035 277.403 916.079 276.772 915.716 276.366L909.798 269.756C909.435 269.35 908.802 269.324 908.385 269.697C907.967 270.071 907.924 270.703 908.287 271.108L913.547 276.984L907.503 282.395C907.086 282.768 907.042 283.4 907.405 283.806C907.768 284.211 908.401 284.237 908.818 283.864L915.618 277.777ZM846.774 275.234L914.891 278.04L915.029 276.045L846.912 273.239L846.774 275.234Z" fill="#79E59B"/>
<path d="M984.933 288.331C985.441 288.038 985.645 287.438 985.387 286.991L981.193 279.709C980.935 279.262 980.315 279.137 979.806 279.43C979.298 279.722 979.095 280.322 979.352 280.769L983.081 287.242L975.718 291.483C975.21 291.776 975.006 292.375 975.264 292.822C975.521 293.269 976.142 293.394 976.65 293.101L984.933 288.331ZM918.147 275.183L984.146 288.468L984.788 286.574L918.79 273.289L918.147 275.183Z" fill="#79E59B"/>
<path d="M1051.8 297.947C1052.37 297.752 1052.71 297.216 1052.55 296.749L1049.97 289.138C1049.81 288.671 1049.22 288.45 1048.64 288.644C1048.07 288.839 1047.73 289.375 1047.89 289.842L1050.19 296.608L1041.88 299.426C1041.31 299.621 1040.97 300.157 1041.13 300.624C1041.29 301.091 1041.88 301.312 1042.45 301.118L1051.8 297.947ZM989.562 275.083L1050.98 297.948L1052.04 296.254L990.625 273.389L989.562 275.083Z" fill="#79E59B"/>
<path d="M1117.04 305.984C1117.65 305.89 1118.08 305.43 1118.01 304.955L1116.82 297.217C1116.75 296.742 1116.2 296.433 1115.59 296.526C1114.98 296.62 1114.54 297.08 1114.62 297.555L1115.67 304.433L1106.85 305.786C1106.25 305.879 1105.81 306.34 1105.88 306.814C1105.96 307.289 1106.51 307.599 1107.12 307.505L1117.04 305.984ZM1061.03 274.964L1116.22 305.851L1117.59 304.396L1062.4 273.509L1061.03 274.964Z" fill="#79E59B"/>
<path d="M31.3783 280.618C30.8128 280.408 30.2143 280.615 30.0415 281.08L27.2262 288.657C27.0535 289.122 27.3719 289.67 27.9374 289.88C28.5029 290.09 29.1014 289.883 29.2742 289.418L31.7767 282.683L39.9685 285.726C40.534 285.936 41.1325 285.729 41.3053 285.264C41.478 284.799 41.1596 284.252 40.5941 284.042L31.3783 280.618ZM59.9092 329.087L32.0107 281.134L30.1202 281.786L58.0187 329.74L59.9092 329.087Z" fill="#79E59B"/>
<path d="M114.191 277.689C113.685 277.394 113.064 277.516 112.803 277.962L108.56 285.231C108.3 285.677 108.499 286.278 109.005 286.573C109.511 286.868 110.133 286.746 110.393 286.3L114.164 279.839L121.494 284.118C122 284.413 122.621 284.291 122.882 283.845C123.142 283.399 122.943 282.798 122.437 282.502L114.191 277.689ZM131.571 329.22L114.701 278.304L112.738 278.69L129.608 329.606L131.571 329.22Z" fill="#79E59B"/>
<path d="M197.641 276.271C197.212 275.906 196.58 275.943 196.229 276.355L190.506 283.062C190.154 283.474 190.217 284.104 190.646 284.47C191.074 284.835 191.706 284.798 192.057 284.386L197.145 278.424L203.351 283.72C203.78 284.086 204.412 284.048 204.763 283.637C205.114 283.225 205.052 282.595 204.623 282.229L197.641 276.271ZM203.213 329.354L198.003 276.958L196.006 277.076L201.216 329.472L203.213 329.354Z" fill="#79E59B"/>
<path d="M281.407 276.477C281.068 276.06 280.436 276.011 279.997 276.368L272.834 282.192C272.395 282.55 272.313 283.177 272.653 283.595C272.992 284.012 273.623 284.06 274.063 283.703L280.429 278.526L285.343 284.57C285.682 284.987 286.314 285.036 286.753 284.678C287.193 284.321 287.274 283.693 286.935 283.276L281.407 276.477ZM274.837 329.49L281.608 277.201L279.614 277.047L272.843 329.337L274.837 329.49Z" fill="#79E59B"/>
<path d="M365.138 278.374C364.892 277.924 364.274 277.788 363.757 278.07L355.329 282.67C354.812 282.952 354.592 283.546 354.837 283.996C355.083 284.446 355.701 284.582 356.218 284.3L363.71 280.211L367.268 286.731C367.513 287.181 368.132 287.317 368.649 287.035C369.166 286.753 369.386 286.159 369.141 285.709L365.138 278.374ZM346.442 329.628L365.178 279.1L363.225 278.67L344.489 329.198L346.442 329.628Z" fill="#79E59B"/>
<path d="M448.458 282C448.305 281.532 447.713 281.306 447.137 281.495L437.746 284.573C437.17 284.761 436.827 285.294 436.98 285.761C437.134 286.229 437.725 286.455 438.301 286.266L446.649 283.531L448.869 290.307C449.022 290.774 449.614 291 450.19 290.812C450.766 290.623 451.109 290.09 450.956 289.623L448.458 282ZM418.025 329.77L448.349 282.699L446.481 281.985L416.157 329.056L418.025 329.77Z" fill="#79E59B"/>
<path d="M530.97 287.352C530.906 286.877 530.359 286.558 529.748 286.64L519.791 287.978C519.18 288.06 518.736 288.512 518.8 288.987C518.864 289.462 519.411 289.781 520.022 289.699L528.873 288.51L529.797 295.394C529.861 295.87 530.408 296.188 531.019 296.106C531.63 296.024 532.074 295.572 532.01 295.097L530.97 287.352ZM489.58 329.917L530.727 288.004L528.999 286.997L487.852 328.91L489.58 329.917Z" fill="#79E59B"/>
<path d="M612.246 294.39C612.271 293.913 611.791 293.501 611.173 293.468L601.11 292.938C600.492 292.906 599.971 293.266 599.946 293.742C599.921 294.218 600.401 294.631 601.019 294.664L609.964 295.135L609.601 302.036C609.575 302.512 610.056 302.925 610.673 302.958C611.291 302.99 611.812 302.63 611.837 302.154L612.246 294.39ZM561.1 330.065L611.886 294.983L610.369 293.679L559.583 328.762L561.1 330.065Z" fill="#79E59B"/>
<path d="M691.824 303.023C691.942 302.551 691.558 302.048 690.965 301.899L681.305 299.472C680.712 299.323 680.136 299.584 680.017 300.056C679.899 300.527 680.283 301.03 680.876 301.179L689.463 303.337L687.746 310.168C687.627 310.64 688.012 311.143 688.604 311.292C689.197 311.441 689.774 311.18 689.892 310.708L691.824 303.023ZM632.574 330.208L691.358 303.548L690.143 301.959L631.36 328.619L632.574 330.208Z" fill="#79E59B"/>
<path d="M769.197 313.088C769.418 312.632 769.164 312.052 768.629 311.792L759.917 307.563C759.383 307.304 758.77 307.463 758.549 307.919C758.327 308.375 758.581 308.955 759.116 309.214L766.86 312.974L763.654 319.578C763.432 320.034 763.686 320.614 764.221 320.874C764.756 321.133 765.368 320.974 765.59 320.518L769.197 313.088ZM703.993 330.329L768.63 313.534L767.828 311.702L703.191 328.497L703.993 330.329Z" fill="#79E59B"/>
<path d="M843.826 324.298C844.16 323.878 844.071 323.252 843.626 322.898L836.384 317.137C835.939 316.783 835.309 316.837 834.975 317.256C834.641 317.676 834.731 318.303 835.175 318.656L841.613 323.778L836.777 329.856C836.443 330.275 836.533 330.902 836.977 331.256C837.422 331.609 838.053 331.556 838.386 331.136L843.826 324.298ZM775.359 330.403L843.163 324.648L842.88 322.668L775.076 328.423L775.359 330.403Z" fill="#79E59B"/>
<path d="M915.211 336.176C915.658 335.825 915.751 335.198 915.42 334.778L910.02 327.922C909.689 327.501 909.058 327.445 908.611 327.797C908.165 328.149 908.071 328.775 908.403 329.196L913.202 335.29L906.733 340.386C906.286 340.738 906.193 341.364 906.524 341.784C906.855 342.205 907.486 342.261 907.933 341.909L915.211 336.176ZM846.695 330.402L914.464 336.404L914.759 334.426L846.99 328.424L846.695 330.402Z" fill="#79E59B"/>
<path d="M983.061 347.984C983.602 347.734 983.869 347.16 983.658 346.702L980.21 339.238C979.998 338.78 979.388 338.612 978.847 338.862C978.305 339.112 978.038 339.686 978.25 340.144L981.314 346.778L973.474 350.4C972.933 350.65 972.666 351.224 972.877 351.682C973.089 352.14 973.699 352.309 974.24 352.059L983.061 347.984ZM918.046 330.32L982.255 348.062L983.1 346.249L918.89 328.507L918.046 330.32Z" fill="#79E59B"/>
<path d="M1047.61 358.735C1048.21 358.61 1048.62 358.124 1048.52 357.651L1046.9 349.94C1046.8 349.467 1046.24 349.185 1045.64 349.311C1045.04 349.437 1044.63 349.922 1044.73 350.396L1046.17 357.25L1037.47 359.073C1036.87 359.199 1036.46 359.685 1036.56 360.158C1036.66 360.631 1037.23 360.913 1037.83 360.787L1047.61 358.735ZM989.452 330.18L1046.79 358.646L1048.07 357.112L990.735 328.646L989.452 330.18Z" fill="#79E59B"/>
<path d="M1109.95 367.434C1110.57 367.434 1111.07 367.048 1111.07 366.571L1111.07 358.804C1111.07 358.327 1110.57 357.941 1109.95 357.941C1109.34 357.941 1108.83 358.327 1108.83 358.804L1108.83 365.708L1099.87 365.708C1099.25 365.708 1098.75 366.094 1098.75 366.571C1098.75 367.048 1099.25 367.434 1099.87 367.434L1109.95 367.434ZM1060.93 330.024L1109.16 367.181L1110.75 365.961L1062.51 328.803L1060.93 330.024Z" fill="#79E59B"/>
<path d="M30.3288 336.157C29.7586 335.956 29.163 336.171 28.9985 336.637L26.3184 344.235C26.1539 344.701 26.4829 345.242 27.0531 345.443C27.6233 345.645 28.2189 345.43 28.3834 344.963L30.7657 338.21L39.0256 341.124C39.5958 341.325 40.1914 341.11 40.3558 340.644C40.5203 340.178 40.1914 339.637 39.6212 339.435L30.3288 336.157ZM59.9046 384.25L30.9717 336.662L29.0904 337.341L58.0233 384.929L59.9046 384.25Z" fill="#79E59B"/>
<path d="M113.032 333.093C112.519 332.806 111.9 332.937 111.649 333.385L107.553 340.695C107.301 341.144 107.513 341.74 108.026 342.028C108.539 342.315 109.159 342.184 109.41 341.736L113.051 335.238L120.48 339.401C120.993 339.689 121.613 339.558 121.864 339.109C122.115 338.661 121.903 338.064 121.39 337.777L113.032 333.093ZM131.568 384.383L113.556 333.699L111.599 334.112L129.611 384.796L131.568 384.383Z" fill="#79E59B"/>
<path d="M196.406 331.521C195.969 331.162 195.337 331.208 194.995 331.624L189.424 338.403C189.082 338.819 189.16 339.448 189.597 339.807C190.034 340.166 190.665 340.12 191.007 339.704L195.959 333.678L202.291 338.881C202.728 339.241 203.359 339.195 203.701 338.779C204.043 338.363 203.966 337.734 203.529 337.375L196.406 331.521ZM203.212 384.517L196.784 332.202L194.789 332.347L201.217 384.662L203.212 384.517Z" fill="#79E59B"/>
<path d="M280.139 331.554C279.79 331.141 279.158 331.102 278.728 331.466L271.709 337.397C271.278 337.761 271.212 338.391 271.561 338.804C271.91 339.217 272.542 339.256 272.972 338.892L279.211 333.619L284.264 339.598C284.613 340.011 285.245 340.05 285.675 339.686C286.106 339.322 286.173 338.693 285.824 338.28L280.139 331.554ZM274.838 384.652L280.357 332.275L278.361 332.151L272.842 384.527L274.838 384.652Z" fill="#79E59B"/>
<path d="M363.892 333.273C363.637 332.826 363.017 332.699 362.507 332.99L354.198 337.731C353.689 338.022 353.482 338.621 353.738 339.068C353.993 339.516 354.613 339.643 355.123 339.352L362.508 335.137L366.207 341.619C366.463 342.066 367.083 342.193 367.593 341.902C368.103 341.611 368.309 341.013 368.054 340.565L363.892 333.273ZM346.445 384.79L363.949 334L361.99 333.6L344.486 384.389L346.445 384.79Z" fill="#79E59B"/>
<path d="M447.302 336.73C447.139 336.263 446.544 336.046 445.973 336.245L436.663 339.488C436.092 339.687 435.76 340.227 435.923 340.693C436.085 341.16 436.68 341.377 437.251 341.178L445.527 338.295L447.881 345.052C448.043 345.519 448.638 345.736 449.21 345.537C449.781 345.338 450.112 344.798 449.95 344.332L447.302 336.73ZM418.03 384.932L447.207 337.432L445.328 336.747L416.151 384.247L418.03 384.932Z" fill="#79E59B"/>
<path d="M529.978 341.945C529.906 341.47 529.354 341.16 528.745 341.253L518.823 342.763C518.214 342.856 517.779 343.316 517.851 343.791C517.923 344.266 518.476 344.575 519.085 344.483L527.904 343.14L528.951 350.019C529.024 350.494 529.576 350.803 530.185 350.711C530.794 350.618 531.229 350.158 531.156 349.683L529.978 341.945ZM489.588 385.079L529.748 342.602L528.004 341.623L487.844 384.1L489.588 385.079Z" fill="#79E59B"/>
<path d="M611.499 348.917C611.517 348.44 611.03 348.035 610.412 348.012L600.338 347.641C599.72 347.618 599.205 347.986 599.187 348.462C599.17 348.939 599.657 349.344 600.275 349.367L609.229 349.697L608.974 356.6C608.957 357.076 609.443 357.481 610.062 357.504C610.68 357.527 611.195 357.159 611.213 356.682L611.499 348.917ZM561.11 385.229L611.149 349.515L609.611 348.236L559.572 383.95L561.11 385.229Z" fill="#79E59B"/>
<path d="M691.387 357.617C691.499 357.145 691.108 356.647 690.513 356.505L680.812 354.194C680.216 354.053 679.643 354.32 679.53 354.793C679.418 355.265 679.809 355.762 680.404 355.904L689.027 357.958L687.398 364.797C687.286 365.269 687.677 365.767 688.273 365.909C688.868 366.05 689.442 365.783 689.554 365.311L691.387 357.617ZM632.585 385.376L690.927 358.146L689.691 356.574L631.349 383.804L632.585 385.376Z" fill="#79E59B"/>
<path d="M769.074 367.974C769.293 367.517 769.035 366.939 768.498 366.682L759.753 362.499C759.216 362.243 758.604 362.405 758.386 362.861C758.167 363.318 758.425 363.896 758.962 364.153L766.735 367.871L763.572 374.485C763.354 374.941 763.612 375.519 764.148 375.776C764.685 376.033 765.297 375.871 765.515 375.414L769.074 367.974ZM703.999 385.503L768.51 368.422L767.695 366.596L703.185 383.676L703.999 385.503Z" fill="#79E59B"/>
<path d="M843.868 379.822C844.206 379.404 844.121 378.776 843.68 378.42L836.488 372.619C836.047 372.263 835.416 372.313 835.079 372.731C834.741 373.15 834.826 373.777 835.267 374.133L841.66 379.29L836.774 385.346C836.437 385.764 836.521 386.392 836.963 386.748C837.404 387.104 838.035 387.053 838.372 386.635L843.868 379.822ZM775.351 385.581L843.203 380.168L842.936 378.186L775.084 383.599L775.351 385.581Z" fill="#79E59B"/>
<path d="M914.946 392.794C915.405 392.452 915.521 391.83 915.204 391.403L910.038 384.45C909.721 384.023 909.092 383.954 908.632 384.295C908.173 384.636 908.058 385.259 908.375 385.686L912.966 391.866L906.312 396.81C905.852 397.151 905.737 397.773 906.054 398.2C906.371 398.627 907 398.696 907.46 398.355L914.946 392.794ZM846.66 385.573L914.189 393.004L914.554 391.038L847.025 383.606L846.66 385.573Z" fill="#79E59B"/>
<path d="M981.501 406.118C982.062 405.899 982.37 405.346 982.189 404.882L979.238 397.326C979.057 396.863 978.455 396.664 977.895 396.883C977.334 397.102 977.026 397.655 977.207 398.119L979.831 404.836L971.71 408.007C971.149 408.226 970.841 408.78 971.022 409.243C971.204 409.707 971.805 409.905 972.365 409.686L981.501 406.118ZM917.982 385.464L980.688 406.153L981.659 404.405L918.954 383.716L917.982 385.464Z" fill="#79E59B"/>
<path d="M1043.3 418.418C1043.92 418.354 1044.38 417.917 1044.33 417.441L1043.52 409.687C1043.47 409.211 1042.93 408.877 1042.32 408.941C1041.7 409.005 1041.25 409.443 1041.29 409.919L1042.01 416.811L1033.12 417.738C1032.5 417.802 1032.05 418.239 1032.1 418.715C1032.15 419.191 1032.68 419.525 1033.3 419.461L1043.3 418.418ZM989.371 385.281L1042.49 418.248L1043.94 416.866L990.816 383.898L989.371 385.281Z" fill="#79E59B"/>
<path d="M1101.68 427.962C1102.29 428.056 1102.84 427.746 1102.92 427.272L1104.1 419.534C1104.18 419.059 1103.74 418.598 1103.13 418.505C1102.52 418.412 1101.97 418.721 1101.9 419.196L1100.84 426.074L1092.03 424.721C1091.42 424.628 1090.87 424.937 1090.79 425.412C1090.72 425.887 1091.15 426.347 1091.76 426.441L1101.68 427.962ZM1060.85 385.078L1100.94 427.591L1102.69 426.614L1062.59 384.101L1060.85 385.078Z" fill="#79E59B"/>
<path d="M28.5158 392C27.9378 391.814 27.3477 392.044 27.1976 392.512L24.7517 400.141C24.6016 400.609 24.9484 401.139 25.5264 401.324C26.1043 401.51 26.6945 401.28 26.8446 400.812L29.0187 394.031L37.3902 396.715C37.9681 396.9 38.5583 396.67 38.7084 396.202C38.8585 395.734 38.5117 395.204 37.9337 395.019L28.5158 392ZM59.896 439.404L29.1761 392.485L27.3119 393.21L58.0318 440.128L59.896 439.404Z" fill="#79E59B"/>
<path d="M110.98 388.715C110.455 388.442 109.839 388.588 109.604 389.041L105.769 396.418C105.533 396.871 105.768 397.459 106.293 397.732C106.817 398.004 107.433 397.858 107.669 397.406L111.078 390.848L118.678 394.8C119.203 395.073 119.819 394.927 120.054 394.474C120.29 394.021 120.055 393.433 119.53 393.16L110.98 388.715ZM131.562 439.536L111.527 389.305L109.581 389.765L129.616 439.996L131.562 439.536Z" fill="#79E59B"/>
<path d="M194.149 386.875C193.697 386.528 193.067 386.59 192.742 387.013L187.451 393.915C187.126 394.339 187.23 394.964 187.683 395.311C188.135 395.657 188.765 395.595 189.09 395.172L193.793 389.037L200.349 394.063C200.802 394.41 201.432 394.348 201.757 393.924C202.081 393.5 201.978 392.876 201.525 392.529L194.149 386.875ZM203.21 439.668L194.557 387.544L192.566 387.74L201.219 439.864L203.21 439.668Z" fill="#79E59B"/>
<path d="M277.73 386.592C277.363 386.188 276.73 386.166 276.317 386.542L269.577 392.668C269.163 393.044 269.125 393.676 269.492 394.08C269.859 394.484 270.492 394.506 270.906 394.13L276.897 388.684L282.212 394.532C282.579 394.935 283.212 394.958 283.625 394.582C284.039 394.206 284.077 393.574 283.71 393.17L277.73 386.592ZM274.839 439.802L277.981 387.308L275.982 387.237L272.841 439.731L274.839 439.802Z" fill="#79E59B"/>
<path d="M361.4 387.953C361.125 387.511 360.502 387.403 360.007 387.71L351.946 392.725C351.451 393.033 351.273 393.641 351.547 394.082C351.822 394.524 352.446 394.633 352.941 394.325L360.106 389.867L364.087 396.266C364.361 396.707 364.985 396.816 365.48 396.508C365.975 396.2 366.153 395.593 365.878 395.151L361.4 387.953ZM346.451 439.938L361.49 388.682L359.519 388.339L344.48 439.595L346.451 439.938Z" fill="#79E59B"/>
<path d="M444.817 391.015C444.634 390.552 444.033 390.354 443.473 390.575L434.348 394.162C433.788 394.383 433.482 394.937 433.664 395.4C433.846 395.864 434.448 396.061 435.008 395.841L443.119 392.652L445.759 399.365C445.941 399.829 446.543 400.026 447.103 399.806C447.663 399.586 447.969 399.032 447.786 398.568L444.817 391.015ZM418.041 440.078L444.753 391.725L442.852 391.102L416.14 439.455L418.041 440.078Z" fill="#79E59B"/>
<path d="M527.617 395.815C527.525 395.342 526.961 395.053 526.358 395.17L516.534 397.08C515.931 397.197 515.517 397.676 515.609 398.149C515.701 398.623 516.265 398.912 516.868 398.795L525.6 397.097L526.934 403.959C527.026 404.433 527.59 404.722 528.192 404.604C528.795 404.487 529.209 404.008 529.117 403.534L527.617 395.815ZM489.606 440.223L527.415 396.484L525.635 395.571L487.826 439.31L489.606 440.223Z" fill="#79E59B"/>
<path d="M609.407 402.38C609.404 401.903 608.9 401.52 608.281 401.523L598.199 401.582C597.58 401.585 597.081 401.975 597.083 402.451C597.086 402.928 597.59 403.311 598.209 403.308L607.171 403.256L607.211 410.16C607.214 410.637 607.718 411.02 608.336 411.017C608.955 411.013 609.454 410.624 609.452 410.147L609.407 402.38ZM561.137 440.372L609.082 402.992L607.491 401.781L559.546 439.16L561.137 440.372Z" fill="#79E59B"/>
<path d="M689.739 410.736C689.829 410.262 689.414 409.785 688.811 409.669L678.98 407.784C678.377 407.668 677.814 407.958 677.723 408.432C677.632 408.906 678.048 409.384 678.651 409.499L687.389 411.175L686.073 418.038C685.982 418.512 686.398 418.989 687.001 419.105C687.604 419.221 688.167 418.93 688.258 418.457L689.739 410.736ZM632.623 440.521L689.302 411.281L687.99 409.772L631.311 439.011L632.623 440.521Z" fill="#79E59B"/>
<path d="M768.052 420.918C768.248 420.457 767.96 419.893 767.408 419.659L758.42 415.843C757.868 415.609 757.262 415.793 757.066 416.254C756.871 416.715 757.159 417.279 757.711 417.513L765.7 420.905L762.865 427.585C762.669 428.046 762.957 428.609 763.509 428.844C764.06 429.078 764.666 428.894 764.862 428.433L768.052 420.918ZM704.048 440.656L767.509 421.384L766.598 419.604L703.136 438.876L704.048 440.656Z" fill="#79E59B"/>
<path d="M843.578 432.952C843.895 432.526 843.78 431.903 843.32 431.562L835.834 426.001C835.375 425.66 834.746 425.729 834.429 426.156C834.112 426.582 834.227 427.205 834.686 427.546L841.341 432.489L836.749 438.67C836.432 439.097 836.548 439.719 837.007 440.061C837.467 440.402 838.096 440.333 838.413 439.906L843.578 432.952ZM775.4 440.749L842.929 433.318L842.564 431.351L775.035 438.783L775.4 440.749Z" fill="#79E59B"/>
<path d="M915.171 446.766C915.62 446.416 915.717 445.791 915.388 445.369L910.026 438.497C909.697 438.075 909.067 438.017 908.618 438.367C908.169 438.717 908.072 439.343 908.401 439.765L913.167 445.873L906.667 450.945C906.218 451.295 906.121 451.92 906.45 452.342C906.779 452.764 907.409 452.822 907.858 452.472L915.171 446.766ZM846.689 440.754L914.422 446.991L914.729 445.015L846.996 438.778L846.689 440.754Z" fill="#79E59B"/>
<path d="M981.17 461.864C981.734 461.651 982.05 461.102 981.875 460.637L979.019 453.066C978.844 452.601 978.245 452.397 977.681 452.61C977.117 452.822 976.801 453.371 976.977 453.836L979.515 460.566L971.343 463.647C970.779 463.86 970.464 464.409 970.639 464.874C970.814 465.339 971.414 465.543 971.978 465.33L981.17 461.864ZM917.97 440.633L980.355 461.89L981.351 460.155L918.966 438.899L917.97 440.633Z" fill="#79E59B"/>
<path d="M1039.93 476.537C1040.54 476.518 1041.03 476.115 1041.02 475.639L1040.77 467.872C1040.75 467.396 1040.24 467.026 1039.62 467.045C1039 467.065 1038.51 467.468 1038.53 467.944L1038.75 474.847L1029.79 475.134C1029.18 475.154 1028.69 475.556 1028.7 476.033C1028.72 476.509 1029.23 476.88 1029.85 476.86L1039.93 476.537ZM989.322 440.402L1039.13 476.31L1040.67 475.039L990.866 439.131L989.322 440.402Z" fill="#79E59B"/>
<path d="M1092.42 487.436C1093 487.619 1093.59 487.387 1093.74 486.919L1096.15 479.286C1096.3 478.817 1095.95 478.289 1095.37 478.106C1094.79 477.923 1094.2 478.155 1094.05 478.623L1091.91 485.408L1083.52 482.757C1082.94 482.574 1082.35 482.805 1082.2 483.273C1082.06 483.742 1082.41 484.27 1082.98 484.453L1092.42 487.436ZM1060.79 440.131L1091.76 486.953L1093.62 486.222L1062.65 439.401L1060.79 440.131Z" fill="#79E59B"/>
<path d="M25.9727 448.196C25.3848 448.034 24.8031 448.284 24.6733 448.754L22.5581 456.421C22.4284 456.892 22.7997 457.405 23.3875 457.567C23.9753 457.729 24.5571 457.479 24.6868 457.009L26.567 450.194L35.0818 452.543C35.6696 452.705 36.2513 452.455 36.3811 451.984C36.5109 451.514 36.1396 451.001 35.5518 450.839L25.9727 448.196ZM59.8827 494.547L26.6564 448.653L24.8189 449.443L58.0451 495.337L59.8827 494.547Z" fill="#79E59B"/>
<path d="M108.057 444.618C107.517 444.367 106.906 444.535 106.694 444.993L103.231 452.454C103.018 452.912 103.285 453.486 103.825 453.737C104.366 453.988 104.976 453.82 105.189 453.363L108.267 446.73L116.098 450.365C116.639 450.616 117.249 450.448 117.462 449.99C117.674 449.532 117.408 448.958 116.868 448.707L108.057 444.618ZM131.554 494.677L108.637 445.182L106.708 445.712L129.625 495.207L131.554 494.677Z" fill="#79E59B"/>
<path d="M190.88 442.411C190.405 442.083 189.778 442.169 189.478 442.602L184.596 449.663C184.297 450.097 184.438 450.714 184.913 451.042C185.387 451.37 186.014 451.284 186.314 450.851L190.654 444.574L197.524 449.324C197.998 449.652 198.626 449.566 198.925 449.133C199.225 448.7 199.083 448.083 198.609 447.755L190.88 442.411ZM203.205 494.807L191.328 443.061L189.346 443.331L201.224 495.077L203.205 494.807Z" fill="#79E59B"/>
<path d="M274.163 441.684C273.77 441.295 273.137 441.297 272.749 441.69L266.431 448.081C266.043 448.473 266.048 449.106 266.441 449.495C266.834 449.884 267.468 449.881 267.855 449.489L273.471 443.808L279.169 449.44C279.562 449.829 280.195 449.827 280.583 449.434C280.971 449.042 280.966 448.409 280.573 448.02L274.163 441.684ZM274.84 494.938L274.461 442.389L272.461 442.398L272.84 494.946L274.84 494.938Z" fill="#79E59B"/>
<path d="M357.608 442.518C357.304 442.086 356.676 442.005 356.206 442.336L348.539 447.738C348.069 448.07 347.934 448.688 348.238 449.12C348.543 449.552 349.171 449.633 349.641 449.301L356.455 444.5L360.861 450.752C361.165 451.184 361.793 451.265 362.264 450.933C362.734 450.602 362.869 449.983 362.565 449.552L357.608 442.518ZM346.457 495.07L357.748 443.246L355.765 442.99L344.474 494.814L346.457 495.07Z" fill="#79E59B"/>
<path d="M440.899 444.968C440.685 444.51 440.075 444.343 439.534 444.595L430.732 448.694C430.191 448.946 429.926 449.521 430.14 449.979C430.353 450.436 430.963 450.604 431.504 450.352L439.328 446.708L442.416 453.338C442.629 453.795 443.24 453.962 443.78 453.711C444.321 453.459 444.586 452.884 444.372 452.426L440.899 444.968ZM418.055 495.206L440.885 445.687L438.956 445.159L416.126 494.678L418.055 495.206Z" fill="#79E59B"/>
<path d="M523.707 449.069C523.583 448.598 523.004 448.343 522.413 448.498L512.793 451.033C512.202 451.189 511.824 451.697 511.948 452.168C512.073 452.639 512.652 452.895 513.242 452.739L521.794 450.486L523.592 457.309C523.716 457.78 524.295 458.036 524.886 457.88C525.476 457.725 525.854 457.217 525.73 456.746L523.707 449.069ZM489.631 495.346L523.553 449.755L521.723 448.947L487.801 494.538L489.631 495.346Z" fill="#79E59B"/>
<path d="M605.69 454.852C605.653 454.376 605.124 454.028 604.508 454.076L594.467 454.853C593.851 454.901 593.381 455.326 593.418 455.802C593.455 456.278 593.985 456.626 594.601 456.578L603.526 455.887L604.06 462.785C604.097 463.261 604.626 463.608 605.242 463.561C605.858 463.513 606.328 463.088 606.291 462.612L605.69 454.852ZM561.177 495.491L605.411 455.487L603.739 454.39L559.505 494.393L561.177 495.491Z" fill="#79E59B"/>
<path d="M686.473 462.362C686.526 461.886 686.071 461.446 685.458 461.378L675.46 460.273C674.847 460.206 674.307 460.536 674.254 461.012C674.202 461.488 674.656 461.928 675.27 461.996L684.156 462.978L683.395 469.869C683.342 470.345 683.797 470.785 684.411 470.853C685.024 470.921 685.564 470.59 685.617 470.114L686.473 462.362ZM632.685 495.638L686.081 462.935L684.644 461.544L631.249 494.246L632.685 495.638Z" fill="#79E59B"/>
<path d="M765.597 471.697C765.748 471.228 765.403 470.698 764.825 470.512L755.414 467.477C754.837 467.29 754.246 467.519 754.095 467.987C753.944 468.455 754.29 468.985 754.868 469.172L763.233 471.87L761.046 478.649C760.895 479.117 761.241 479.648 761.818 479.834C762.396 480.02 762.986 479.792 763.137 479.324L765.597 471.697ZM704.138 495.78L765.098 472.197L764.006 470.522L703.046 494.104L704.138 495.78Z" fill="#79E59B"/>
<path d="M842.404 483.054C842.67 482.61 842.479 482.006 841.978 481.706L833.805 476.811C833.303 476.511 832.681 476.627 832.415 477.072C832.149 477.516 832.34 478.12 832.841 478.42L840.106 482.771L836.251 489.208C835.985 489.652 836.175 490.256 836.677 490.556C837.178 490.857 837.801 490.74 838.067 490.296L842.404 483.054ZM775.519 495.895L841.797 483.464L841.194 481.557L774.916 493.988L775.519 495.895Z" fill="#79E59B"/>
<path d="M915.729 496.798C916.13 496.414 916.148 495.781 915.769 495.384L909.584 488.917C909.205 488.52 908.572 488.509 908.17 488.893C907.769 489.277 907.751 489.91 908.131 490.307L913.628 496.056L907.813 501.616C907.411 502 907.394 502.633 907.773 503.03C908.153 503.426 908.786 503.437 909.187 503.053L915.729 496.798ZM846.815 495.942L915.014 497.079L915.07 495.08L846.871 493.942L846.815 495.942Z" fill="#79E59B"/>
<path d="M983.139 513.35C983.679 513.098 983.944 512.523 983.731 512.066L980.256 504.607C980.042 504.149 979.432 503.982 978.891 504.234C978.351 504.486 978.086 505.061 978.3 505.518L981.389 512.148L973.565 515.794C973.024 516.045 972.76 516.62 972.973 517.078C973.186 517.536 973.797 517.703 974.337 517.451L983.139 513.35ZM918.05 495.85L982.334 513.429L983.171 511.613L918.887 494.034L918.05 495.85Z" fill="#79E59B"/>
<path d="M1039.75 531.851C1040.37 531.833 1040.86 531.432 1040.85 530.956L1040.63 523.189C1040.61 522.713 1040.1 522.341 1039.48 522.358C1038.87 522.376 1038.38 522.777 1038.39 523.253L1038.59 530.157L1029.63 530.412C1029.01 530.43 1028.52 530.831 1028.53 531.307C1028.55 531.784 1029.06 532.156 1029.68 532.138L1039.75 531.851ZM989.319 495.575L1038.96 531.621L1040.5 530.355L990.868 494.309L989.319 495.575Z" fill="#79E59B"/>
<path d="M1082.39 545.742C1082.92 546.007 1083.53 545.853 1083.76 545.399L1087.46 537.99C1087.69 537.535 1087.44 536.952 1086.91 536.687C1086.38 536.422 1085.76 536.575 1085.54 537.03L1082.25 543.616L1074.56 539.777C1074.03 539.512 1073.42 539.666 1073.19 540.121C1072.96 540.575 1073.21 541.159 1073.74 541.424L1082.39 545.742ZM1060.75 495.185L1081.83 545.162L1083.77 544.676L1062.69 494.699L1060.75 495.185Z" fill="#79E59B"/>
<path d="M22.7664 504.813C22.1678 504.682 21.5983 504.958 21.4944 505.431L19.8012 513.136C19.6973 513.609 20.0983 514.099 20.697 514.231C21.2956 514.362 21.8651 514.086 21.9691 513.613L23.4741 506.764L32.1456 508.669C32.7442 508.801 33.3137 508.524 33.4176 508.051C33.5215 507.578 33.1205 507.089 32.5218 506.957L22.7664 504.813ZM59.8634 549.682L23.4778 505.232L21.6788 506.106L58.0644 550.556L59.8634 549.682Z" fill="#79E59B"/>
<path d="M104.326 500.889C103.766 500.668 103.164 500.864 102.981 501.328L99.9959 508.878C99.8128 509.341 100.118 509.896 100.677 510.117C101.236 510.339 101.838 510.142 102.022 509.679L104.675 502.967L112.778 506.171C113.337 506.392 113.939 506.196 114.122 505.732C114.305 505.269 114 504.714 113.441 504.493L104.326 500.889ZM131.54 549.809L104.945 501.418L103.043 502.038L129.639 550.429L131.54 549.809Z" fill="#79E59B"/>
<path d="M186.645 498.241C186.144 497.94 185.522 498.056 185.255 498.501L180.907 505.739C180.64 506.183 180.83 506.787 181.331 507.088C181.832 507.389 182.455 507.273 182.721 506.828L186.586 500.395L193.843 504.754C194.344 505.055 194.967 504.939 195.233 504.495C195.5 504.05 195.31 503.446 194.809 503.145L186.645 498.241ZM203.198 549.935L187.145 498.862L185.179 499.229L201.232 550.302L203.198 549.935Z" fill="#79E59B"/>
<path d="M269.466 496.967C269.039 496.6 268.407 496.636 268.054 497.047L262.306 503.743C261.954 504.153 262.014 504.784 262.441 505.15C262.868 505.517 263.5 505.481 263.853 505.07L268.962 499.119L275.149 504.429C275.576 504.796 276.208 504.76 276.561 504.349C276.913 503.938 276.853 503.308 276.426 502.941L269.466 496.967ZM274.838 550.062L269.826 497.654L267.829 497.767L272.842 550.175L274.838 550.062Z" fill="#79E59B"/>
<path d="M352.51 497.139C352.167 496.724 351.535 496.679 351.1 497.039L343.996 502.908C343.56 503.268 343.485 503.896 343.828 504.312C344.171 504.727 344.803 504.772 345.239 504.412L351.553 499.195L356.524 505.213C356.868 505.628 357.499 505.673 357.935 505.313C358.371 504.952 358.446 504.324 358.103 503.908L352.51 497.139ZM346.463 550.189L352.718 497.862L350.724 497.72L344.468 550.048L346.463 550.189Z" fill="#79E59B"/>
<path d="M435.487 498.796C435.231 498.348 434.611 498.222 434.101 498.513L425.795 503.258C425.286 503.549 425.08 504.148 425.335 504.595C425.591 505.043 426.211 505.169 426.721 504.878L434.104 500.66L437.806 507.141C438.062 507.588 438.682 507.715 439.192 507.424C439.702 507.133 439.907 506.534 439.652 506.086L435.487 498.796ZM418.07 550.319L435.544 499.523L433.584 499.123L416.111 549.919L418.07 550.319Z" fill="#79E59B"/>
<path d="M518.102 501.953C517.933 501.487 517.336 501.277 516.768 501.483L507.518 504.842C506.95 505.048 506.627 505.593 506.796 506.058C506.965 506.524 507.563 506.734 508.13 506.528L516.353 503.542L518.802 510.286C518.971 510.751 519.568 510.962 520.136 510.755C520.703 510.549 521.026 510.005 520.857 509.539L518.102 501.953ZM489.659 550.451L518.018 502.658L516.131 501.994L487.773 549.787L489.659 550.451Z" fill="#79E59B"/>
<path d="M600.065 506.61C599.98 506.136 599.42 505.839 598.815 505.948L588.954 507.721C588.349 507.83 587.928 508.302 588.013 508.776C588.098 509.25 588.658 509.547 589.263 509.438L598.028 507.862L599.262 514.73C599.348 515.204 599.907 515.5 600.512 515.392C601.117 515.283 601.539 514.81 601.454 514.336L600.065 506.61ZM561.225 550.586L599.853 507.275L598.085 506.339L559.457 549.651L561.225 550.586Z" fill="#79E59B"/>
<path d="M681.084 512.773C681.081 512.296 680.578 511.912 679.959 511.915L669.876 511.963C669.258 511.966 668.758 512.355 668.76 512.832C668.762 513.308 669.266 513.692 669.885 513.689L678.847 513.647L678.88 520.551C678.882 521.028 679.386 521.412 680.004 521.409C680.623 521.406 681.123 521.017 681.121 520.54L681.084 512.773ZM632.762 550.725L680.758 513.385L679.168 512.172L631.172 549.512L632.762 550.725Z" fill="#79E59B"/>
<path d="M760.851 520.488C760.935 520.014 760.513 519.542 759.908 519.435L750.043 517.677C749.438 517.569 748.879 517.866 748.794 518.34C748.71 518.815 749.132 519.286 749.737 519.394L758.506 520.957L757.282 527.825C757.197 528.299 757.62 528.771 758.225 528.879C758.83 528.987 759.39 528.69 759.474 528.216L760.851 520.488ZM704.259 550.864L760.422 521.038L759.088 519.548L702.925 549.373L704.259 550.864Z" fill="#79E59B"/>
<path d="M838.99 529.924C839.172 529.46 838.866 528.906 838.306 528.686L829.179 525.101C828.619 524.881 828.018 525.079 827.836 525.542C827.654 526.006 827.96 526.56 828.52 526.78L836.632 529.967L833.995 536.681C833.813 537.144 834.119 537.698 834.679 537.918C835.239 538.138 835.841 537.941 836.023 537.477L838.99 529.924ZM775.701 550.994L838.46 530.401L837.492 528.65L774.734 549.244L775.701 550.994Z" fill="#79E59B"/>
<path d="M914.875 541.564C915.174 541.131 915.033 540.514 914.558 540.186L906.829 534.842C906.355 534.514 905.727 534.599 905.428 535.033C905.128 535.466 905.27 536.083 905.744 536.411L912.615 541.161L908.275 547.438C907.975 547.872 908.117 548.489 908.591 548.817C909.065 549.145 909.693 549.059 909.992 548.626L914.875 541.564ZM847.066 551.093L914.239 541.945L913.792 539.996L846.619 549.144L847.066 551.093Z" fill="#79E59B"/>
<path d="M986.854 556.774C987.3 556.421 987.392 555.795 987.059 555.375L981.642 548.527C981.31 548.106 980.679 548.052 980.233 548.404C979.788 548.757 979.696 549.383 980.028 549.803L984.844 555.891L978.388 560.998C977.942 561.35 977.85 561.977 978.183 562.397C978.515 562.817 979.146 562.872 979.592 562.519L986.854 556.774ZM918.323 551.108L986.108 557.003L986.398 555.024L918.613 549.129L918.323 551.108Z" fill="#79E59B"/>
<path d="M1047.96 579.033C1048.56 578.902 1048.96 578.412 1048.85 577.939L1047.17 570.234C1047.06 569.761 1046.49 569.484 1045.89 569.615C1045.3 569.746 1044.89 570.236 1045 570.709L1046.5 577.558L1037.83 579.458C1037.23 579.589 1036.83 580.079 1036.93 580.552C1037.03 581.025 1037.6 581.302 1038.2 581.171L1047.96 579.033ZM989.46 550.892L1047.14 578.95L1048.4 577.403L990.728 549.345L989.46 550.892Z" fill="#79E59B"/>
<path d="M1071.83 602.799C1072.3 603.134 1072.93 603.057 1073.23 602.628L1078.27 595.623C1078.58 595.193 1078.45 594.573 1077.98 594.238C1077.52 593.903 1076.89 593.98 1076.58 594.409L1072.11 600.635L1065.35 595.78C1064.88 595.444 1064.26 595.521 1063.95 595.951C1063.64 596.381 1063.77 597.001 1064.23 597.336L1071.83 602.799ZM1060.73 550.24L1071.4 602.142L1073.38 601.9L1062.71 549.998L1060.73 550.24Z" fill="#79E59B"/>
<path d="M19.0003 561.922C18.3915 561.829 17.839 562.138 17.7662 562.613L16.5793 570.351C16.5065 570.826 16.9409 571.286 17.5496 571.38C18.1583 571.473 18.7109 571.164 18.7837 570.689L19.8387 563.811L28.6563 565.163C29.265 565.257 29.8175 564.947 29.8903 564.473C29.9632 563.998 29.5288 563.537 28.92 563.444L19.0003 561.922ZM59.8365 604.807L19.741 562.294L17.9958 563.27L58.0913 605.783L59.8365 604.807Z" fill="#79E59B"/>
<path d="M99.8886 557.625C99.3097 557.442 98.7203 557.674 98.5722 558.142L96.159 565.775C96.0109 566.244 96.3602 566.772 96.9392 566.955C97.5182 567.138 98.1076 566.906 98.2556 566.438L100.401 559.653L108.787 562.304C109.366 562.487 109.955 562.256 110.104 561.788C110.252 561.319 109.902 560.791 109.323 560.608L99.8886 557.625ZM131.52 604.93L100.551 558.108L98.6896 558.839L129.658 605.66L131.52 604.93Z" fill="#79E59B"/>
<path d="M181.546 554.495C181.016 554.23 180.401 554.383 180.174 554.838L176.474 562.247C176.247 562.702 176.493 563.285 177.024 563.55C177.554 563.815 178.169 563.661 178.396 563.207L181.685 556.621L189.371 560.46C189.901 560.725 190.516 560.571 190.743 560.116C190.97 559.662 190.724 559.078 190.193 558.813L181.546 554.495ZM203.185 605.052L182.105 555.075L180.165 555.561L201.245 605.538L203.185 605.052Z" fill="#79E59B"/>
<path d="M263.728 552.615C263.262 552.279 262.634 552.356 262.325 552.786L257.289 559.79C256.98 560.22 257.108 560.84 257.574 561.176C258.04 561.511 258.669 561.434 258.978 561.004L263.454 554.778L270.208 559.634C270.674 559.969 271.303 559.893 271.612 559.463C271.921 559.033 271.793 558.413 271.327 558.077L263.728 552.615ZM274.833 605.174L264.162 553.272L262.176 553.514L272.847 605.416L274.833 605.174Z" fill="#79E59B"/>
<path d="M346.101 552.146C345.711 551.755 345.078 551.755 344.687 552.146L338.323 558.51C337.933 558.9 337.933 559.533 338.323 559.924C338.714 560.314 339.347 560.314 339.737 559.924L345.394 554.267L351.051 559.924C351.441 560.314 352.075 560.314 352.465 559.924C352.856 559.533 352.856 558.9 352.465 558.51L346.101 552.146ZM346.394 605.254L346.394 552.853L344.394 552.853L344.394 605.254L346.394 605.254Z" fill="#79E59B"/>
<path d="M428.606 552.786C428.297 552.356 427.668 552.279 427.202 552.615L419.603 558.077C419.137 558.413 419.01 559.033 419.319 559.463C419.628 559.893 420.256 559.969 420.722 559.634L427.477 554.778L431.953 561.004C432.262 561.434 432.89 561.511 433.357 561.176C433.823 560.84 433.95 560.22 433.641 559.79L428.606 552.786ZM418.083 605.416L428.754 553.514L426.769 553.272L416.098 605.174L418.083 605.416Z" fill="#79E59B"/>
<path d="M510.756 554.838C510.529 554.383 509.915 554.23 509.385 554.495L500.738 558.813C500.207 559.078 499.961 559.662 500.188 560.116C500.415 560.571 501.029 560.725 501.56 560.46L509.246 556.621L512.535 563.207C512.762 563.661 513.376 563.815 513.907 563.55C514.438 563.285 514.684 562.702 514.457 562.247L510.756 554.838ZM489.686 605.538L510.766 555.561L508.826 555.075L487.746 605.052L489.686 605.538Z" fill="#79E59B"/>
<path d="M592.358 558.142C592.21 557.674 591.621 557.442 591.042 557.625L581.607 560.608C581.028 560.791 580.679 561.319 580.827 561.788C580.975 562.256 581.565 562.487 582.143 562.304L590.53 559.653L592.675 566.438C592.823 566.906 593.412 567.138 593.991 566.955C594.57 566.772 594.92 566.244 594.772 565.775L592.358 558.142ZM561.272 605.66L592.241 558.839L590.379 558.108L559.41 604.93L561.272 605.66Z" fill="#79E59B"/>
<path d="M673.164 562.613C673.092 562.138 672.539 561.829 671.93 561.922L662.011 563.444C661.402 563.537 660.967 563.998 661.04 564.473C661.113 564.947 661.666 565.257 662.274 565.163L671.092 563.811L672.147 570.689C672.22 571.164 672.772 571.473 673.381 571.38C673.99 571.286 674.424 570.826 674.351 570.351L673.164 562.613ZM632.839 605.783L672.935 563.27L671.19 562.294L631.094 604.807L632.839 605.783Z" fill="#79E59B"/>
<path d="M752.947 568.137C752.947 567.661 752.446 567.274 751.827 567.274L741.744 567.274C741.125 567.274 740.624 567.661 740.624 568.137C740.624 568.614 741.125 569 741.744 569L750.707 569L750.707 575.905C750.707 576.381 751.208 576.768 751.827 576.768C752.446 576.768 752.947 576.381 752.947 575.905L752.947 568.137ZM704.384 605.905L752.619 568.747L751.035 567.527L702.8 604.685L704.384 605.905Z" fill="#79E59B"/>
<path d="M831.506 574.576C831.579 574.102 831.145 573.641 830.536 573.548L820.616 572.026C820.008 571.933 819.455 572.242 819.382 572.717C819.309 573.192 819.744 573.652 820.353 573.746L829.17 575.098L828.115 581.976C828.042 582.451 828.477 582.912 829.086 583.005C829.694 583.098 830.247 582.789 830.32 582.314L831.506 574.576ZM775.904 606.022L831.09 575.135L829.718 573.68L774.531 604.567L775.904 606.022Z" fill="#79E59B"/>
<path d="M908.671 581.77C908.819 581.301 908.47 580.773 907.891 580.59L898.456 577.607C897.877 577.424 897.287 577.656 897.139 578.124C896.991 578.592 897.341 579.121 897.92 579.304L906.306 581.955L904.161 588.74C904.013 589.208 904.362 589.736 904.941 589.92C905.52 590.103 906.11 589.871 906.258 589.403L908.671 581.77ZM847.394 606.129L908.174 582.272L907.071 580.604L846.291 604.461L847.394 606.129Z" fill="#79E59B"/>
<path d="M984.305 589.536C984.532 589.082 984.286 588.498 983.755 588.233L975.109 583.915C974.578 583.65 973.964 583.803 973.737 584.258C973.51 584.713 973.756 585.296 974.286 585.561L981.972 589.4L978.683 595.986C978.456 596.44 978.702 597.024 979.233 597.289C979.764 597.554 980.378 597.4 980.605 596.945L984.305 589.536ZM918.857 606.216L983.733 589.978L982.956 588.135L918.08 604.374L918.857 606.216Z" fill="#79E59B"/>
<path d="M1058.31 597.681C1058.62 597.252 1058.49 596.631 1058.03 596.296L1050.43 590.833C1049.96 590.498 1049.33 590.575 1049.03 591.005C1048.72 591.435 1048.84 592.055 1049.31 592.39L1056.06 597.246L1051.59 603.472C1051.28 603.902 1051.41 604.522 1051.87 604.857C1052.34 605.192 1052.97 605.116 1053.28 604.686L1058.31 597.681ZM990.295 606.274L1057.67 598.054L1057.27 596.095L989.892 604.315L990.295 606.274Z" fill="#79E59B"/>
<path d="M14.8137 619.595C14.1975 619.547 13.6681 619.894 13.6311 620.371L13.028 628.131C12.991 628.607 13.4605 629.032 14.0766 629.08C14.6927 629.127 15.2222 628.78 15.2592 628.304L15.7953 621.406L24.7201 622.1C25.3362 622.148 25.8657 621.801 25.9027 621.324C25.9397 620.848 25.4702 620.423 24.8541 620.375L14.8137 619.595ZM59.8002 659.923L15.5829 619.909L13.9104 621.006L58.1277 661.02L59.8002 659.923Z" fill="#79E59B"/>
<path d="M94.8951 614.928C94.298 614.792 93.7264 615.064 93.6184 615.537L91.8586 623.236C91.7506 623.709 92.147 624.203 92.7441 624.339C93.3412 624.475 93.9127 624.203 94.0207 623.731L95.5851 616.886L104.234 618.863C104.831 618.999 105.402 618.727 105.51 618.255C105.618 617.782 105.222 617.288 104.625 617.152L94.8951 614.928ZM131.492 660.041L95.6022 615.353L93.7968 616.214L129.687 660.902L131.492 660.041Z" fill="#79E59B"/>
<path d="M175.739 611.31C175.178 611.091 174.577 611.289 174.395 611.752L171.437 619.307C171.256 619.771 171.563 620.324 172.123 620.544C172.684 620.763 173.285 620.565 173.467 620.102L176.096 613.386L184.213 616.564C184.773 616.784 185.375 616.586 185.556 616.122C185.738 615.658 185.431 615.105 184.87 614.885L175.739 611.31ZM203.164 660.159L176.36 611.837L174.46 612.462L201.265 660.784L203.164 660.159Z" fill="#79E59B"/>
<path d="M257.109 608.811C256.601 608.518 255.98 608.642 255.722 609.089L251.522 616.37C251.264 616.817 251.467 617.417 251.975 617.71C252.483 618.003 253.103 617.878 253.361 617.431L257.095 610.96L264.454 615.205C264.962 615.498 265.583 615.374 265.84 614.927C266.098 614.48 265.895 613.88 265.387 613.587L257.109 608.811ZM274.82 660.275L257.623 609.423L255.662 609.817L272.86 660.668L274.82 660.275Z" fill="#79E59B"/>
<path d="M338.753 607.467C338.309 607.113 337.678 607.165 337.343 607.584L331.884 614.414C331.549 614.833 331.637 615.46 332.08 615.814C332.524 616.169 333.155 616.116 333.49 615.697L338.342 609.626L344.765 614.76C345.208 615.114 345.839 615.062 346.174 614.643C346.509 614.224 346.421 613.597 345.978 613.242L338.753 607.467ZM346.462 660.389L339.143 608.143L337.15 608.309L344.469 660.554L346.462 660.389Z" fill="#79E59B"/>
<path d="M420.405 607.274C420.033 606.872 419.4 606.854 418.991 607.233L412.318 613.404C411.909 613.783 411.878 614.415 412.249 614.817C412.62 615.218 413.253 615.237 413.663 614.858L419.594 609.372L424.972 615.187C425.343 615.588 425.976 615.606 426.385 615.228C426.795 614.849 426.826 614.217 426.454 613.815L420.405 607.274ZM418.09 660.5L420.663 607.989L418.664 607.931L416.091 660.442L418.09 660.5Z" fill="#79E59B"/>
<path d="M501.793 608.182C501.496 607.747 500.869 607.66 500.393 607.985L492.627 613.295C492.151 613.621 492.005 614.237 492.302 614.672C492.599 615.106 493.226 615.194 493.702 614.868L500.605 610.148L504.907 616.439C505.203 616.873 505.831 616.961 506.307 616.635C506.784 616.309 506.929 615.693 506.632 615.259L501.793 608.182ZM489.706 660.61L501.921 608.911L499.94 608.633L487.726 660.333L489.706 660.61Z" fill="#79E59B"/>
<path d="M582.645 610.084C582.42 609.629 581.806 609.473 581.274 609.736L572.604 614.022C572.072 614.285 571.823 614.868 572.048 615.323C572.273 615.778 572.886 615.934 573.418 615.671L581.125 611.86L584.385 618.453C584.61 618.908 585.223 619.064 585.755 618.801C586.287 618.538 586.536 617.956 586.311 617.5L582.645 610.084ZM561.311 660.717L582.651 610.806L580.712 610.314L559.372 660.225L561.311 660.717Z" fill="#79E59B"/>
<path d="M662.687 612.805C662.528 612.338 661.935 612.118 661.361 612.312L652.015 615.483C651.442 615.677 651.105 616.214 651.264 616.681C651.422 617.148 652.016 617.369 652.589 617.174L660.897 614.356L663.192 621.121C663.35 621.588 663.944 621.809 664.517 621.615C665.091 621.42 665.427 620.884 665.269 620.417L662.687 612.805ZM632.904 660.82L662.585 613.507L660.711 612.809L631.03 660.123L632.904 660.82Z" fill="#79E59B"/>
<path d="M741.63 616.072C741.531 615.599 740.964 615.317 740.364 615.443L730.58 617.495C729.98 617.621 729.574 618.106 729.673 618.579C729.772 619.053 730.339 619.334 730.939 619.208L739.636 617.385L741.073 624.239C741.172 624.712 741.739 624.994 742.34 624.868C742.94 624.742 743.346 624.256 743.247 623.783L741.63 616.072ZM704.488 660.916L741.439 616.745L739.648 615.855L702.696 660.027L704.488 660.916Z" fill="#79E59B"/>
<path d="M819.125 619.434C819.075 618.958 818.537 618.625 817.923 618.689L807.916 619.731C807.302 619.795 806.844 620.232 806.894 620.708C806.944 621.184 807.482 621.518 808.096 621.454L816.991 620.528L817.709 627.42C817.758 627.896 818.296 628.23 818.91 628.166C819.524 628.102 819.982 627.664 819.932 627.188L819.125 619.434ZM776.067 660.999L818.862 620.077L817.163 619.023L774.368 659.944L776.067 660.999Z" fill="#79E59B"/>
<path d="M894.576 622.069C894.56 621.593 894.047 621.222 893.428 621.242L883.353 621.565C882.734 621.584 882.245 621.987 882.261 622.463C882.276 622.94 882.79 623.31 883.408 623.29L892.364 623.004L892.585 629.907C892.6 630.384 893.114 630.754 893.732 630.734C894.35 630.714 894.839 630.312 894.824 629.835L894.576 622.069ZM847.654 661.056L894.267 622.69L892.645 621.52L846.032 659.887L847.654 661.056Z" fill="#79E59B"/>
<path d="M966.38 622.202C966.366 621.726 965.854 621.354 965.236 621.371L955.158 621.659C954.54 621.676 954.05 622.077 954.063 622.554C954.077 623.03 954.589 623.402 955.208 623.385L964.165 623.129L964.362 630.033C964.376 630.509 964.888 630.881 965.506 630.864C966.125 630.846 966.615 630.445 966.601 629.969L966.38 622.202ZM919.278 661.059L966.069 622.822L964.451 621.647L917.659 659.884L919.278 661.059Z" fill="#79E59B"/>
<path d="M1027.6 615.803C1027.5 615.33 1026.93 615.053 1026.33 615.184L1016.57 617.322C1015.97 617.453 1015.57 617.943 1015.67 618.415C1015.78 618.888 1016.35 619.165 1016.95 619.034L1025.62 617.134L1027.12 623.983C1027.22 624.456 1027.79 624.733 1028.39 624.602C1028.99 624.471 1029.39 623.981 1029.29 623.508L1027.6 615.803ZM990.993 660.909L1027.42 616.478L1025.62 615.603L989.194 660.034L990.993 660.909Z" fill="#79E59B"/>
<path d="M1051.61 607.791C1051.14 607.456 1050.51 607.533 1050.2 607.962L1045.17 614.967C1044.86 615.397 1044.99 616.017 1045.45 616.352C1045.92 616.687 1046.55 616.611 1046.86 616.181L1051.33 609.955L1058.09 614.811C1058.55 615.146 1059.18 615.069 1059.49 614.639C1059.8 614.209 1059.67 613.589 1059.21 613.254L1051.61 607.791ZM1062.71 660.35L1052.04 608.448L1050.06 608.691L1060.73 660.593L1062.71 660.35Z" fill="#79E59B"/>
<path d="M10.3796 677.893C9.76086 677.898 9.26195 678.287 9.26524 678.764L9.3189 686.531C9.32219 687.008 9.82643 687.391 10.4452 687.387C11.0639 687.383 11.5628 686.993 11.5595 686.516L11.5118 679.612L20.4742 679.55C21.0929 679.546 21.5918 679.156 21.5885 678.679C21.5852 678.202 21.081 677.819 20.4623 677.824L10.3796 677.893ZM59.7519 715.032L11.1735 678.141L9.59759 679.372L58.176 716.263L59.7519 715.032Z" fill="#79E59B"/>
<path d="M89.5354 672.888C88.9244 672.806 88.3774 673.125 88.3137 673.6L87.2763 681.345C87.2127 681.82 87.6564 682.272 88.2675 682.354C88.8786 682.435 89.4255 682.117 89.4892 681.641L90.4113 674.757L99.2628 675.942C99.8739 676.024 100.421 675.705 100.484 675.23C100.548 674.755 100.104 674.303 99.4933 674.221L89.5354 672.888ZM131.453 715.144L90.284 673.244L88.5563 674.252L129.725 716.151L131.453 715.144Z" fill="#79E59B"/>
<path d="M169.431 668.814C168.844 668.65 168.262 668.899 168.13 669.369L165.988 677.033C165.857 677.503 166.226 678.018 166.813 678.182C167.4 678.346 167.983 678.098 168.114 677.627L170.018 670.815L178.522 673.192C179.109 673.356 179.692 673.108 179.823 672.637C179.954 672.167 179.585 671.653 178.998 671.489L169.431 668.814ZM203.135 715.256L170.113 669.274L168.273 670.058L201.295 716.04L203.135 715.256Z" fill="#79E59B"/>
<path d="M249.838 665.732C249.29 665.493 248.683 665.672 248.482 666.132L245.207 673.63C245.006 674.091 245.287 674.658 245.836 674.897C246.384 675.137 246.991 674.958 247.192 674.498L250.103 667.832L258.045 671.3C258.593 671.54 259.2 671.361 259.401 670.901C259.602 670.441 259.321 669.873 258.772 669.634L249.838 665.732ZM274.799 715.365L250.433 666.283L248.515 666.848L272.881 715.93L274.799 715.365Z" fill="#79E59B"/>
<path d="M330.505 663.663C330.008 663.358 329.385 663.47 329.113 663.912L324.688 671.127C324.416 671.57 324.599 672.176 325.097 672.481C325.594 672.786 326.217 672.674 326.489 672.232L330.422 665.819L337.625 670.236C338.122 670.541 338.746 670.43 339.017 669.987C339.289 669.544 339.106 668.938 338.609 668.633L330.505 663.663ZM346.45 715.471L330.998 664.288L329.029 664.641L344.481 715.824L346.45 715.471Z" fill="#79E59B"/>
<path d="M411.164 662.587C410.726 662.229 410.095 662.275 409.754 662.692L404.197 669.478C403.856 669.894 403.935 670.522 404.373 670.881C404.811 671.24 405.442 671.193 405.783 670.776L410.722 664.744L417.066 669.939C417.504 670.297 418.135 670.25 418.476 669.834C418.817 669.418 418.739 668.789 418.301 668.431L411.164 662.587ZM418.088 715.574L411.544 663.267L409.55 663.415L416.093 715.722L418.088 715.574Z" fill="#79E59B"/>
<path d="M491.532 662.433C491.157 662.034 490.524 662.019 490.118 662.4L483.504 668.609C483.098 668.99 483.073 669.623 483.448 670.023C483.823 670.422 484.456 670.437 484.862 670.056L490.741 664.536L496.172 670.322C496.547 670.721 497.18 670.736 497.586 670.355C497.992 669.974 498.017 669.341 497.642 668.942L491.532 662.433ZM489.716 715.671L491.797 663.147L489.797 663.1L487.716 715.624L489.716 715.671Z" fill="#79E59B"/>
<path d="M571.301 663.068C570.988 662.639 570.359 662.567 569.896 662.905L562.358 668.421C561.895 668.76 561.774 669.381 562.087 669.809C562.401 670.237 563.03 670.31 563.492 669.972L570.193 665.069L574.731 671.271C575.044 671.699 575.673 671.772 576.136 671.433C576.599 671.095 576.72 670.473 576.406 670.045L571.301 663.068ZM561.335 715.763L571.457 663.795L569.47 663.566L559.348 715.533L561.335 715.763Z" fill="#79E59B"/>
<path d="M650.133 664.276C649.875 663.829 649.255 663.704 648.746 663.997L640.463 668.768C639.955 669.06 639.751 669.66 640.009 670.107C640.266 670.554 640.887 670.679 641.395 670.386L648.758 666.145L652.487 672.618C652.744 673.065 653.365 673.19 653.873 672.898C654.381 672.605 654.585 672.005 654.327 671.558L650.133 664.276ZM632.947 715.845L650.193 665.003L648.232 664.608L630.986 715.45L632.947 715.845Z" fill="#79E59B"/>
<path d="M727.603 665.732C727.391 665.274 726.781 665.105 726.24 665.355L717.419 669.429C716.878 669.679 716.611 670.253 716.822 670.711C717.034 671.169 717.644 671.338 718.186 671.088L726.026 667.466L729.091 674.101C729.302 674.559 729.913 674.728 730.454 674.478C730.995 674.228 731.262 673.654 731.051 673.196L727.603 665.732ZM704.556 715.914L727.587 666.451L725.659 665.918L702.628 715.381L704.556 715.914Z" fill="#79E59B"/>
<path d="M803.09 666.946C802.908 666.483 802.307 666.284 801.747 666.503L792.611 670.071C792.05 670.29 791.742 670.844 791.923 671.307C792.104 671.771 792.706 671.97 793.266 671.751L801.387 668.579L804.01 675.295C804.191 675.759 804.793 675.958 805.353 675.739C805.914 675.52 806.222 674.966 806.041 674.503L803.09 666.946ZM776.167 715.961L803.024 667.656L801.125 667.03L774.268 715.334L776.167 715.961Z" fill="#79E59B"/>
<path d="M875.457 667.205C875.282 666.74 874.683 666.536 874.119 666.748L864.926 670.215C864.362 670.428 864.047 670.977 864.222 671.441C864.397 671.906 864.996 672.11 865.56 671.897L873.732 668.816L876.269 675.546C876.445 676.011 877.044 676.215 877.608 676.002C878.172 675.79 878.488 675.241 878.312 674.776L875.457 667.205ZM847.789 715.97L875.382 667.912L873.489 667.267L845.896 715.325L847.789 715.97Z" fill="#79E59B"/>
<path d="M942.266 665.671C942.053 665.213 941.442 665.046 940.902 665.298L932.1 669.399C931.56 669.651 931.295 670.226 931.508 670.683C931.722 671.141 932.332 671.308 932.873 671.056L940.697 667.411L943.786 674.041C943.999 674.498 944.61 674.665 945.15 674.414C945.69 674.162 945.955 673.587 945.742 673.129L942.266 665.671ZM919.433 715.911L942.253 666.39L940.324 665.863L917.504 715.384L919.433 715.911Z" fill="#79E59B"/>
<path d="M998.552 662.792C998.22 662.372 997.589 662.317 997.143 662.669L989.881 668.415C989.435 668.767 989.343 669.394 989.676 669.814C990.008 670.234 990.639 670.289 991.085 669.937L997.54 664.83L1002.36 670.917C1002.69 671.337 1003.32 671.392 1003.76 671.039C1004.21 670.687 1004.3 670.06 1003.97 669.64L998.552 662.792ZM991.09 715.734L998.742 663.517L996.749 663.344L989.097 715.561L991.09 715.734Z" fill="#79E59B"/>
<path d="M1041.05 664.847C1040.52 664.582 1039.91 664.736 1039.68 665.191L1035.98 672.6C1035.75 673.054 1036 673.638 1036.53 673.903C1037.06 674.168 1037.67 674.014 1037.9 673.559L1041.19 666.974L1048.87 670.812C1049.41 671.077 1050.02 670.924 1050.25 670.469C1050.47 670.014 1050.23 669.431 1049.7 669.166L1041.05 664.847ZM1062.69 715.405L1041.61 665.428L1039.67 665.913L1060.75 715.891L1062.69 715.405Z" fill="#79E59B"/>
<path d="M5.89786 736.86C5.28351 736.922 4.82441 737.359 4.87244 737.834L5.65514 745.589C5.70317 746.065 6.24014 746.401 6.85449 746.339C7.46885 746.277 7.92794 745.841 7.87991 745.365L7.18418 738.472L16.0833 737.573C16.6976 737.511 17.1567 737.075 17.1087 736.599C17.0606 736.124 16.5237 735.788 15.9093 735.85L5.89786 736.86ZM59.689 770.136L6.70991 737.033L5.25975 738.411L58.2388 771.513L59.689 770.136Z" fill="#79E59B"/>
<path d="M84.0346 731.573C83.4163 731.553 82.9025 731.923 82.887 732.399L82.6339 740.166C82.6183 740.642 83.1069 741.045 83.7252 741.065C84.3435 741.085 84.8573 740.715 84.8729 740.239L85.0978 733.335L94.0538 733.627C94.6721 733.647 95.1859 733.277 95.2015 732.801C95.217 732.324 94.7284 731.922 94.1101 731.901L84.0346 731.573ZM131.401 770.24L84.818 731.852L83.195 733.02L129.778 771.409L131.401 770.24Z" fill="#79E59B"/>
<path d="M162.879 727.11C162.272 727.01 161.716 727.313 161.638 727.788L160.366 735.521C160.288 735.996 160.717 736.462 161.324 736.561C161.931 736.661 162.487 736.358 162.565 735.883L163.696 729.009L172.492 730.456C173.1 730.556 173.655 730.253 173.733 729.778C173.811 729.303 173.382 728.838 172.775 728.738L162.879 727.11ZM203.092 770.345L163.615 727.489L161.86 728.449L201.337 771.304L203.092 770.345Z" fill="#79E59B"/>
<path d="M242.206 723.521C241.623 723.346 241.037 723.585 240.896 724.055L238.604 731.702C238.463 732.172 238.822 732.694 239.404 732.868C239.987 733.043 240.573 732.804 240.714 732.335L242.751 725.537L251.192 728.066C251.774 728.241 252.361 728.002 252.501 727.533C252.642 727.063 252.284 726.541 251.701 726.367L242.206 723.521ZM274.766 770.447L242.877 723.994L241.025 724.748L272.914 771.201L274.766 770.447Z" fill="#79E59B"/>
<path d="M321.764 720.823C321.217 720.581 320.609 720.758 320.406 721.217L317.092 728.709C316.889 729.168 317.167 729.737 317.714 729.979C318.261 730.221 318.869 730.044 319.072 729.584L322.017 722.925L329.937 726.428C330.484 726.67 331.092 726.493 331.295 726.034C331.498 725.574 331.22 725.005 330.673 724.763L321.764 720.823ZM346.426 770.545L322.356 721.376L320.435 721.934L344.505 771.103L346.426 770.545Z" fill="#79E59B"/>
<path d="M401.28 718.991C400.777 718.691 400.155 718.809 399.89 719.254L395.573 726.501C395.308 726.946 395.501 727.549 396.003 727.848C396.506 728.147 397.128 728.03 397.393 727.585L401.23 721.143L408.509 725.479C409.011 725.778 409.633 725.66 409.898 725.216C410.163 724.771 409.97 724.168 409.468 723.868L401.28 718.991ZM418.073 770.638L401.783 719.61L399.818 719.982L416.108 771.01L418.073 770.638Z" fill="#79E59B"/>
<path d="M480.454 717.951C480 717.605 479.37 717.669 479.047 718.093L473.78 725.005C473.457 725.429 473.563 726.053 474.017 726.399C474.471 726.745 475.101 726.682 475.424 726.258L480.106 720.113L486.681 725.123C487.135 725.469 487.765 725.406 488.088 724.981C488.411 724.557 488.305 723.933 487.851 723.587L480.454 717.951ZM489.711 770.724L480.864 718.619L478.874 718.819L487.721 770.924L489.711 770.724Z" fill="#79E59B"/>
<path d="M558.948 717.576C558.543 717.195 557.91 717.21 557.535 717.61L551.423 724.117C551.048 724.517 551.073 725.149 551.479 725.531C551.885 725.912 552.518 725.897 552.893 725.497L558.325 719.713L564.203 725.233C564.609 725.614 565.242 725.599 565.617 725.2C565.992 724.8 565.967 724.168 565.561 723.786L558.948 717.576ZM561.341 770.801L559.269 718.276L557.27 718.323L559.342 770.848L561.341 770.801Z" fill="#79E59B"/>
<path d="M636.365 717.673C636.002 717.268 635.369 717.242 634.952 717.615L628.153 723.702C627.735 724.075 627.692 724.707 628.055 725.113C628.418 725.518 629.051 725.544 629.468 725.171L635.512 719.761L640.772 725.637C641.135 726.042 641.768 726.068 642.185 725.695C642.602 725.321 642.646 724.69 642.283 724.284L636.365 717.673ZM632.966 770.865L636.609 718.391L634.61 718.309L630.968 770.783L632.966 770.865Z" fill="#79E59B"/>
<path d="M712.191 717.982C711.86 717.561 711.229 717.506 710.782 717.857L703.504 723.59C703.057 723.942 702.964 724.568 703.295 724.989C703.627 725.41 704.257 725.466 704.704 725.114L711.174 720.018L715.974 726.112C716.305 726.532 716.936 726.588 717.382 726.236C717.829 725.885 717.922 725.258 717.591 724.838L712.191 717.982ZM704.588 770.912L712.378 718.707L710.386 718.531L702.596 770.736L704.588 770.912Z" fill="#79E59B"/>
<path d="M785.696 718.186C785.379 717.759 784.75 717.69 784.291 718.031L776.804 723.592C776.345 723.933 776.23 724.556 776.547 724.982C776.864 725.409 777.493 725.478 777.952 725.137L784.607 720.194L789.198 726.375C789.515 726.801 790.144 726.871 790.604 726.529C791.063 726.188 791.179 725.566 790.862 725.139L785.696 718.186ZM776.211 770.934L785.858 718.913L783.87 718.694L774.223 770.715L776.211 770.934Z" fill="#79E59B"/>
<path d="M855.751 718.013C855.422 717.591 854.792 717.533 854.343 717.883L847.03 723.588C846.581 723.938 846.484 724.564 846.813 724.986C847.142 725.407 847.773 725.466 848.222 725.115L854.722 720.044L859.488 726.153C859.817 726.575 860.447 726.633 860.896 726.282C861.345 725.932 861.442 725.307 861.113 724.885L855.751 718.013ZM847.839 770.916L855.935 718.738L853.943 718.555L845.847 770.733L847.839 770.916Z" fill="#79E59B"/>
<path d="M920.672 717.592C920.292 717.195 919.659 717.185 919.258 717.568L912.716 723.824C912.314 724.208 912.297 724.841 912.676 725.237C913.056 725.634 913.689 725.645 914.09 725.261L919.905 719.701L925.402 725.45C925.782 725.846 926.415 725.857 926.816 725.473C927.218 725.089 927.235 724.456 926.856 724.06L920.672 717.592ZM919.468 770.841L920.945 718.304L918.945 718.27L917.469 770.808L919.468 770.841Z" fill="#79E59B"/>
<path d="M978.761 718.293C978.287 717.965 977.659 718.051 977.36 718.484L972.477 725.545C972.178 725.979 972.319 726.596 972.794 726.924C973.268 727.252 973.895 727.166 974.195 726.733L978.535 720.456L985.405 725.206C985.879 725.534 986.507 725.449 986.806 725.015C987.106 724.582 986.964 723.965 986.49 723.637L978.761 718.293ZM991.085 770.689L979.209 718.943L977.228 719.213L989.103 770.959L991.085 770.689Z" fill="#79E59B"/>
<path d="M1031.02 723.155C1030.44 722.972 1029.85 723.203 1029.7 723.671L1027.29 731.305C1027.14 731.773 1027.49 732.301 1028.07 732.484C1028.65 732.667 1029.24 732.436 1029.39 731.967L1031.53 725.182L1039.92 727.834C1040.5 728.017 1041.08 727.785 1041.23 727.317C1041.38 726.848 1041.03 726.32 1040.45 726.137L1031.02 723.155ZM1062.65 770.459L1031.68 723.637L1029.82 724.368L1060.79 771.19L1062.65 770.459Z" fill="#79E59B"/>
<path d="M1.58608 796.514C0.985074 796.637 0.576859 797.121 0.674304 797.595L2.26226 805.308C2.35971 805.781 2.92591 806.064 3.52692 805.941C4.12792 805.817 4.53613 805.333 4.43869 804.86L3.02717 798.004L11.7329 796.211C12.3339 796.087 12.7421 795.603 12.6446 795.13C12.5472 794.657 11.981 794.373 11.38 794.497L1.58608 796.514ZM59.6086 825.236L2.40724 796.606L1.1178 798.135L58.3192 826.765L59.6086 825.236Z" fill="#79E59B"/>
<path d="M78.6403 791.022C78.0241 791.069 77.554 791.493 77.5904 791.969L78.1833 799.729C78.2196 800.205 78.7487 800.553 79.3649 800.506C79.9811 800.459 80.4512 800.035 80.4148 799.559L79.8878 792.661L88.8139 791.979C89.4301 791.932 89.9001 791.508 89.8638 791.031C89.8274 790.555 89.2983 790.207 88.6821 790.254L78.6403 791.022ZM131.332 825.331L79.4485 791.214L77.9638 792.554L129.847 826.67L131.332 825.331Z" fill="#79E59B"/>
<path d="M156.365 786.257C155.747 786.228 155.229 786.591 155.207 787.068L154.85 794.833C154.828 795.309 155.311 795.719 155.929 795.747C156.547 795.775 157.065 795.412 157.087 794.936L157.405 788.034L166.354 788.445C166.972 788.474 167.49 788.11 167.512 787.634C167.534 787.157 167.051 786.748 166.433 786.72L156.365 786.257ZM203.034 825.427L157.145 786.546L155.507 787.693L201.396 826.574L203.034 825.427Z" fill="#79E59B"/>
<path d="M234.539 782.268C233.932 782.167 233.376 782.471 233.298 782.945L232.021 790.678C231.942 791.153 232.371 791.619 232.978 791.719C233.585 791.819 234.141 791.516 234.219 791.041L235.354 784.168L244.15 785.62C244.757 785.72 245.312 785.417 245.391 784.942C245.469 784.468 245.041 784.002 244.433 783.902L234.539 782.268ZM274.718 825.521L235.275 782.648L233.519 783.606L272.962 826.48L274.718 825.521Z" fill="#79E59B"/>
<path d="M312.913 779.071C312.326 778.905 311.743 779.151 311.61 779.622L309.437 787.282C309.304 787.753 309.671 788.268 310.257 788.435C310.844 788.601 311.427 788.355 311.56 787.884L313.491 781.075L321.982 783.483C322.569 783.649 323.152 783.402 323.285 782.932C323.419 782.462 323.051 781.946 322.465 781.78L312.913 779.071ZM346.387 825.611L313.592 779.533L311.75 780.312L344.544 826.39L346.387 825.611Z" fill="#79E59B"/>
<path d="M391.211 776.65C390.653 776.425 390.05 776.619 389.864 777.081L386.83 784.624C386.644 785.086 386.945 785.643 387.502 785.868C388.06 786.092 388.663 785.899 388.849 785.436L391.546 778.732L399.622 781.981C400.18 782.205 400.782 782.012 400.969 781.549C401.155 781.086 400.854 780.529 400.296 780.305L391.211 776.65ZM418.043 825.695L391.826 777.182L389.921 777.793L416.138 826.306L418.043 825.695Z" fill="#79E59B"/>
<path d="M469.126 774.945C468.602 774.672 467.985 774.818 467.75 775.271L463.912 782.647C463.677 783.1 463.911 783.688 464.436 783.961C464.96 784.234 465.577 784.088 465.812 783.635L469.223 777.079L476.822 781.032C477.347 781.305 477.963 781.159 478.199 780.706C478.434 780.254 478.2 779.666 477.675 779.393L469.126 774.945ZM489.689 825.77L469.673 775.535L467.727 775.995L487.743 826.231L489.689 825.77Z" fill="#79E59B"/>
<path d="M546.308 773.861C545.817 773.55 545.192 773.655 544.913 774.096L540.371 781.273C540.093 781.714 540.265 782.323 540.757 782.634C541.248 782.945 541.873 782.84 542.151 782.4L546.189 776.02L553.309 780.525C553.8 780.836 554.425 780.731 554.703 780.291C554.982 779.85 554.809 779.241 554.318 778.93L546.308 773.861ZM561.327 825.835L546.79 774.493L544.817 774.824L559.355 826.166L561.327 825.835Z" fill="#79E59B"/>
<path d="M622.344 773.265C621.881 772.927 621.252 773 620.94 773.429L615.843 780.409C615.53 780.838 615.652 781.459 616.115 781.797C616.578 782.135 617.207 782.062 617.52 781.634L622.05 775.429L628.758 780.326C629.221 780.664 629.85 780.591 630.162 780.163C630.475 779.734 630.353 779.113 629.89 778.775L622.344 773.265ZM632.96 825.885L622.771 773.925L620.785 774.157L630.974 826.116L632.96 825.885Z" fill="#79E59B"/>
<path d="M696.725 773.008C696.281 772.654 695.65 772.708 695.316 773.127L689.876 779.966C689.542 780.385 689.632 781.012 690.076 781.366C690.521 781.719 691.152 781.666 691.485 781.246L696.321 775.168L702.759 780.289C703.203 780.643 703.834 780.589 704.168 780.169C704.502 779.75 704.412 779.123 703.968 778.769L696.725 773.008ZM704.588 825.916L697.117 773.683L695.124 773.852L702.596 826.085L704.588 825.916Z" fill="#79E59B"/>
<path d="M768.803 772.974C768.361 772.618 767.73 772.668 767.393 773.086L761.897 779.9C761.56 780.318 761.644 780.945 762.085 781.301C762.526 781.657 763.158 781.607 763.495 781.189L768.38 775.133L774.773 780.289C775.214 780.645 775.845 780.595 776.183 780.177C776.52 779.759 776.435 779.131 775.994 778.775L768.803 772.974ZM776.214 825.921L769.189 773.651L767.195 773.811L774.221 826.08L776.214 825.921Z" fill="#79E59B"/>
<path d="M837.77 773.207C837.31 772.866 836.681 772.935 836.364 773.362L831.199 780.315C830.882 780.742 830.997 781.364 831.456 781.706C831.916 782.047 832.545 781.978 832.862 781.551L837.454 775.37L844.108 780.313C844.567 780.655 845.197 780.585 845.514 780.159C845.831 779.732 845.715 779.109 845.256 778.768L837.77 773.207ZM847.837 825.891L838.19 773.87L836.202 774.089L845.849 826.11L847.837 825.891Z" fill="#79E59B"/>
<path d="M902.813 774.139C902.311 773.838 901.689 773.955 901.423 774.399L897.086 781.641C896.82 782.085 897.01 782.689 897.512 782.989C898.014 783.289 898.636 783.173 898.902 782.728L902.757 776.292L910.022 780.643C910.523 780.943 911.146 780.826 911.412 780.382C911.678 779.938 911.487 779.334 910.986 779.033L902.813 774.139ZM919.451 825.816L903.314 774.759L901.348 775.128L917.486 826.185L919.451 825.816Z" fill="#79E59B"/>
<path d="M963.691 776.815C963.131 776.595 962.53 776.793 962.348 777.256L959.38 784.81C959.198 785.273 959.505 785.827 960.065 786.047C960.625 786.267 961.226 786.07 961.408 785.606L964.046 778.892L972.158 782.079C972.718 782.299 973.32 782.102 973.502 781.638C973.684 781.175 973.377 780.621 972.817 780.401L963.691 776.815ZM991.044 825.689L964.312 777.343L962.411 777.966L989.144 826.312L991.044 825.689Z" fill="#79E59B"/>
<path d="M1021.76 782.628C1021.15 782.534 1020.59 782.844 1020.52 783.318L1019.33 791.056C1019.26 791.531 1019.7 791.992 1020.3 792.085C1020.91 792.178 1021.47 791.869 1021.54 791.394L1022.59 784.516L1031.41 785.869C1032.02 785.962 1032.57 785.653 1032.65 785.178C1032.72 784.703 1032.28 784.243 1031.67 784.149L1021.76 782.628ZM1062.59 825.512L1022.5 782.999L1020.75 783.976L1060.85 826.489L1062.59 825.512Z" fill="#79E59B"/>
</svg>
