<svg width="540" height="540" viewBox="0 0 540 540" fill="none" xmlns="http://www.w3.org/2000/svg">
<path d="M270 0L270.052 269.734L373.325 20.5524L270.15 269.776L460.918 79.0813L270.224 269.85L519.447 166.675L270.266 269.948L540 270L270.266 270.052L519.447 373.325L270.224 270.15L460.918 460.918L270.15 270.224L373.325 519.447L270.052 270.266L270 540L269.948 270.266L166.675 519.447L269.85 270.224L79.0813 460.918L269.776 270.15L20.5524 373.325L269.734 270.052L0 270L269.734 269.948L20.5524 166.675L269.776 269.85L79.0813 79.0813L269.85 269.776L166.675 20.5524L269.948 269.734L270 0Z" fill="#F0C3D2" stroke="#79E59B"/>
</svg>
