<svg width="397" height="188" viewBox="0 0 397 188" fill="none" xmlns="http://www.w3.org/2000/svg">
<path d="M16 73.3027C33.0774 69.6863 47.5794 138.168 64.6568 134.551C81.7343 130.935 67.2323 62.4535 84.3097 58.8371C101.387 55.2207 115.889 123.702 132.927 120.094C150.004 116.478 135.502 47.9962 152.539 44.3884C169.617 40.7719 184.119 109.253 201.156 105.645C218.234 102.029 203.732 33.5476 220.808 29.9314C237.886 26.3149 252.388 94.7962 269.466 91.1797C286.543 87.5635 272.041 19.0822 289.118 15.4657C306.196 11.8492 320.698 80.3305 337.776 76.714C354.853 73.0978 340.351 4.61647 357.428 0.999982" stroke="#F8A0B6" stroke-width="2" stroke-miterlimit="10" stroke-linecap="round"/>
<path d="M54 88.3027C71.0774 84.6863 85.5794 153.168 102.657 149.551C119.734 145.935 105.232 77.4535 122.31 73.8371C139.387 70.2207 153.889 138.702 170.927 135.094C188.004 131.478 173.502 62.9962 190.539 59.3884C207.617 55.7719 222.119 124.253 239.156 120.645C256.234 117.029 241.732 48.5476 258.808 44.9314C275.886 41.3149 290.388 109.796 307.466 106.18C324.543 102.563 310.041 34.0822 327.118 30.4657C344.196 26.8492 358.698 95.3305 375.776 91.714C392.853 88.0978 378.351 19.6165 395.428 16" stroke="#79E59B" stroke-width="2" stroke-miterlimit="10" stroke-linecap="round"/>
<path d="M26 103.303C43.0774 99.6863 57.5794 168.168 74.6568 164.551C91.7343 160.935 77.2323 92.4535 94.3097 88.8371C111.387 85.2207 125.889 153.702 142.927 150.094C160.004 146.478 145.502 77.9962 162.539 74.3884C179.617 70.7719 194.119 139.253 211.156 135.645C228.234 132.029 213.732 63.5476 230.808 59.9314C247.886 56.3149 262.388 124.796 279.466 121.18C296.543 117.563 282.041 49.0822 299.118 45.4657C316.196 41.8492 330.698 110.331 347.776 106.714C364.853 103.098 350.351 34.6165 367.428 31" stroke="#F8A0B6" stroke-width="2" stroke-miterlimit="10" stroke-linecap="round"/>
<path d="M1 125.303C18.0774 121.686 32.5794 190.168 49.6568 186.551C66.7343 182.935 52.2323 114.454 69.3097 110.837C86.3871 107.221 100.889 175.702 117.927 172.094C135.004 168.478 120.502 99.9962 137.539 96.3884C154.617 92.7719 169.119 161.253 186.156 157.645C203.234 154.029 188.732 85.5476 205.808 81.9314C222.886 78.3149 237.388 146.796 254.466 143.18C271.543 139.563 257.041 71.0822 274.118 67.4657C291.196 63.8492 305.698 132.331 322.776 128.714C339.853 125.098 325.351 56.6165 342.428 53" stroke="#79E59B" stroke-width="2" stroke-miterlimit="10" stroke-linecap="round"/>
</svg>
