<svg width="388" height="555" viewBox="0 0 388 555" fill="none" xmlns="http://www.w3.org/2000/svg">
<g clip-path="url(#clip0_10_109)">
<path fill-rule="evenodd" clip-rule="evenodd" d="M338.236 296.376C333.867 279.415 329.853 272.223 322.095 266.327C314.839 260.812 304.246 256.181 288.791 252.798C272.694 249.978 272.238 241.599 268.202 228.133C267.024 224.084 261.189 223.006 258.672 225.925C258.316 225.542 257.946 225.192 257.564 224.874C257.905 222.942 255.1 217.407 255.192 215.561C256.172 196.284 249.876 186.603 234.16 183.003C230.743 182.223 207.531 181.761 204.199 182.683C189.631 186.717 175.291 199.523 177.485 214.95C172.912 220.936 168.438 224.589 161.382 226.517C145.682 228.513 129.984 230.287 114.28 231.806C83.5401 236.636 54.7187 252.933 35.02 276.697C33.2029 278.891 32.6782 281.869 34.2818 284.207C33.0256 289.595 25.9546 302.666 31.5183 306.359C22.3695 328.274 1.31909 370.63 1.27973 382.731C1.11373 433.566 6.597 499.737 56.6863 527.867C58.6918 529.843 58.9787 532.027 59.8472 534.965C62.0493 544.221 70.0471 550.834 78.8005 550.295C121.923 551.253 163.69 545.984 206.813 545.73C225.83 545.617 248.699 548.461 265.218 550.354C281.741 552.249 298.416 550.572 314.27 545.73C315.608 547.839 318.309 549.067 321.052 548.461C337.486 545.191 350.777 535.047 362.354 523.961C365.889 517.517 379.705 499.155 374.213 492.762C379.191 471.688 378.932 449.046 370.087 428.978C371.341 425.3 369.056 421.256 370.087 417.458C370.833 414.71 372.745 413.572 373.708 410.852C375.062 407.019 373.59 401.88 372.065 397.972C371.438 396.025 373.214 393.928 373.708 391.939C376.046 382.564 370.689 383.39 366.829 377.121C366.885 377.103 367.891 372.627 367.886 372.65C368.477 369.455 366.996 365.363 365.704 362.696C364.83 360.894 362.961 359.766 361.101 359.973C362.972 353.609 365.34 348.312 367.886 342.181C372.388 331.375 378.086 321.024 384.55 311.242C387.199 307.236 383.642 302.596 379.359 302.322C365.491 301.439 351.777 299.44 338.236 296.376Z" fill="#79E59B"/>
<path fill-rule="evenodd" clip-rule="evenodd" d="M297.765 378.109C292.221 375.93 286.247 374.726 280.244 374.257C283.476 373.693 286.718 373.144 289.984 372.864C292.265 372.666 294.379 372.689 296.091 374.419C297.234 375.573 297.77 377.06 298.521 378.425C298.277 378.314 298.021 378.209 297.765 378.109ZM357.295 357.743C348.212 358.207 339.118 360.369 330.901 364.287C327.541 365.893 324.494 368.213 323.602 372.026C323.151 373.973 323.261 375.987 323.502 377.952C323.682 379.444 323.727 381.345 325.02 382.355C325.24 382.523 325.475 382.654 325.722 382.751C322.69 384.122 319.804 385.767 317.239 387.463C314.893 389.013 312.484 391.402 311.403 394.097C311.313 393.791 311.223 393.506 311.133 393.235C309.288 387.774 306.446 383.303 301.974 380.296C302.766 379.941 303.311 379.097 303.055 377.934C301.993 373.071 297.509 368.844 292.444 369.145C286.898 369.471 280.942 371.494 275.926 374.049C274.098 374.008 272.274 374.033 270.469 374.113C270.159 374.123 270.175 374.545 270.469 374.581C271.933 374.766 273.396 374.973 274.859 375.212C278.335 375.771 281.803 376.479 285.194 377.357C289.263 378.411 293.47 379.467 297.273 381.31C304.649 384.889 309.214 394.244 308.275 402.384C308.121 403.718 307.604 407.752 305.756 407.337C304.193 406.985 303.572 403.718 303.024 402.507C301.561 399.297 298.926 397.197 295.766 395.778C292.054 394.107 288.079 392.978 284.233 391.663C282.054 390.915 279.875 390.167 277.69 389.426C275.454 388.657 273.332 387.598 270.951 388.135C269.513 388.462 269.347 390.179 270.154 391.161C271.382 392.662 273.206 393.104 274.975 393.722C277.308 394.533 279.637 395.349 281.969 396.16C285.57 397.414 289.343 398.473 292.854 400.009L292.744 400.261C292.46 400.181 292.123 400.466 292.178 400.817C292.703 404.065 293.436 407.819 292.623 411.07C291.983 413.649 289.723 416.505 286.787 415.748C287.249 415.325 287.418 414.599 287.108 413.926C285.945 411.435 270.716 401.61 269.357 405.26C269.311 405.39 269.452 405.485 269.564 405.466C270.721 405.224 272.658 407.202 273.586 407.829C274.923 408.732 276.282 409.615 277.605 410.543C279.052 411.557 280.465 412.62 281.843 413.72C282.925 414.584 283.743 415.482 284.983 415.918C284.333 416.23 283.815 416.806 283.595 417.545C283.036 419.466 281.952 421.097 280.073 421.946C278.105 422.829 275.885 422.27 273.811 422.489C270.987 422.774 268.519 424.117 266.461 426.041C262.139 430.085 259.969 437.213 253.921 439.125C250.309 440.264 246.302 439.545 242.643 439.027C238.561 438.45 234.582 437.995 230.47 438.598C226.532 439.174 222.808 440.539 219.21 442.204C215.84 443.767 212.113 445.533 209.12 447.86C208.506 445.959 207.884 444.078 207.412 442.135C206.3 437.543 205.7 432.865 205.554 428.147C205.418 423.657 205.67 419.146 206.054 414.675C206.246 412.44 206.547 410.218 206.736 407.983C206.787 407.423 206.887 406.82 206.962 406.219C212.302 403.061 217.913 400.641 223.569 398.152C223.585 398.148 223.6 398.138 223.614 398.134C223.79 398.053 223.961 397.977 224.136 397.9C224.131 397.892 224.126 397.882 224.117 397.872C224.762 397.476 225.212 396.948 225.483 396.355C233.636 390.941 240.449 383.549 245.529 374.927C247.659 371.313 249.707 367.564 252.493 364.399C255.46 361.02 258.982 359.013 263.341 357.969C268.434 356.745 273.688 356.013 278.907 355.595C281.757 355.371 284.945 355.017 288.051 355.033C290.214 355.048 292.334 355.233 294.279 355.77C297.157 356.563 298.841 358.757 300.651 360.974C302.379 363.102 304.096 365.237 305.711 367.454C307.238 369.556 308.683 371.729 309.934 374.008C310.687 375.374 311.382 376.78 311.967 378.228C312.174 378.741 312.443 379.323 312.569 379.854C312.695 380.391 312.466 380.959 313.065 380.959C310.585 380.994 310.611 384.964 313.074 384.817C322.724 384.257 308.903 365.387 306.883 362.755C304.023 359.033 301.071 354.174 296.491 352.443C296.427 352.42 296.356 352.393 296.292 352.374C297.624 351.109 298.677 349.594 299.683 348.053C300.722 346.467 301.958 344.65 302.299 342.767C302.514 341.568 301.025 340.887 300.321 341.934C299.292 343.465 298.796 345.402 298.031 347.085C297.247 348.792 296.296 350.401 295.545 352.123C293.736 351.565 291.783 351.311 289.794 351.225C292.303 347.822 296.591 341.257 297.108 340.414C299.484 336.51 301.745 332.486 303.903 328.456C306.235 324.089 308.237 319.542 310.471 315.125C311.738 312.623 313.015 310.097 314.424 307.667C314.911 306.836 315.429 306.002 316.023 305.245C316.136 305.093 316.283 304.97 316.418 304.827C316.572 304.742 316.734 304.647 316.824 304.598C317.635 304.131 317.92 303.046 318.491 302.358C319.404 301.251 320.476 301.121 321.849 301.105C324.773 301.074 327.711 301.19 330.63 301.27C334.925 301.39 339.213 301.56 343.503 301.786C344.8 301.857 346.092 301.929 347.389 302.006C353.627 302.379 359.861 302.866 366.076 303.464C371.578 303.989 377.081 304.849 382.586 305.26C375.131 322.999 366.864 340.418 357.503 357.233C357.408 357.401 357.341 357.572 357.295 357.743ZM315.932 403.448C314.73 403.998 313.561 404.687 312.474 405.468C312.655 404.251 312.7 402.966 312.65 401.674C313.547 402.638 314.694 403.191 315.932 403.448ZM367.26 372.93C367.175 372.94 367.096 372.985 367.055 373.071C365.391 376.507 366.088 380.346 368.803 383.041C370.227 384.447 373.329 386.033 373.226 388.341C373.141 390.207 371.114 391.774 370.246 393.314C369.439 394.751 369.141 396.327 369.785 397.882C370.613 399.874 372.923 400.667 373.713 402.624C374.716 405.108 373.086 408.104 371.945 410.267C370.884 412.269 369.51 414.27 368.598 416.389C362.491 419.557 357.025 424.415 352.325 429.349C347.181 434.744 342.765 441.091 334.595 440.931C333.777 440.915 333.156 441.347 332.786 441.943C330.512 442.05 328.233 442.096 325.957 442.104C321.959 442.124 317.962 442.083 313.968 441.96C313.686 440.991 313.893 439.676 313.878 438.856C313.829 436.223 313.803 433.592 313.694 430.959C313.663 430.225 313.632 429.489 313.604 428.755C315.041 431.36 317.846 432.545 321.042 432.365C326.181 432.063 331.353 431.22 336.443 430.463C339.123 430.066 341.8 429.612 344.47 429.131C346.664 428.741 349.76 428.841 351.293 427.079C351.654 426.668 351.675 425.916 351.108 425.639C349.59 424.892 348.632 425.308 346.966 425.628C344.931 426.024 342.891 426.402 340.846 426.753C336.924 427.435 332.993 428.067 329.049 428.624C326.803 428.941 324.555 429.252 322.305 429.498C320.341 429.709 318.125 429.994 316.544 428.515C313.352 425.523 315.14 420.511 317.161 417.488C317.199 417.429 317.199 417.375 317.184 417.322C319.089 416.875 320.988 416.356 322.88 415.987C326.524 415.284 330.192 414.693 333.862 414.166C341.409 413.088 349.004 412.376 356.588 411.656C358.466 411.476 358.487 408.514 356.588 408.691C345.692 409.69 334.741 410.638 323.989 412.741C321.292 413.264 318.617 413.855 315.956 414.522C314.699 414.833 313.352 415.32 312.033 415.337C311.953 415.337 311.872 415.337 311.794 415.33C309.214 415.251 308.837 413.038 310.255 411.196C310.431 410.97 310.611 410.744 310.795 410.529C313.302 407.536 316.423 405.54 319.639 403.471C323.241 402.981 326.834 401.885 330.36 401.082C339.068 399.096 347.776 397.107 356.488 395.125C358.197 394.736 357.471 392.105 355.763 392.492C349.149 393.992 342.535 395.493 335.922 396.994L326.244 399.193C324.309 399.627 321.895 400.505 319.62 400.821C318.499 400.978 317.41 400.997 316.428 400.767C313.258 400.014 313.096 396.044 314.465 393.686C315.996 391.036 318.894 389.379 321.462 387.881C325.916 385.276 330.656 383.403 335.286 381.244C336.109 381.063 336.929 380.883 337.752 380.703C342.53 379.648 347.992 379.133 352.49 377.2C353.837 376.628 353.102 374.5 351.769 374.531C348.276 374.604 344.624 375.848 341.212 376.587C337.519 377.39 333.823 378.188 330.13 378.986C329.761 379.066 327.567 379.769 327.234 379.615C327.024 379.513 326.95 378.781 326.878 378.299C326.654 376.713 326.488 375.047 326.734 373.456C327.275 369.889 330.246 368.213 333.251 366.843C339.946 363.796 347.285 361.89 354.589 361.125C356.273 360.949 357.956 360.84 359.65 360.785C361.639 360.723 363.279 360.371 364.284 362.336C365.868 365.427 366.74 369.402 367.26 372.93ZM357.964 485.014C356.505 479.964 356.901 474.569 355.903 469.414C355.388 466.755 354.684 464.118 353.916 461.521C353.294 459.424 352.261 457.194 352.144 455.007C352.138 454.861 352.308 454.777 352.426 454.843C354.485 456.024 356.065 458.577 357.238 460.578C358.643 462.974 359.717 465.483 360.58 468.122C362.306 473.379 363.722 479.72 361.498 485.014C360.836 486.593 358.509 486.906 357.964 485.014ZM312.892 418.091C314.122 417.97 315.357 417.735 316.59 417.46C315.211 418.804 313.938 420.426 313.232 422.221C313.122 420.84 312.979 419.467 312.794 418.096C312.825 418.096 312.861 418.096 312.892 418.091ZM301.046 523.265C298.872 521.746 297.288 519.623 295.445 517.747C293.633 515.905 296.468 513.064 298.28 514.909C299.851 516.508 301.217 518.504 303.07 519.798C303.959 520.421 304.372 521.543 303.788 522.544C303.271 523.427 301.934 523.885 301.046 523.265ZM288.926 464.877C292.893 463.157 296.794 461.286 300.948 460.049C303.427 459.308 304.478 463.183 302.012 463.92C298.19 465.059 294.602 466.759 290.949 468.344C288.604 469.357 286.564 465.898 288.926 464.877ZM247.025 463.673C246.055 461.276 249.935 460.241 250.891 462.606C251.991 465.327 253.253 467.98 254.353 470.698C255.322 473.097 251.445 474.132 250.488 471.767C249.387 469.045 248.125 466.396 247.025 463.673ZM205.67 511.56C205.024 512.423 203.945 512.892 202.928 512.281C202.074 511.768 201.556 510.408 202.21 509.533C204.119 506.984 206.054 504.464 208.294 502.189C210.109 500.346 212.943 503.186 211.129 505.029C209.13 507.059 207.377 509.282 205.67 511.56ZM199.757 242.872C201.595 244.131 203.207 245.659 204.78 247.234C206.606 249.062 203.773 251.9 201.944 250.072C200.621 248.746 199.285 247.4 197.735 246.339C196.838 245.726 196.435 244.584 197.014 243.591C197.533 242.703 198.863 242.261 199.757 242.872ZM259.923 307.48C258.882 309.564 257.949 311.609 257.888 313.981C257.824 316.565 253.817 316.567 253.881 313.981C253.956 310.878 255.1 308.188 256.463 305.452C257.616 303.137 261.071 305.173 259.923 307.48ZM282 255.592C284.155 254.153 286.159 257.632 284.022 259.059C282.292 260.212 280.56 261.372 278.829 262.526C276.674 263.964 274.669 260.486 276.805 259.059C278.537 257.905 280.268 256.748 282 255.592ZM186.25 346.313C185.879 348.863 182.019 347.773 182.385 345.246C182.946 341.34 183.634 337.487 184.692 333.682C185.384 331.194 189.249 332.257 188.557 334.749C187.499 338.552 186.812 342.407 186.25 346.313ZM172.197 392.302C169.616 392.247 169.616 388.232 172.197 388.287C174.53 388.336 176.826 388.951 179.079 389.516C181.583 390.143 180.516 394.014 178.011 393.386C176.109 392.909 174.169 392.344 172.197 392.302ZM167.008 484.945C166.123 485.375 165.213 485.764 164.316 486.175C162.523 486.996 160.731 487.822 158.937 488.645C155.202 490.362 151.47 492.085 147.742 493.814C140.276 497.274 132.754 500.615 125.27 504.039C117.639 507.529 110.028 511.067 102.427 514.624C98.8459 516.298 95.2377 517.914 91.6364 519.542C88.5571 520.938 84.7509 523.375 81.3706 523.604C81.1968 523.617 81.1387 523.396 81.2378 523.282C82.5149 521.828 84.552 520.981 86.2305 520.036C87.9448 519.069 89.6913 518.16 91.4298 517.239C95.0541 515.315 98.6829 513.406 102.342 511.552C109.662 507.841 116.996 504.157 124.331 500.479C131.813 496.725 139.285 492.95 146.832 489.331C150.384 487.627 153.941 485.926 157.498 484.233C159.426 483.316 161.356 482.4 163.284 481.486C164.117 481.091 164.942 480.665 165.793 480.311C166.927 479.843 167.786 479.938 168.955 479.648C170.857 479.178 171.682 481.602 170.221 482.659C169.016 483.528 168.383 484.273 167.008 484.945ZM140.25 526.113C139.839 525.11 140.7 523.892 141.651 523.642C142.788 523.342 143.7 524.035 144.116 525.044C145.214 527.722 146.78 530.178 148.795 532.252C150.594 534.107 147.761 536.948 145.959 535.093C143.436 532.49 141.621 529.45 140.25 526.113ZM120.566 461.669C118.738 459.837 121.573 456.999 123.4 458.831L128.594 464.033C130.421 465.862 127.585 468.701 125.76 466.871L120.566 461.669ZM67.2728 453.187C63.5383 454.284 59.1824 455.29 56.6362 458.482C56.5121 458.638 56.3032 458.439 56.3778 458.282C59.6373 451.515 68.9853 449.14 75.4573 446.768C80.035 445.089 84.7319 443.7 89.4685 442.456C88.9951 437.045 90.3008 431.244 90.7547 425.859C91.2391 420.108 91.6333 414.342 91.8358 408.574C92.0426 402.691 92.093 396.766 91.8995 390.879C91.7071 385.017 90.9471 379.223 90.6143 373.379C90.5823 372.814 91.368 372.786 91.5373 373.253C93.5042 378.676 94.3444 384.684 94.9846 390.404C95.6438 396.296 95.8628 402.17 95.7788 408.095C95.6915 414.188 95.3378 420.264 94.8523 426.337C94.6224 429.216 94.3553 432.091 94.1034 434.967C93.9109 437.164 93.8217 439.34 93.375 441.465C96.2315 440.762 99.0948 440.098 101.949 439.453C111.051 437.395 120.19 435.488 129.253 433.263C133.702 432.17 138.087 430.864 142.517 429.703C146.686 428.608 151.088 427.283 155.371 426.794C156.899 426.621 157.093 428.713 156.082 429.424C152.601 431.873 147.979 433.576 143.96 434.946C139.926 436.32 135.732 437.31 131.597 438.329C122.975 440.452 114.27 442.191 105.578 444C96.8989 445.807 88.203 447.599 79.6212 449.829C75.4883 450.902 71.3696 451.98 67.2728 453.187ZM46.8082 345.779C44.5766 347.088 42.5621 343.62 44.7855 342.312C47.6952 340.6 50.7958 339.315 53.9216 338.06C56.3206 337.1 57.3526 340.985 54.9874 341.934C52.1781 343.059 49.4225 344.242 46.8082 345.779ZM38.7274 494.935C36.49 496.237 34.4739 492.765 36.7049 491.469C39.8382 489.649 43.2695 488.436 46.5168 486.845C48.8268 485.71 50.8561 489.174 48.5394 490.312C45.2927 491.903 41.8609 493.116 38.7274 494.935ZM35.0932 410.267C37.2567 412.325 40.144 413.295 42.8666 414.375C45.2404 415.318 44.1991 419.198 41.8009 418.246C38.409 416.899 34.954 415.669 32.2591 413.105C30.3842 411.322 33.2236 408.486 35.0932 410.267ZM59.0271 295.28C61.4054 296.215 60.3639 300.095 57.9617 299.152C55.297 298.105 52.5457 297.307 49.8812 296.26C47.5035 295.327 48.5446 291.445 50.9469 292.39C53.6111 293.437 56.3627 294.233 59.0271 295.28ZM101.249 249.606C103.776 249.181 104.852 253.049 102.314 253.478C99.166 254.011 96.0656 254.635 93.0797 255.792C90.6681 256.724 89.6337 252.842 92.0139 251.921C95.0005 250.763 98.1007 250.14 101.249 249.606ZM115.199 360.809C112.882 359.667 114.915 356.206 117.222 357.342C119.653 358.539 122.171 359.465 124.824 360.03C127.349 360.569 126.274 364.439 123.758 363.902C120.773 363.263 117.933 362.155 115.199 360.809ZM128.376 298.169C130.871 297.485 131.926 301.36 129.442 302.042C125.07 303.241 120.57 303.866 116.166 304.932C113.657 305.542 112.595 301.67 115.101 301.062C119.504 299.993 124.005 299.371 128.376 298.169ZM184.272 278.514C186.809 278.984 185.728 282.854 183.207 282.386C180.522 281.887 177.803 281.881 175.08 281.878C172.497 281.878 172.502 277.863 175.08 277.863C178.172 277.865 181.224 277.948 184.272 278.514ZM366.57 299.489C360.02 298.86 353.463 298.359 346.894 297.984C346.587 297.967 346.287 297.949 345.981 297.931C345.948 297.864 345.903 297.797 345.857 297.728C343.714 294.574 342.135 291.423 340.766 287.859C339.459 284.468 338.191 280.971 336.177 277.909C333.88 274.422 330.78 271.691 327.38 269.327C325.319 270.715 323.405 272.342 321.654 274.065C319.812 275.877 316.978 273.04 318.82 271.226C320.376 269.694 322.036 268.28 323.792 267.002C321.767 265.767 319.698 264.608 317.68 263.454C310.12 259.134 302.379 255.138 294.477 251.486C290.807 249.784 287.088 248.274 283.346 246.742C281.331 245.92 279.343 244.862 277.33 243.909C277.474 242.482 277.048 240.887 275.957 239.949C275.15 239.26 274.524 239.004 273.562 238.519C273.345 238.443 273.215 238.398 273.156 238.372C273.201 238.381 273.332 238.422 273.545 238.493C274.057 238.729 274.098 238.66 273.666 238.286C273.642 237.475 272.043 235.758 271.679 234.919C270.405 232.044 270.009 229.003 268.131 226.383C265.539 222.774 261.192 221.412 257.137 222.634C256.717 218.294 256.608 213.763 254.974 209.887C254.93 209.783 254.784 209.738 254.718 209.852C253.015 212.759 252.871 215.995 252.741 219.347C252.615 222.493 252.733 225.711 253.146 228.839C252.885 229.037 252.619 229.23 252.344 229.416C251.052 230.268 249.658 230.926 248.194 231.413C245.411 232.337 242.489 232.737 239.567 232.878C232.028 233.238 224.257 232.476 216.841 231.182C209.343 229.871 197.843 227.903 191.171 224.143C186.767 221.667 182.705 218.64 178.585 215.71C180.076 210.893 180.458 205.711 178.955 201.641C178.774 201.154 178.013 201.064 177.869 201.641C176.928 205.525 176.65 209.431 175.398 213.269C175.378 213.326 175.358 213.385 175.339 213.439C174.947 213.174 174.556 212.913 174.168 212.651C173.264 212.056 172.038 212.502 171.495 213.354C162.843 227.01 149.141 227.794 134.752 230.232C119.004 232.901 103.178 235.784 88.0372 241.008C73.5582 246.007 59.72 253.283 48.758 264.152C46.2766 266.615 43.9558 269.235 41.7653 271.973C43.8846 272.242 45.9865 272.658 48.061 273.31C50.5176 274.085 49.4619 277.958 46.9955 277.183C44.3291 276.343 41.6333 275.927 38.9096 275.72C31.4611 285.929 25.6535 297.502 20.6313 308.892C10.9984 330.733 4.72825 353.994 1.84291 377.675C3.42705 376.723 5.03987 375.818 6.69277 374.975C8.98928 373.805 11.015 377.272 8.71585 378.442C6.16275 379.743 3.68269 381.178 1.2797 382.73C0.230098 393.098 -0.176608 403.528 0.0697861 413.945C0.656008 438.778 4.00283 464.338 11.573 488.03C15.2855 499.658 20.2056 511.191 27.5352 521.017C30.8519 525.467 34.6195 529.481 39.0585 532.83C41.2078 534.456 43.4825 535.907 45.8822 537.13C48.9736 538.716 53.0014 539.238 55.667 541.48C56.5437 542.219 57.22 543.192 57.7311 544.291C57.4356 546.379 57.4005 548.473 57.9715 550.56C58.1521 551.214 58.6429 551.745 59.2493 551.999C59.2593 552.179 59.2593 552.356 59.2593 552.526C59.2593 552.607 59.3795 552.628 59.3944 552.548C59.4195 552.391 59.4444 552.236 59.4696 552.074C59.665 552.141 59.8704 552.169 60.081 552.169C67.6912 552.2 75.3112 552.013 82.9315 551.755C82.3422 549.947 81.704 548.155 81.0913 546.346C80.2591 543.89 84.1312 542.845 84.956 545.279C85.6729 547.393 86.4225 549.489 87.0894 551.61C95.2542 551.306 103.417 550.94 111.565 550.672C128.895 550.093 146.219 549.903 163.555 549.536C190.474 548.964 217.588 547.794 244.552 548.938C245.483 546.957 246.527 545.02 247.516 543.066C248.683 540.759 252.141 542.791 250.978 545.091C250.288 546.451 249.576 547.791 248.901 549.148C254.36 549.433 259.817 549.808 265.259 550.321C274.548 551.191 283.747 552.742 293.026 553.706C302.46 554.689 311.687 554.514 321.047 552.954C322.731 552.674 323.723 551.655 324.133 550.39C324.147 550.385 324.159 550.375 324.168 550.358C324.65 549.798 325.101 549.33 325.565 548.925C326.122 548.563 326.722 548.257 327.429 547.986C328.748 547.483 330.12 547.177 331.512 546.972C333.047 546.742 334.6 546.721 336.132 546.531C337.424 546.364 338.688 546.117 339.951 545.818C342.22 545.276 344.373 544.567 346.52 543.629C348.388 542.812 350.074 541.637 351.667 540.357C354.966 537.942 357.821 534.862 360.316 531.659C361.77 529.788 363.136 527.846 364.379 525.825C366.544 522.32 368.387 518.682 370.251 515.014C370.928 513.926 371.545 512.813 372.109 511.678C368.467 510.602 364.789 509.726 360.929 509.664C358.346 509.621 358.348 505.606 360.929 505.649C365.356 505.72 369.546 506.756 373.708 507.99C373.91 507.451 374.103 506.907 374.284 506.356C374.78 505.207 375.192 504.028 375.531 502.832C375.731 502.291 375.933 501.75 376.133 501.208C376.584 499.33 377.035 497.45 377.491 495.567C378.398 492.556 379.115 489.5 379.641 486.403C380.08 484.366 380.421 482.312 380.651 480.234C381.353 475.201 381.925 470.179 381.966 465.09C381.904 461.954 381.705 458.821 381.363 455.703C381.218 453.588 380.974 451.479 380.642 449.387C380.21 446.274 379.785 443.195 379.07 440.122C378.534 438.044 377.998 435.966 377.462 433.889C376.122 429.558 374.546 425.312 372.726 421.161C372.627 420.902 372.119 420.329 371.816 420.324C371.583 420.319 371.263 420.53 371.368 420.812C371.379 420.837 371.389 420.868 371.398 420.891C371.294 420.655 371.194 420.414 371.087 420.178C370.997 419.957 370.646 419.516 370.376 419.521C370.361 419.521 370.345 419.521 370.326 419.526C370.397 419.475 370.461 419.411 370.528 419.336C372.325 417.203 373.492 414.396 374.78 411.927C375.846 409.89 376.855 407.744 377.145 405.44C377.401 403.417 377.053 401.424 375.787 399.789C374.344 397.928 371.628 397.053 373.137 394.363C374.851 391.302 377.371 388.648 374.861 385.169C373.582 383.398 371.56 382.423 370.056 380.883C368.327 379.102 367.504 376.718 367.552 374.285C367.656 374.344 367.796 374.315 367.846 374.162C369.3 369.768 368.246 364.941 366.76 360.659C365.948 358.336 364.23 357.699 362.231 357.584C370.889 340.644 378.989 323.437 386.208 305.832C386.449 305.255 386.684 304.678 386.92 304.1C387.271 303.236 386.528 302.088 385.672 301.898C379.431 300.528 372.927 300.09 366.57 299.489Z" fill="black"/>
<path fill-rule="evenodd" clip-rule="evenodd" d="M296.632 79.9051C292.098 60.7576 282.184 42.9389 266.312 28.538C218.551 -18.7596 130.843 6.91261 131.241 78.1867C129.528 86.5115 128.833 95.071 129.4 103.561C129.634 107.183 131.199 112.239 129.097 115.499C124.353 121.596 121.597 126.094 123.212 134.205C124.56 141.291 129.373 146.308 135.868 148.977C139.764 150.095 143.459 152.534 144.903 156.252C153.574 172.152 159.995 185.377 173.664 196.215C177.193 199.006 213.367 215.738 225.289 215.738C260.184 215.738 304.165 203.076 304.895 164.031C305.021 155.457 303.521 146.78 302.576 138.273C300.284 118.856 301.092 98.7385 296.632 79.9051Z" fill="#79E59B"/>
<path fill-rule="evenodd" clip-rule="evenodd" d="M295.846 70.328C295.858 70.0913 296.197 70.038 296.261 70.2718C297.558 74.8813 298.293 79.5771 299.308 84.2585C300.285 88.7677 301.207 93.2897 301.974 97.8385C303.423 106.424 304.644 115.031 305.78 123.66L306.062 125.819C308.035 141.003 311.294 156.822 308.443 172.096C306.012 185.128 297.86 195.631 287.354 203.331C277.408 210.624 265.346 215.304 253.371 217.963C240.518 220.82 225.284 221.672 214.825 212.231C210.64 208.451 216.345 200.949 220.887 204.362C231.551 212.371 245.119 210.008 257.154 206.823L257.516 206.725C268.078 203.908 278.71 199.637 287.095 192.431C296.365 184.464 300.95 173.408 301.478 161.279C301.777 154.466 301.142 147.661 300.459 140.89L300.382 140.136C299.598 132.391 298.772 124.648 298.014 116.9C297.319 109.834 296.721 102.727 296.406 95.63L296.256 92.0504C295.95 84.8331 295.535 77.5107 295.846 70.328ZM170.773 10.3606C188.128 1.31065 208.071 -1.92818 227.385 1.10905C245.951 4.02875 262.99 13.6253 275.726 27.3856C281.944 34.1038 287.464 41.875 290.989 50.3649C292.742 54.5824 294.115 58.9822 294.845 63.5009C295.22 65.8239 295.589 68.2308 295.661 70.5859C295.725 72.7664 295.084 74.8115 295.161 77.0282C295.173 77.375 294.643 77.4417 294.563 77.1096C293.959 74.638 292.505 72.769 291.594 70.4214C290.911 68.6684 290.138 66.9569 289.351 65.2509L288.674 63.7889C286.713 59.5397 284.366 55.4651 282.044 51.4051C277.371 43.2281 271.375 35.7965 264.351 29.526C252.021 18.5163 236.205 11.4094 219.697 10.1298C202.561 8.8008 185.182 12.892 170.549 21.9543C155.917 31.0164 144.851 45.1034 139.107 61.3227C136.208 69.5073 134.608 78.0355 134.236 86.7064C134.047 91.0957 134.222 95.5215 134.53 99.9022L134.683 101.991C134.861 104.496 134.983 106.992 134.61 109.436C137.25 108.612 140.016 108.27 142.793 108.678C146.919 109.284 149.384 110.979 151.235 114.67C151.33 114.865 151.138 115.057 150.946 114.96C148.546 113.761 144.664 114.393 142.123 115.021C139.478 115.677 137.097 116.814 134.849 118.353C130.692 121.197 127.434 125.606 126.635 130.664C125.861 135.552 127.864 140.498 131.228 144C132.96 145.805 135.029 147.362 137.346 148.333C140.158 149.513 142.942 149.478 145.43 151.425C146.969 152.629 146.596 154.69 145.553 156.027C150.801 161.792 155.456 168.098 160.707 173.888C163.137 176.569 165.552 179.256 167.883 182.025L168.753 183.067C171.082 185.882 174.784 188.854 175.849 192.393C176.51 194.593 174.155 197.474 171.777 196.471C168.127 194.931 165.521 190.927 163.057 187.855L162.896 187.655C160.308 184.473 158.013 181.111 155.914 177.59L155.223 176.431C151.427 170.036 147.664 163.404 145.244 156.378C145.084 156.542 144.915 156.691 144.736 156.82C141.249 159.303 136.179 157.394 132.697 155.78C129.41 154.258 126.396 151.969 124.047 149.207C118.937 143.205 116.582 135.43 118.288 127.64C119.734 121.038 124.3 114.62 130.287 111.281C127.524 108.094 126.38 103.798 125.618 99.5981C124.645 94.2367 124.452 88.7425 124.716 83.3059C125.243 72.4775 128.025 61.8036 132.325 51.8878C140.02 34.1461 153.623 19.3051 170.773 10.3606ZM134.248 128.753C137.89 128.069 141.285 127.905 144.798 129.449C148.61 131.123 151.289 133.889 153.785 137.131C156.62 140.818 149.35 144.845 147.516 139.951L147.465 139.8C146.973 138.35 146.094 136.951 144.979 135.661C144.645 136.174 144.198 136.625 143.673 136.884C143.038 137.197 142.067 136.981 141.914 136.166C141.744 135.265 141.932 134.169 142.453 133.405L142.523 133.3C139.997 131.265 136.957 129.776 134.248 129.296C133.978 129.25 133.981 128.803 134.248 128.753Z" fill="black"/>
<path fill-rule="evenodd" clip-rule="evenodd" d="M222.113 155.621C222.217 155.523 222.383 155.488 222.511 155.569C224.679 156.94 224.935 161.559 224.961 164.226C225.858 164.459 226.742 164.724 227.581 164.91C229.36 165.306 231.148 165.648 232.934 166.012L234.272 166.287C238.744 167.233 243.299 167.931 247.856 168.282C252.278 168.619 256.831 168.745 261.24 168.172C263.134 167.928 265.018 167.518 266.848 166.971C269.011 166.325 270.733 165.254 272.746 164.316C277.783 161.965 282.005 168.852 277.156 171.874C272.994 174.467 267.317 175.402 262.513 175.804C257.604 176.215 252.714 175.764 247.862 174.985C242.619 174.144 237.482 172.853 232.509 170.98C230.406 170.186 228.372 169.224 226.384 168.175L225.843 167.888C225.512 167.71 225.167 167.529 224.821 167.346C224.449 170.672 223.377 173.883 222.08 176.972L222.052 176.918C221.342 179.354 218.782 180.862 216.232 179.784C213.241 178.523 213.013 175.21 214.755 172.858L214.837 172.748C216.885 170.112 218.164 166.84 219.279 163.723C219.851 162.124 220.379 160.486 220.84 158.852C221.171 157.669 221.183 156.48 222.113 155.621ZM299.185 129.135C297.411 134.502 293.546 138.635 288.161 140.452C282.822 142.253 276.884 141.597 271.43 140.623C270.234 140.41 269.024 140.175 267.819 139.899C268.806 140.514 269.68 141.376 270.515 142.29C271.75 143.639 272.869 145.061 273.211 146.749C273.547 148.426 273.017 149.701 272.046 150.663C270.557 152.142 268.152 152.94 266.115 153.381C261.555 154.366 256.988 154.215 252.451 153.201C251.291 152.944 250.506 152.323 250.065 151.51C249.53 150.522 249.486 149.298 249.793 148.181C250.101 147.065 250.765 146.035 251.728 145.467C252.52 144.997 253.513 144.869 254.638 145.244C256.898 145.997 259.141 146.495 261.529 146.555C262.539 146.577 263.557 146.547 264.564 146.455C265.133 146.403 265.702 146.329 266.269 146.239C265.938 145.795 265.612 145.341 265.297 144.883C264.923 144.342 264.557 143.796 264.211 143.238C263.206 141.625 262.368 139.969 261.633 138.218C261.396 137.657 261.178 137.095 260.969 136.53C260.938 136.449 260.907 136.368 260.879 136.285C260.812 136.233 260.748 136.179 260.684 136.122C259.248 134.875 258.041 133.341 257.187 131.439C254.877 126.286 255.254 119.892 256.655 114.542C257.78 110.253 260.258 106.287 263.533 103.593C264.105 102.65 264.482 102.079 264.944 101.597C266.827 99.6356 269.454 98.3125 272.018 97.5079C277.743 95.7095 283.977 96.9996 288.828 100.423C293.311 103.585 296.819 108.326 298.713 113.599C300.508 118.593 300.859 124.071 299.185 129.135ZM221.207 96.5217C228.016 96.4635 234.942 98.4769 240.468 102.506C245.754 106.362 249.902 112.055 249.897 118.835C249.892 125.436 246.37 131.928 242.462 137.041C238.076 142.777 232.346 145.543 225.139 145.607C221.392 145.641 217.619 145.308 213.901 144.853L211.903 144.601C209.158 144.247 206.38 143.826 203.776 142.879C191.379 138.375 190.995 122.121 195.587 111.732C199.131 103.71 208.105 95.8874 217.052 96.8263C218.4 96.6371 219.784 96.5343 221.207 96.5217ZM232.706 104.165C224.181 100.332 213.823 101.48 205.551 105.571C202.276 109.151 199.88 113.663 198.911 117.804C197.876 122.228 198.029 126.991 199.585 131.275C201.484 136.508 206.16 137.803 211.206 138.607L213.164 138.917L213.986 139.04C218.943 139.78 224.364 140.357 229.128 139.428C234.437 138.396 237.81 134.1 240.464 129.694L240.587 129.486C243.343 124.874 245.65 119.26 243.338 113.971C241.372 109.476 237.079 106.132 232.706 104.165ZM283.028 105.501C280.102 103.877 276.766 103.582 273.607 104.669C272.248 105.137 271.072 105.895 269.933 106.744L269.48 107.088C268.078 108.165 266.77 108.711 265.72 110.165L265.584 110.36C265.056 111.153 264.128 111.47 263.281 111.365C262.297 114.083 261.891 117.023 261.883 119.918L261.884 120.3L261.889 120.692C261.953 124.113 262.549 128.298 265.236 130.592C267.686 132.681 271.397 133.184 274.711 133.474L277.264 133.687L277.944 133.74C281.434 133.982 285.263 133.899 288.189 131.829C290.738 130.025 291.94 126.963 292.251 123.94C292.988 116.8 289.382 109.027 283.028 105.501ZM219.341 106.161C224.034 103.76 229.675 104.362 233.652 107.371C233.299 107.44 232.95 107.528 232.604 107.702C231.701 108.156 231.141 109.063 230.928 110.029C230.689 111.12 231.253 112.154 232.327 112.498C233.263 112.797 234.373 112.934 235.244 112.364C235.7 112.066 236.017 111.673 236.226 111.178L236.254 111.106L236.292 111.052L236.306 111.027C236.308 111.018 236.292 111.036 236.266 111.076C236.292 111.015 236.318 110.953 236.341 110.89C236.379 110.816 236.413 110.74 236.441 110.662C236.494 110.619 236.538 110.57 236.586 110.521C237.307 111.635 237.876 112.893 238.237 114.292C240.546 123.273 231.068 132.593 222.599 133.526C219.4 133.877 216.481 133.112 214.059 131.61C214.081 131.579 214.105 131.552 214.126 131.521C215.099 131.698 216.26 131.261 216.614 130.173C217.515 127.402 216.59 124.158 213.574 123.251C211.634 122.67 209.647 123.313 208.259 124.643C207.211 122.069 206.836 119.174 207.331 116.275C208.031 112.182 210.496 108.495 214.33 106.793C216.199 105.964 217.806 105.789 219.341 106.161ZM268.783 111.702L268.928 111.476C270.377 109.24 273.151 106.497 276.026 107.251C276.428 107.357 276.825 107.527 277.18 107.749C278.76 107.534 280.416 107.893 281.772 108.73L281.736 108.824C281.729 108.839 281.724 108.855 281.719 108.872C281.596 109.416 281.667 109.919 281.921 110.419C282.195 110.96 282.59 111.473 283.121 111.784C283.484 111.997 283.913 112.109 284.333 112.1C284.95 112.089 285.49 111.817 285.936 111.403C286.178 111.178 286.346 110.848 286.439 110.509C286.659 110.72 286.872 110.955 287.074 111.221C290.406 115.61 289.946 122.663 286.037 126.576C285.878 126.732 285.711 126.875 285.545 127.022C283.958 129.209 281.511 130.695 278.573 130.997C275.852 131.275 273.132 130.469 271.046 128.817C271.214 128.727 271.371 128.611 271.505 128.459C271.861 128.055 272.156 127.656 272.371 127.163C272.425 127.038 272.478 126.913 272.528 126.787L272.601 126.597C272.613 126.561 272.725 126.242 272.696 126.298L272.689 126.309L272.727 126.217C273.102 125.284 272.95 124.218 272.063 123.632L271.966 123.57C271.676 123.401 271.318 123.32 270.956 123.32C270.049 122.211 268.703 121.957 267.438 122.28L267.394 121.922C267.389 121.862 267.381 121.803 267.376 121.744C266.397 118.491 266.871 114.794 268.783 111.702ZM225.297 78.9558L225.623 78.905C228.082 78.5491 229.754 78.9589 231.355 81.0641C232.116 82.0674 231.881 83.5823 231.355 84.6076C229.652 87.9203 224.969 87.2352 221.814 87.8932C218.733 88.535 215.663 89.4088 212.779 90.6806C209.838 91.9783 207.08 93.5135 204.389 95.2665C201.953 96.853 199.746 99.2371 196.964 100.16C196.838 100.202 196.689 100.089 196.696 99.9564C196.895 96.7881 199.537 93.8798 201.584 91.6235C203.95 89.0145 206.826 86.6978 209.824 84.856C212.918 82.9561 216.263 81.3918 219.725 80.3008C221.547 79.7262 223.413 79.2695 225.297 78.9558ZM262.76 83.2574C265.856 78.7223 273.555 79.592 278.096 80.8041C283.789 82.3226 289.96 85.3946 293.954 89.8407C297.529 93.824 292.18 98.9992 288.158 95.6474L287.083 94.7558L286.396 94.1907C283.308 91.6644 280.252 89.3782 276.488 87.694C272.077 85.72 267.607 84.7587 262.942 83.7067C262.76 83.6657 262.653 83.4165 262.76 83.2574Z" fill="black"/>
<path fill-rule="evenodd" clip-rule="evenodd" d="M215.798 184.777C219.856 175.26 228.708 168.265 238.901 165.706C246.387 163.832 254.241 163.894 261.873 164.636C265.869 165.024 270.159 165.339 273.924 166.826C277.143 168.096 279.765 170.5 281.736 173.318C284.081 176.659 285.678 180.482 286.799 184.399C286.957 184.958 287.108 185.518 287.247 186.083C286.762 189.039 285.724 191.556 282.99 193.414C280.323 195.229 277.14 195.973 273.967 196.237C273.657 196.086 273.355 195.932 273.081 195.773C268.136 192.939 264.654 186.237 258.413 187.145C252.842 187.954 249.176 194.975 245.863 199.091C235.231 200.333 224.608 197.132 215.957 191.041C215.519 188.959 215.492 186.855 215.798 184.777ZM294.474 177.557C293.621 175.168 292.552 172.85 291.281 170.67C287.083 163.456 280.64 157.708 272.991 154.422C254.891 146.662 231.476 152.133 216.86 164.862C211.869 169.215 206.82 175.609 205.293 182.488C204.837 182.579 204.408 182.816 204.052 183.151C193.495 176.49 182.619 170.084 174.11 160.854C167.933 154.146 163.633 146.208 161 137.487C160.787 136.769 159.631 136.874 159.665 137.67C159.675 137.855 159.685 138.04 159.697 138.225C159.585 137.883 159.065 138.059 159.026 138.391C157.609 148.987 155.838 160.22 157.47 170.87C158.444 177.226 161.328 181.878 165.18 186.902C169.308 192.288 173.979 197.295 178.758 202.099C181.791 205.148 184.958 208.665 188.671 210.901C192.989 213.5 197.886 215.472 202.497 217.476C207.182 219.521 211.942 221.412 216.79 223.05C226.481 226.334 236.498 228.606 246.69 229.601C254.851 230.394 264.178 231.259 271.999 228.183C277.992 225.828 282.831 221.568 286.669 216.441C290.847 210.862 294.148 204.503 295.974 197.8C297.872 190.835 294.874 178.679 294.474 177.557Z" fill="black"/>
</g>
<defs>
<clipPath id="clip0_10_109">
<rect width="388" height="555" fill="white"/>
</clipPath>
</defs>
</svg>
