<svg width="562" height="596" viewBox="0 0 562 596" fill="none" xmlns="http://www.w3.org/2000/svg">
<path d="M298.454 315.156C299.021 321.551 287.146 325.053 280.991 315.156C274.338 306.414 279.229 286.112 298.454 280.252C316.56 273.313 345.211 286.632 350.843 315.156C358.017 342.583 336.352 379.584 298.454 384.97C261.733 392.383 216.229 362.362 211.139 315.156C203.423 269.102 241.942 215.292 298.454 210.437C353.87 202.493 416.083 249.311 420.694 315.156C428.9 379.849 373.661 450.461 298.454 454.782C224.357 463.258 145.379 399.631 141.288 315.156C132.573 231.781 204.565 144.459 298.454 140.625C391.158 131.671 486.999 211.999 490.546 315.156C499.793 417.161 410.983 521.293 298.454 524.594C187.057 534.081 74.4965 436.952 71.4363 315.156C61.7124 194.514 167.234 73.5939 298.454 70.8126C428.501 60.7951 557.87 174.734 560.398 315.156C570.664 454.483 448.314 592.113 298.454 594.408C149.77 604.913 3.58027 474.262 1.58461 315.156C-9.17028 157.203 129.923 2.76188 298.454 1" stroke="#79E59B" stroke-linecap="round"/>
</svg>
